<?xml version="1.0" encoding="UTF-8"?>
<svg id="_Слой_2" data-name="Слой 2" xmlns="http://www.w3.org/2000/svg" viewBox="0 0 69.22 94.59">
  <defs>
    <style>
      .cls-1 {
        fill: #fff;
      }

      .cls-2 {
        fill: #6cb71d;
        stroke: #6cb71d;
        stroke-miterlimit: 10;
        stroke-width: 2.03px;
      }
    </style>
  </defs>
  <g id="_Слой_1-2" data-name="Слой 1">
    <g>
      <g>
        <path class="cls-1" d="M67.71,45.08c-2.21-7.06-7.53-12.14-14.42-14.65-3.62-1.32-7.51-1.73-11.31-2.16-4.26-.48-8.54-.65-12.8-.09-.98,.13-1.96,.29-2.94,.44-.13,.02-.25,.05-.35,.09-6.61,1.53-12.65,5.26-17.11,10.35C3.78,44.74,.89,51.9,.17,59.4c-.73,7.54,.83,15.59,4.97,22,4.02,6.24,10.34,9.91,17.49,11.49,3.46,.77,7,1.12,10.53,1.35,3.46,.22,6.95,.41,10.42,.32,6.73-.19,13.86-1.72,18.46-7.04,4.75-5.49,5.84-13,6.49-19.99,.68-7.39,1.44-15.26-.82-22.46Z"/>
        <g>
          <path class="cls-2" d="M31.02,86.39l-2.46-.56c-.09-.63-.14-1.57-.14-2.81,0-1.36,.04-3.07,.11-5.13l-.07-3.09-.07-1.72c.02-1.9,.12-5.57,.28-11.03l.04-5.2-.04-5.65-.81,1.09c-1.59,2.22-2.77,3.71-3.55,4.46l-2.53-1.12c-.59-.58-1.07-.99-1.44-1.23-.56-.33-1.16-.92-1.79-1.79,.19-.56,.84-1.59,1.97-3.09,.61-.8,1.09-1.49,1.44-2.07,.82-1.29,1.91-2.73,3.27-4.32,.73-.87,1.37-1.67,1.93-2.42,.02-.35,.35-.97,.98-1.86,.28-.4,.55-.81,.81-1.23l.6-.88c.94-.45,1.81-.69,2.62-.72s1.29-.05,1.46-.05c1.17,0,2.12,.21,2.84,.63,.09,.21,.18,1.03,.25,2.44,.07,1.42,.12,2.84,.16,4.27,.04,1.43,.05,2.59,.05,3.48,0,3.19-.08,5.19-.25,6.01l.14,4.85c.07,2.51,.11,4.48,.11,5.94s-.04,3.3-.11,5.41c0,.38-.04,.87-.11,1.47-.05,.42-.12,.74-.21,.95v.95l.07,4.32c0,1.15-.04,2.2-.11,3.16-.07,.65-.11,1.49-.11,2.49,0,1.85-.11,3.05-.32,3.62-.82,.28-1.57,.42-2.25,.42-.21,0-.43-.01-.65-.04s-.46-.04-.72-.04c-.44,0-.91,.04-1.4,.11Z"/>
          <path class="cls-2" d="M53.56,87.27c-.33,0-.74-.05-1.25-.16s-1.14-.44-1.91-1c-.07-.14-.14-.25-.21-.32-.23-.23-.35-.36-.35-.39-.14-.21-.27-.61-.39-1.19l-.14-.49c-.14-.63-.21-1.12-.21-1.47,0-.96,.08-1.69,.25-2.18,.09-.28,.44-.91,1.05-1.9,1.1-1.01,2.41-1.51,3.93-1.51,.26,0,.56,.04,.91,.12,.35,.08,.84,.47,1.47,1.18,.84,1.24,1.33,2.67,1.48,4.28,0,.54-.15,1.21-.44,2.02-.29,.81-.66,1.35-1.11,1.63l-.14,.28-.28,.28c-.28,.23-.6,.42-.95,.56l-.14,.04c-.56,.14-1.09,.21-1.58,.21Z"/>
        </g>
      </g>
      <path class="cls-1" d="M55.84,0c-7.59,.5-15.48,2.59-21.08,8.04-5.12,4.97-7.88,12.78-5.57,19.72,.24,.73,.72,1.32,1.32,1.72,.52,1.42,2.12,2.51,3.67,2.03,12.56-3.93,18.97-15.89,24.25-26.99,.9-1.89-.13-4.68-2.59-4.51Zm-7.14,7.82c-.21-.21-.45-.38-.7-.51,.91-.26,1.82-.48,2.75-.66-.42,.83-.85,1.66-1.29,2.49-.15-.51-.41-.98-.75-1.33Zm-13.7,10.8c.79-2.49,2.31-4.77,4.26-6.59,.05-.05,.11-.09,.16-.14-1.19,1.39-2.2,2.94-2.94,4.61-.39,.9-.46,1.88-.13,2.72l-1.98,2.8c.05-1.12,.25-2.24,.62-3.4Z"/>
    </g>
  </g>
</svg>