<?xml version="1.0" encoding="UTF-8"?>
<svg id="_Слой_2" data-name="Слой 2" xmlns="http://www.w3.org/2000/svg" viewBox="0 0 52 68.74">
  <defs>
    <style>
      .cls-1 {
        fill: #6cb61d;
      }

      .cls-2 {
        fill: #fff;
        stroke: #fff;
        stroke-miterlimit: 10;
        stroke-width: 1.52px;
      }
    </style>
  </defs>
  <g id="_Слой_1-2" data-name="Слой 1">
    <g>
      <g>
        <path class="cls-1" d="M50.87,31.54c-1.66-5.3-5.66-9.12-10.83-11.01-2.72-.99-5.64-1.3-8.5-1.62-3.2-.36-6.42-.49-9.62-.07-.74,.1-1.47,.22-2.21,.33-.1,.02-.19,.04-.27,.07-4.96,1.15-9.5,3.95-12.86,7.77C2.84,31.29,.67,36.67,.13,42.3c-.54,5.66,.62,11.71,3.73,16.53,3.02,4.69,7.77,7.45,13.14,8.64,2.6,.58,5.26,.84,7.91,1.02,2.6,.17,5.22,.31,7.83,.24,5.06-.14,10.41-1.29,13.87-5.29,3.57-4.13,4.39-9.77,4.88-15.01,.51-5.55,1.08-11.46-.61-16.87Z"/>
        <g>
          <path class="cls-2" d="M21.06,64.27c-3.24,0-6.07-.57-8.49-1.72,0-.12,.06-.34,.18-.66,.21-.63,.32-1.08,.32-1.35,0-.05,.02-.13,.05-.22s.06-.18,.08-.25c0-.09,0-.15-.03-.18-.02-.04-.03-.09-.03-.16,0-.14,.04-.39,.13-.76,.09-.37,.21-.78,.38-1.24,.17-.46,.34-.78,.51-.98,.58,.23,1.19,.49,1.82,.79,1.62,.88,3.36,1.32,5.22,1.32,.97,0,1.97-.15,3.01-.45,.7-.23,1.24-.5,1.61-.82s.7-.67,1-1.05l.66-.74c.02-.35,.06-.71,.13-1.08,.09-.47,.13-1.02,.13-1.63-.35-4.64-3.37-7.06-9.05-7.26,0-.81-.01-1.31-.04-1.49-.03-.18-.04-.43-.04-.72v-.45c0-.16,0-.31-.03-.46-.02-.15-.03-.31-.03-.49s.06-.31,.18-.4c1.85-.09,3.59-.84,5.22-2.26s2.49-3.16,2.56-5.24c-.05-2.55-.68-4.18-1.87-4.88-.88-.61-2.3-.97-4.27-1.05l-.24-.03c-.18-.05-.39-.08-.63-.08-.39,0-.94,.08-1.66,.24-.72,.16-1.63,.88-2.72,2.16-.28-.4-.55-.77-.82-1.11-.65-.77-.98-1.36-.98-1.77,0-.26,.11-.52,.34-.77,1.51-2.04,3.71-3.09,6.6-3.16h.66c2.62,0,4.92,.49,6.89,1.48,1.16,.95,1.82,1.51,1.98,1.69,.26,.28,.5,.65,.71,1.09,.21,.45,.49,1.13,.84,2.05,.3,.91,.45,2.04,.45,3.38,0,.14-.01,.62-.04,1.44-.03,.82-.27,1.63-.73,2.44-.14,1.04-.48,2.12-1.03,3.25-.55,1.13-1.21,1.96-2.01,2.51,.37,.18,.69,.35,.98,.53,.74,.25,1.32,.54,1.75,.87,.43,.33,.87,.84,1.33,1.53,.54,.76,.97,1.57,1.27,2.45,.35,1.21,.55,2.84,.58,4.88,0,.95-.09,1.5-.26,1.64-.02,.58-.24,1.35-.66,2.32-.42,.97-.94,1.84-1.54,2.63-.61,.78-1.17,1.18-1.7,1.2-.32,.46-.88,.89-1.69,1.29-1.67,.83-3.26,1.35-4.78,1.58-.69,.11-1.43,.16-2.24,.16Z"/>
          <path class="cls-2" d="M41.61,63.95c-.25,0-.56-.04-.94-.12s-.86-.33-1.44-.75c-.05-.11-.11-.18-.16-.24-.18-.18-.26-.27-.26-.29-.11-.16-.2-.46-.29-.9l-.11-.37c-.11-.47-.16-.84-.16-1.11,0-.72,.06-1.27,.18-1.64,.07-.21,.33-.69,.79-1.42,.83-.76,1.81-1.13,2.95-1.13,.19,0,.42,.03,.69,.09,.26,.06,.63,.36,1.11,.88,.63,.93,1,2,1.11,3.22,0,.4-.11,.91-.33,1.52-.22,.61-.5,1.02-.83,1.23l-.11,.21-.21,.21c-.21,.17-.45,.32-.71,.42l-.11,.03c-.42,.11-.82,.16-1.19,.16Z"/>
        </g>
      </g>
      <path class="cls-1" d="M47.05,1.66C46.88,.72,45.8-.03,44.88,0c-4.79,.14-9.52,2.16-12.79,5.7-3.31,3.6-5.08,8.56-4.72,13.45,.08,1.12,.84,2.08,1.96,2.22,.37,.36,.88,.59,1.52,.57,4.76-.17,9.51-2.31,12.56-6.03,3.29-4.01,4.57-9.17,3.64-14.26Zm-11.77,7.24c2.03-2.21,4.73-3.64,7.59-4.16,0,.38,0,.75-.03,1.13-.83-.75-2.33-.83-3.11,.06-2.49,2.89-4.98,5.78-7.47,8.67,.52-2.1,1.51-4.08,3.01-5.71Zm2.66,6.02c1.17-1.36,2.35-2.73,3.52-4.09-.39,.76-.86,1.48-1.41,2.13-.63,.74-1.35,1.4-2.11,1.97Z"/>
    </g>
  </g>
</svg>