<?xml version="1.0" encoding="UTF-8"?>
<svg id="_Слой_2" data-name="Слой 2" xmlns="http://www.w3.org/2000/svg" viewBox="0 0 52 67.41">
  <defs>
    <style>
      .cls-1 {
        fill: #6cb61d;
      }

      .cls-2 {
        fill: #fff;
        stroke: #fff;
        stroke-miterlimit: 10;
        stroke-width: 1.52px;
      }
    </style>
  </defs>
  <g id="_Слой_1-2" data-name="Слой 1">
    <g>
      <g>
        <path class="cls-1" d="M50.87,30.21c-1.66-5.3-5.66-9.12-10.83-11.01-2.72-.99-5.64-1.3-8.5-1.62-3.2-.36-6.42-.49-9.62-.07-.74,.1-1.47,.22-2.21,.33-.1,.02-.19,.04-.27,.07-4.96,1.15-9.5,3.95-12.86,7.77C2.84,29.96,.67,35.34,.13,40.97c-.54,5.66,.62,11.71,3.73,16.53,3.02,4.69,7.77,7.45,13.14,8.64,2.6,.58,5.26,.84,7.91,1.02,2.6,.17,5.22,.31,7.83,.24,5.06-.14,10.41-1.29,13.87-5.29,3.57-4.13,4.39-9.77,4.88-15.01,.51-5.55,1.08-11.46-.61-16.87Z"/>
        <g>
          <path class="cls-2" d="M25.23,61.36h-5.12c-3.71,0-5.77,0-6.17-.03-.51,0-1.06-.26-1.64-.79l.4-3.93c.19,0,.29-.12,.29-.37v-.13c0-.09,.02-.2,.05-.34,.04-.14,.23-.35,.58-.62,.35-.27,.69-.46,1-.57,.58-.17,1.48-.94,2.69-2.29,1.92-2.16,3.54-4.26,4.88-6.31,.83-1.27,1.35-1.95,1.58-2.06,.05-.47,.48-1.23,1.29-2.27,.32-.4,.59-.79,.82-1.16,2.02-3.29,3.03-5.57,3.03-6.83-.11-.74-.25-1.29-.45-1.65-.19-.36-.47-.72-.82-1.07-.16-.16-.33-.34-.5-.55-.6-.67-1.27-1-2.01-1-.51,0-1.09,.12-1.74,.34-1.07,.42-1.78,1.04-2.12,1.85s-.58,1.8-.7,2.98l-.03,.13c-.72,.21-2.67,.32-5.86,.32-.21-.04-.36-.11-.45-.24l-.05-.18c.35-1.69,1.06-3.68,2.12-5.96s2.33-3.84,3.79-4.67l4.67-1.32c.19,.04,.47,.06,.84,.08,3.13,0,5.39,1.09,6.78,3.27,1.13,1.39,1.86,3.21,2.19,5.46,.09,.58,.13,1.16,.13,1.74,0,1.69-.36,3.41-1.08,5.17-.69,1.48-2.13,3.9-4.34,7.25-2.21,3.36-4.36,6.45-6.45,9.26,1.55-.04,2.97-.05,4.27-.05s2.2,.03,2.69,.08c.39,.04,.84,.05,1.37,.05h.55c1.44,0,2.38,.08,2.82,.24,.35,.83,.53,1.57,.53,2.22v.08c0,.51,.08,1.08,.24,1.72l-.24,1.95c-.56,.09-1.45,.13-2.66,.13l-1.71-.03c-.55-.02-1.13-.03-1.77-.03-.35,0-.74,.01-1.16,.04-.42,.03-.83,.04-1.21,.04-.21,0-.43,0-.66,.03s-.46,.03-.69,.03Z"/>
          <path class="cls-2" d="M41.87,62.63c-.25,0-.56-.04-.94-.12s-.86-.33-1.44-.75c-.05-.11-.11-.18-.16-.24-.18-.18-.26-.27-.26-.29-.11-.16-.2-.46-.29-.9l-.11-.37c-.11-.47-.16-.84-.16-1.11,0-.72,.06-1.27,.18-1.64,.07-.21,.33-.69,.79-1.42,.83-.76,1.81-1.13,2.95-1.13,.19,0,.42,.03,.69,.09,.26,.06,.63,.36,1.11,.88,.63,.93,1,2,1.11,3.22,0,.4-.11,.91-.33,1.52-.22,.61-.5,1.02-.83,1.23l-.11,.21-.21,.21c-.21,.17-.45,.32-.71,.42l-.11,.03c-.42,.11-.82,.16-1.19,.16Z"/>
        </g>
      </g>
      <path class="cls-1" d="M40,2.25C39.92,1.04,39.03,0,37.74,0c-8.23,.03-15.56,7.64-15.05,15.92,.07,1.13,.86,2.09,2,2.22,.02,.03,.05,.05,.07,.08,0,.19,.01,.38,.07,.58,.31,1.13,1.61,1.96,2.77,1.57,7.52-2.49,12.91-10.14,12.4-18.12Zm-4.56,2.64s0,.02-.01,.07c-.03,.19-.06,.38-.1,.56-.07,.37-.16,.75-.26,1.11-.11,.4-.24,.8-.38,1.2-.05,.15-.11,.29-.17,.44-.02,.04-.18,.4-.18,.4-.34,.73-.74,1.43-1.18,2.1-.17,.25-.49,.71-.56,.8-.09,.11-.49,.58-.71,.82-.26,.28-.53,.55-.81,.82,.28-.67,.55-1.33,.82-1.99,.14-.33,.27-.65,.41-.98,.01-.03,.02-.04,.03-.07,0-.02,0-.02,.02-.04,.07-.16,.14-.32,.2-.48,.26-.61,.53-1.22,.81-1.82,.25-.53,.51-1.06,.8-1.58,.14-.24,.28-.48,.43-.71,.06-.09,.12-.17,.18-.25,.1-.12,.18-.25,.26-.38,.14-.04,.29-.09,.43-.13,0,.04,0,.08,0,.1Z"/>
    </g>
  </g>
</svg>