<?xml version="1.0" encoding="UTF-8"?>
<svg id="_Слой_2" data-name="Слой 2" xmlns="http://www.w3.org/2000/svg" viewBox="0 0 52 71.06">
  <defs>
    <style>
      .cls-1 {
        fill: #6cb61d;
      }

      .cls-2 {
        fill: #fff;
        stroke: #fff;
        stroke-miterlimit: 10;
        stroke-width: 1.52px;
      }
    </style>
  </defs>
  <g id="_Слой_1-2" data-name="Слой 1">
    <g>
      <g>
        <path class="cls-1" d="M50.87,33.86c-1.66-5.3-5.66-9.12-10.83-11.01-2.72-.99-5.64-1.3-8.5-1.62-3.2-.36-6.42-.49-9.62-.07-.74,.1-1.47,.22-2.21,.33-.1,.02-.19,.04-.27,.07-4.96,1.15-9.5,3.95-12.86,7.77C2.84,33.61,.67,38.99,.13,44.63c-.54,5.66,.62,11.71,3.73,16.53,3.02,4.69,7.77,7.45,13.14,8.64,2.6,.58,5.26,.84,7.91,1.01,2.6,.17,5.22,.31,7.83,.24,5.06-.14,10.41-1.29,13.87-5.29,3.57-4.13,4.39-9.77,4.88-15.01,.51-5.55,1.08-11.46-.61-16.87Z"/>
        <g>
          <path class="cls-2" d="M23.31,64.9l-1.85-.42c-.07-.48-.11-1.18-.11-2.11,0-1.02,.03-2.3,.08-3.85l-.05-2.32-.05-1.29c.02-1.42,.09-4.18,.21-8.28l.03-3.9-.03-4.25-.61,.82c-1.2,1.67-2.08,2.79-2.66,3.35l-1.9-.85c-.44-.44-.8-.75-1.08-.92-.42-.25-.87-.69-1.35-1.35,.14-.42,.63-1.2,1.48-2.32,.46-.6,.82-1.12,1.08-1.56,.62-.97,1.43-2.05,2.45-3.25,.55-.65,1.03-1.26,1.45-1.82,.02-.26,.26-.73,.74-1.4,.21-.3,.41-.61,.61-.92l.45-.66c.7-.33,1.36-.52,1.97-.54s.97-.04,1.09-.04c.88,0,1.59,.16,2.14,.48,.07,.16,.13,.77,.18,1.83,.05,1.06,.09,2.13,.12,3.2,.03,1.07,.04,1.94,.04,2.61,0,2.39-.06,3.9-.18,4.51l.11,3.64c.05,1.88,.08,3.37,.08,4.46s-.03,2.48-.08,4.06c0,.28-.03,.65-.08,1.11-.04,.32-.09,.55-.16,.71v.71l.05,3.24c0,.86-.03,1.65-.08,2.38-.05,.49-.08,1.12-.08,1.87,0,1.39-.08,2.29-.24,2.72-.62,.21-1.18,.32-1.69,.32-.16,0-.32,0-.49-.03s-.35-.03-.54-.03c-.33,0-.69,.03-1.06,.08Z"/>
          <path class="cls-2" d="M40.24,65.56c-.25,0-.56-.04-.94-.12s-.86-.33-1.44-.75c-.05-.11-.11-.18-.16-.24-.18-.18-.26-.27-.26-.29-.11-.16-.2-.46-.29-.9l-.11-.37c-.11-.47-.16-.84-.16-1.11,0-.72,.06-1.27,.18-1.64,.07-.21,.33-.69,.79-1.42,.83-.76,1.81-1.13,2.95-1.13,.19,0,.42,.03,.69,.09,.26,.06,.63,.36,1.11,.88,.63,.93,1,2,1.11,3.22,0,.4-.11,.91-.33,1.52-.22,.61-.5,1.02-.83,1.23l-.11,.21-.21,.21c-.21,.17-.45,.32-.71,.42l-.11,.03c-.42,.11-.82,.16-1.19,.16Z"/>
        </g>
      </g>
      <path class="cls-1" d="M41.95,0c-5.71,.38-11.63,1.95-15.84,6.04-3.84,3.73-5.92,9.6-4.18,14.82,.18,.54,.54,.99,1,1.29,.39,1.06,1.59,1.89,2.76,1.52,9.44-2.95,14.25-11.94,18.22-20.28,.68-1.42-.1-3.51-1.95-3.39Zm-5.36,5.88c-.16-.16-.34-.28-.53-.38,.68-.2,1.37-.36,2.07-.5-.31,.63-.64,1.25-.97,1.87-.11-.38-.3-.74-.57-1Zm-10.29,8.11c.59-1.87,1.74-3.59,3.2-4.95,.04-.04,.08-.07,.12-.11-.9,1.04-1.65,2.21-2.21,3.47-.3,.67-.35,1.42-.1,2.05l-1.49,2.1c.04-.84,.19-1.69,.47-2.56Z"/>
    </g>
  </g>
</svg>