<?xml version="1.0" encoding="UTF-8"?>
<svg id="_Слой_2" data-name="Слой 2" xmlns="http://www.w3.org/2000/svg" viewBox="0 0 67.35 61.02">
  <defs>
    <style>
      .cls-1 {
        fill: #fff;
      }

      .cls-2 {
        fill: #e83027;
      }
    </style>
  </defs>
  <g id="_Слой_1-2" data-name="Слой 1">
    <g>
      <path class="cls-2" d="M65.62,15c-2.45-6.49-7.91-10.82-14.43-12.85-3.52-1.1-7.27-1.44-10.92-1.81-4.04-.41-8.11-.52-12.15,.01-.87,.11-1.73,.24-2.6,.37-.12,.02-.22,.04-.32,.08C11.59,3.76,1.36,15.44,.12,29.31c-.62,7,1.08,14.48,5.26,20.2,4.16,5.7,10.41,8.77,17.22,10.08,3.39,.66,6.85,.96,10.3,1.15,3.34,.19,6.69,.35,10.03,.24,6.38-.23,13.17-1.65,17.61-6.61,4.56-5.09,5.58-12.16,6.2-18.71,.64-6.79,1.34-14.13-1.13-20.66Z"/>
      <g id="RyGARW.tif">
        <g>
          <path class="cls-1" d="M32.64,38.78c-.29-.66-.56-1.25-.85-1.91,.51-.23,1-.47,1.51-.67,.3-.12,.42-.26,.42-.6-.02-1.31-.02-2.62,0-3.93,0-.31-.11-.46-.38-.57-.98-.41-1.95-.87-2.94-1.26-.21-.08-.51-.08-.72,0-.97,.4-1.92,.85-2.89,1.25-.3,.13-.4,.29-.4,.62,.02,1.29,.02,2.59,0,3.88,0,.3,.08,.47,.37,.58,.51,.2,1,.45,1.54,.69-.28,.65-.55,1.25-.83,1.91-1.02-.46-2.01-.89-2.99-1.35-.1-.05-.17-.25-.17-.38-.01-2.28-.01-4.55,0-6.83,0-.16,.2-.39,.36-.46,1.28-.59,2.57-1.16,3.87-1.71,.33-.14,.44-.32,.47-.68,.09-.95-.14-1.49-1.11-2.01-2.93-1.55-3.54-5.65-1.3-8.15,1.21-1.34,2.53-2.58,3.81-3.87,1.42-1.43,2.85-2.85,4.28-4.28,1.13-1.13,2.48-1.7,4.08-1.7,6.48,0,12.96,0,19.44,0,.17,0,.34,0,.55,0v2.09c-.22,0-.42,0-.63,0-6.45,0-12.89,0-19.34,0-1.75,0-3.15,1.11-3.43,2.7-.38,2.12,1.15,3.99,3.31,4,3.53,.01,7.07,0,10.6,0,2.96,0,5.93,0,8.89,0h.59v2.08h-.63c-5.57,0-11.13,0-16.7,0-.37,0-.64,.1-.9,.37-1.89,1.92-3.8,3.8-5.68,5.72-.96,.98-2.07,1.64-3.45,1.8-.08,.01-.16,.05-.28,.08,0,.46-.03,.93,.02,1.39,.02,.15,.22,.32,.37,.4,1.3,.59,2.61,1.17,3.92,1.73,.28,.12,.37,.28,.37,.58-.01,2.22,0,4.45-.02,6.67,0,.16-.09,.4-.2,.46-.94,.45-1.9,.87-2.92,1.33Zm.54-25.2s-.03,0-.06,.02c-1.65,1.64-3.31,3.27-4.92,4.94-.82,.85-1.04,1.93-.74,3.08,.66,2.53,3.76,3.31,5.68,1.43,1.53-1.49,3.02-3.02,4.53-4.53,.08-.08,.14-.17,.2-.24-.77-.29-1.52-.57-2.44-.91-.03,.05-.11,.23-.24,.36-1.26,1.27-2.53,2.54-3.8,3.8-.47,.47-1.1,.48-1.52,.06-.43-.42-.42-1.04,.04-1.52,.63-.66,1.28-1.3,1.93-1.94,.76-.75,1.52-1.49,2.21-2.16-.31-.86-.59-1.62-.87-2.4Z"/>
          <path class="cls-1" d="M59.12,44.84v2.06h-.63c-4.96,0-9.93,0-14.89,0-.39,0-.63,.12-.87,.41-1.75,2.09-3.48,4.19-5.28,6.23-1.9,2.16-4.33,3.27-7.2,3.27-2.89,0-5.34-1.09-7.25-3.27-1.75-1.99-3.44-4.04-5.14-6.08-.34-.4-.67-.59-1.21-.58-1.74,.04-3.48,.01-5.26,.01v-2.08h.47c2.02,0,4.03,0,6.05,0,.32,0,.53,.1,.74,.34,1.9,2.27,3.82,4.53,5.73,6.8,3.13,3.71,8.57,3.71,11.7,0,1.91-2.26,3.82-4.53,5.75-6.78,.15-.17,.41-.34,.62-.34,5.46-.02,10.92-.01,16.39-.01,.08,0,.17,.01,.29,.02Z"/>
          <path class="cls-1" d="M39.3,44.61c-.14,.19-.24,.34-.35,.48-1.31,1.75-2.62,3.5-3.94,5.25-2.44,3.25-7.13,3.24-9.58-.01-1.31-1.75-2.63-3.49-3.95-5.24-.1-.14-.2-.28-.34-.48h18.15Z"/>
          <path class="cls-1" d="M43.52,13.83v-2.02h15.22v2.02h-15.22Z"/>
          <path class="cls-1" d="M40.44,12.84c0,.77-.62,1.37-1.39,1.37-.76,0-1.38-.62-1.38-1.38,0-.78,.65-1.42,1.42-1.4,.76,.02,1.35,.64,1.34,1.42Z"/>
        </g>
      </g>
    </g>
  </g>
</svg>