<?xml version="1.0" encoding="UTF-8"?>
<svg id="_Слой_2" data-name="Слой 2" xmlns="http://www.w3.org/2000/svg" viewBox="0 0 67.35 61.02">
  <defs>
    <style>
      .cls-1 {
        fill: #e83027;
      }

      .cls-2 {
        fill: #fff;
        stroke: #fff;
        stroke-miterlimit: 10;
        stroke-width: .75px;
      }
    </style>
  </defs>
  <g id="_Слой_1-2" data-name="Слой 1">
    <g>
      <path class="cls-1" d="M65.62,15c-2.45-6.49-7.91-10.82-14.43-12.85-3.52-1.1-7.27-1.44-10.92-1.81-4.04-.41-8.11-.52-12.15,.01-.87,.11-1.73,.24-2.6,.37-.12,.02-.22,.04-.32,.08C11.59,3.76,1.36,15.44,.12,29.31c-.62,7,1.08,14.48,5.26,20.2,4.16,5.7,10.41,8.77,17.22,10.08,3.39,.66,6.85,.96,10.3,1.15,3.34,.19,6.69,.35,10.03,.24,6.38-.23,13.17-1.65,17.61-6.61,4.56-5.09,5.58-12.16,6.2-18.71,.64-6.79,1.34-14.13-1.13-20.66Z"/>
      <g id="VtSwUV.tif">
        <path class="cls-2" d="M39.97,34.62c-1.14,1.79-1.99,3.71-2.6,5.74-.87,2.9-1.26,5.87-1.34,8.89-.01,.42-.01,.83-.07,1.24-.07,.43-.44,.69-.87,.68-.43,0-.78-.29-.85-.71-.04-.22-.05-.44-.05-.66,0-2.97-.2-5.94-.66-8.88-.46-2.95-1.22-5.83-2.42-8.58-.05-.12-.11-.24-.17-.35-.02-.03-.05-.06-.07-.08-.58,.23-1.15,.5-1.74,.67-2.33,.68-4.65,.68-6.94-.2-1.55-.59-2.67-1.68-3.53-3.06-1.14-1.83-1.72-3.86-2.09-5.97-.43-2.46-.55-4.94-.55-7.43,0-.68,.32-1.07,.97-1.07,3.11,0,6.2,.14,9.23,.9,1.75,.44,3.42,1.08,4.9,2.15,1.63,1.18,2.56,2.78,2.92,4.73,.45,2.43,.2,4.77-.96,6.98-.16,.3-.34,.59-.56,.85-.15,.18-.16,.31-.06,.52,1.3,2.68,2.11,5.51,2.64,8.43,.07,.41,.15,.81,.22,1.19,.46-1.24,.86-2.53,1.41-3.74,.57-1.25,1.3-2.43,1.97-3.63,.1-.18,.13-.29,.04-.49-1.13-2.65-1.25-5.35-.26-8.06,.58-1.58,1.7-2.72,3.11-3.59,1.9-1.17,4-1.74,6.17-2.11,2.4-.4,4.82-.5,7.24-.51,.67,0,1.05,.35,1.05,.99,0,3.01-.15,6.02-.85,8.96-.44,1.85-1.09,3.6-2.22,5.16-1.14,1.57-2.68,2.48-4.55,2.86-2.46,.5-4.85,.27-7.1-.91-.47-.24-.89-.58-1.36-.9Zm14.25-14.33c-.1,0-.16-.02-.23-.02-1.86,.14-3.72,.22-5.56,.43-1.79,.2-3.53,.66-5.15,1.49-1.04,.54-2,1.18-2.63,2.2-.68,1.09-.93,2.31-.98,3.57-.05,1.12,.08,2.22,.49,3.43,.08-.15,.11-.23,.16-.29,1.58-1.82,3.44-3.29,5.54-4.46,.5-.28,1.01-.55,1.54-.76,.6-.23,1.13,.09,1.25,.68,.08,.43-.1,.74-.62,1-2.23,1.07-4.22,2.46-5.91,4.28-.36,.39-.69,.8-1.1,1.26,.45,.31,.82,.62,1.24,.84,1.39,.73,2.89,.93,4.43,.86,2.61-.11,4.53-1.28,5.66-3.68,.64-1.37,1.06-2.79,1.33-4.27,.39-2.16,.51-4.34,.55-6.57Zm-22.83,8.61c.07-.13,.13-.23,.18-.33,.9-1.91,1.03-3.9,.58-5.95-.32-1.45-1.1-2.59-2.34-3.42-1.3-.87-2.73-1.39-4.23-1.74-2.46-.57-4.96-.75-7.48-.78-.08,0-.17,.02-.26,.04,.04,2.06,.14,4.08,.48,6.09,.28,1.66,.68,3.28,1.45,4.8,.8,1.58,1.91,2.81,3.7,3.29,1.49,.4,2.98,.44,4.48,.11,.72-.15,1.42-.37,2.1-.79-.52-.74-.99-1.45-1.51-2.14-1.19-1.57-2.68-2.79-4.3-3.89-.24-.16-.47-.33-.67-.53-.35-.35-.36-.88-.05-1.24,.3-.34,.8-.4,1.2-.12,.56,.38,1.11,.77,1.66,1.18,1.31,.96,2.5,2.05,3.5,3.33,.52,.67,1,1.36,1.52,2.09Z"/>
      </g>
    </g>
  </g>
</svg>