<?xml version="1.0" encoding="UTF-8"?>
<svg id="_Слой_2" data-name="Слой 2" xmlns="http://www.w3.org/2000/svg" viewBox="0 0 41.53 37.62">
  <defs>
    <style>
      .cls-1 {
        fill: #6cb71d;
      }
    </style>
  </defs>
  <g id="_Слой_1-2" data-name="Слой 1">
    <path class="cls-1" d="M40.46,9.25c-1.51-4-4.87-6.67-8.9-7.92-2.17-.68-4.48-.89-6.73-1.11-2.49-.25-5-.32-7.49,0-.53,.07-1.07,.15-1.6,.23-.07,.01-.14,.03-.2,.05C7.15,2.32,.84,9.52,.08,18.07c-.38,4.32,.67,8.93,3.24,12.45,2.57,3.51,6.42,5.41,10.62,6.22,2.09,.4,4.22,.59,6.35,.71,2.06,.12,4.12,.22,6.18,.15,3.94-.14,8.12-1.02,10.86-4.07,2.81-3.14,3.44-7.5,3.82-11.54,.4-4.19,.83-8.71-.7-12.74Zm-7.16,12.94c-.3,1.08-1.09,1.71-2.1,2.1-4.92,1.87-9.84,3.74-14.76,5.6-1.57,.6-3.23-.67-3.69-2.1-.53-1.64,.63-3.14,2.1-3.69,3.26-1.24,6.52-2.47,9.78-3.71-2.86-2.44-5.73-4.88-8.59-7.33-1.28-1.09-1.03-3.12,0-4.24,1.16-1.26,3.05-1.02,4.24,0,4.08,3.48,8.17,6.97,12.25,10.45,.8,.68,1.04,1.95,.77,2.92Z"/>
  </g>
</svg>