{
  "accessors": [
    {
      "bufferView": 2,
      "componentType": 5126,
      "count": 3641,
      "max": [
        0.03671799972653389,
        0.03758599981665611,
        0.03869299963116646
      ],
      "min": [
        -0.03520699962973595,
        -0.037703998386859894,
        -0.04058900102972984
      ],
      "type": "VEC3"
    },
    {
      "bufferView": 2,
      "byteOffset": 43692,
      "componentType": 5126,
      "count": 3641,
      "max": [
        0.9985319972038269,
        0.9993215799331665,
        0.9999027252197266
      ],
      "min": [
        -0.9994668364524841,
        -0.9988139271736145,
        -0.9998579025268555
      ],
      "type": "VEC3"
    },
    {
      "bufferView": 3,
      "componentType": 5126,
      "count": 3641,
      "max": [
        0.9999852180480957,
        0.9964532256126404,
        0.9930316209793091,
        1.0
      ],
      "min": [
        -0.9999765753746033,
        -0.9809893369674683,
        -0.993308424949646,
        -1.0
      ],
      "type": "VEC4"
    },
    {
      "bufferView": 1,
      "componentType": 5126,
      "count": 3641,
      "max": [
        0.9978979825973511,
        0.9978190064430237
      ],
      "min": [
        0.001756999990902841,
        0.0017519999528303742
      ],
      "type": "VEC2"
    },
    {
      "bufferView": 0,
      "componentType": 5125,
      "count": 19632,
      "type": "SCALAR"
    }
  ],
  "asset": {
    "extras": {
      "author": "vertexgrocer (https://sketchfab.com/vertexgrocer)",
      "license": "CC-BY-4.0 (http://creativecommons.org/licenses/by/4.0/)",
      "source": "https://sketchfab.com/3d-models/apple-15a03017f4754abc8fd471b2de9e78b6",
      "title": "Apple"
    },
    "generator": "Sketchfab-15.30.0",
    "version": "2.0"
  },
  "bufferViews": [
    {
      "buffer": 0,
      "byteLength": 78528,
      "name": "floatBufferViews",
      "target": 34963
    },
    {
      "buffer": 0,
      "byteLength": 29128,
      "byteOffset": 78528,
      "byteStride": 8,
      "name": "floatBufferViews",
      "target": 34962
    },
    {
      "buffer": 0,
      "byteLength": 87384,
      "byteOffset": 107656,
      "byteStride": 12,
      "name": "floatBufferViews",
      "target": 34962
    },
    {
      "buffer": 0,
      "byteLength": 58256,
      "byteOffset": 195040,
      "byteStride": 16,
      "name": "floatBufferViews",
      "target": 34962
    }
  ],
  "buffers": [
    {
      "byteLength": 253296,
      "uri": "scene.bin"
    }
  ],
  "extensionsUsed": [
    "KHR_materials_specular"
  ],
  "images": [
    {
      "uri": "textures/apple_baseColor.jpeg"
    },
    {
      "uri": "textures/apple_normal.png"
    }
  ],
  "materials": [
    {
      "doubleSided": true,
      "extensions": {
        "KHR_materials_specular": {
          "specularColorFactor": [
            1.0,
            1.0,
            1.0
          ],
          "specularFactor": 0.0
        }
      },
      "name": "apple",
      "normalTexture": {
        "index": 1
      },
      "pbrMetallicRoughness": {
        "baseColorTexture": {
          "index": 0
        },
        "metallicFactor": 0.0
      }
    }
  ],
  "meshes": [
    {
      "name": "Object_0",
      "primitives": [
        {
          "attributes": {
            "NORMAL": 1,
            "POSITION": 0,
            "TANGENT": 2,
            "TEXCOORD_0": 3
          },
          "indices": 4,
          "material": 0,
          "mode": 4
        }
      ]
    }
  ],
  "nodes": [
    {
      "children": [
        1
      ],
      "matrix": [
        1.0,
        0.0,
        0.0,
        0.0,
        0.0,
        2.220446049250313e-16,
        -1.0,
        0.0,
        0.0,
        1.0,
        2.220446049250313e-16,
        0.0,
        0.0,
        0.0,
        0.0,
        1.0
      ],
      "name": "Sketchfab_model"
    },
    {
      "children": [
        2
      ],
      "name": "Apple.obj.cleaner.materialmerger.gles"
    },
    {
      "mesh": 0,
      "name": "Object_2"
    }
  ],
  "samplers": [
    {
      "magFilter": 9729,
      "minFilter": 9987,
      "wrapS": 10497,
      "wrapT": 10497
    }
  ],
  "scene": 0,
  "scenes": [
    {
      "name": "Sketchfab_Scene",
      "nodes": [
        0
      ]
    }
  ],
  "textures": [
    {
      "sampler": 0,
      "source": 0
    },
    {
      "sampler": 0,
      "source": 1
    }
  ]
}
