<?xml version="1.0" encoding="UTF-8"?>
<svg id="_Слой_2" data-name="Слой 2" xmlns="http://www.w3.org/2000/svg" viewBox="0 0 61.14 66">
  <defs>
    <style>
      .cls-1 {
        fill: #e83028;
      }
    </style>
  </defs>
  <g id="_Слой_1-2" data-name="Слой 1">
    <path class="cls-1" d="M61.14,.02c-1.48-.01-2.99-.02-4.54-.02-8.96,0-13.81,.11-22.73,1-4.62,.46-9.04,2.38-13.55,3.53-3.74,.95-7.6,2.26-10.77,4.52-3.08,2.2-4.72,5.78-5.9,9.27-1.4,4.11-2.18,8.42-2.77,12.7-.53,3.87-1.23,7.91-.66,11.81,.69,4.72,2.83,9.3,5.71,13.08,2.82,3.7,6.31,6.39,10.85,7.56,4.77,1.23,9.81,1.39,14.71,1.48,13.08,.25,12.03,1.03,25.11,1.03h4.54V.02Z"/>
  </g>
</svg>