<?xml version="1.0" encoding="UTF-8"?>
<svg id="_Слой_2" data-name="Слой 2" xmlns="http://www.w3.org/2000/svg" viewBox="0 0 24.41 22.11">
  <defs>
    <style>
      .cls-1 {
        fill: #fff;
      }
    </style>
  </defs>
  <g id="_Слой_1-2" data-name="Слой 1">
    <path class="cls-1" d="M23.78,5.44c-.89-2.35-2.87-3.92-5.23-4.66-1.27-.4-2.63-.52-3.96-.65-1.47-.15-2.94-.19-4.4,0-.31,.04-.63,.09-.94,.13-.04,0-.08,.02-.12,.03C4.2,1.36,.49,5.59,.04,10.62c-.23,2.54,.39,5.25,1.91,7.32,1.51,2.07,3.77,3.18,6.24,3.65,1.23,.24,2.48,.35,3.73,.42,1.21,.07,2.42,.13,3.63,.09,2.31-.08,4.77-.6,6.38-2.39,1.65-1.84,2.02-4.41,2.25-6.78,.23-2.46,.49-5.12-.41-7.49Z"/>
  </g>
</svg>