<?xml version="1.0" encoding="UTF-8"?>
<svg id="_Слой_2" data-name="Слой 2" xmlns="http://www.w3.org/2000/svg" viewBox="0 0 60.81 60.84">
  <defs>
    <style>
      .cls-1 {
        fill: #fff;
      }

      .cls-2 {
        fill: #111010;
      }
    </style>
  </defs>
  <g id="_Слой_1-2" data-name="Слой 1">
    <g>
      <path class="cls-2" d="M60.81,30.49c-.03,.85-.03,1.76-.1,2.66-.1,1.39-.35,2.75-.67,4.11-1.06,4.53-3.02,8.63-5.95,12.24-3.74,4.61-8.42,7.87-14.05,9.76-2.02,.68-4.09,1.14-6.2,1.39-1.71,.2-3.43,.23-5.14,.11-8.64-.56-15.83-4.12-21.49-10.68-3.29-3.82-5.44-8.24-6.54-13.17C.14,34.54-.02,32.13,0,29.7,.12,19.2,6.22,8.7,16.27,3.47c2.88-1.5,5.93-2.53,9.13-3.07,1.96-.33,3.93-.47,5.92-.36,.77,.04,1.55,.05,2.31,.12,1.73,.17,3.42,.52,5.09,1,5.88,1.69,10.82,4.86,14.8,9.5,3.3,3.84,5.47,8.27,6.58,13.21,.29,1.29,.52,2.59,.61,3.91,.06,.88,.06,1.77,.09,2.72Z"/>
      <path class="cls-1" d="M39.27,46.44c-.15-.06-.31-.1-.43-.18-.49-.33-.98-.66-1.46-1-2.12-1.53-4.24-3.07-6.37-4.6-.37-.26-.75-.5-1.13-.73-.46-.28-.93-.24-1.34,.08-.86,.67-1.71,1.36-2.56,2.05-.77,.62-1.53,1.24-2.3,1.85-.58,.46-1.36,.22-1.59-.48-.74-2.32-1.46-4.65-2.19-6.97-.35-1.12-.72-2.24-1.07-3.37-.05-.16-.14-.25-.29-.31-1.89-.71-3.78-1.43-5.67-2.15-.9-.34-1.79-.69-2.68-1.04-.36-.14-.6-.51-.6-.89,0-.32,.28-.73,.61-.86,2.94-1.15,5.87-2.3,8.81-3.43,8.54-3.29,17.08-6.57,25.61-9.85,.24-.09,.48-.16,.71-.27,.23-.11,.45-.07,.66,.03,.42,.19,.62,.57,.53,1.01-.64,3.19-1.27,6.37-1.92,9.56-.69,3.38-1.39,6.76-2.1,10.14-.74,3.53-1.5,7.05-2.25,10.57-.12,.54-.42,.78-.99,.85Zm-18.49-13.96c.01,.11,.01,.22,.04,.32,.2,.8,.38,1.61,.61,2.4,.4,1.4,.83,2.79,1.25,4.18,.07,.22,.16,.27,.35,.26,.21-.01,.33-.11,.37-.32,.05-.25,.1-.5,.14-.75,.14-.92,.28-1.85,.42-2.78,.1-.65,.36-1.21,.87-1.65,.14-.12,.27-.27,.41-.4,3.31-3.09,6.62-6.18,9.93-9.27,1.14-1.07,2.26-2.15,3.39-3.23,.1-.09,.12-.18,.04-.28-.08-.1-.18-.16-.31-.07-.14,.09-.28,.16-.42,.25-3.5,2.14-7,4.28-10.49,6.43-1.99,1.23-3.97,2.48-5.95,3.72-.43,.27-.63,.68-.63,1.19Z"/>
    </g>
  </g>
</svg>