<?xml version="1.0" encoding="UTF-8"?>
<svg id="_Слой_2" data-name="Слой 2" xmlns="http://www.w3.org/2000/svg" viewBox="0 0 60.81 62.65">
  <defs>
    <style>
      .cls-1 {
        fill: #f6f5f6;
      }

      .cls-2 {
        fill: #6cb71d;
      }
    </style>
  </defs>
  <g id="_Слой_1-2" data-name="Слой 1">
    <g>
      <path class="cls-2" d="M29.17,0h2.56c.03,.06,.08,.03,.11,.03,1.39,.07,2.78,.23,4.15,.5,2.96,.57,5.78,1.56,8.43,3,5.55,3.01,9.77,7.33,12.72,12.9,2.26,4.27,3.44,8.84,3.63,13.66,.11,2.78-.14,5.53-.74,8.24-.81,3.62-2.19,7.01-4.2,10.14-3.15,4.92-7.34,8.7-12.61,11.25-3.44,1.67-7.08,2.61-10.9,2.86-1.83,.12-3.65,.07-5.47-.15-1.95-.23-3.86-.66-5.73-1.27-3.06-1.01-5.89-2.48-8.47-4.4-3.6-2.67-6.48-5.98-8.66-9.9C1.55,42.44,.24,37.7,.03,32.65c-.11-2.54,.08-5.06,.57-7.55,.71-3.63,2.01-7.04,3.92-10.22,2.32-3.87,5.33-7.09,9.05-9.65,2.45-1.69,5.1-2.98,7.95-3.88C23.82,.64,26.19,.2,28.6,.05c.19-.01,.39,.02,.57-.05Z"/>
      <g>
        <path class="cls-1" d="M49.84,29.59c0,1.68-.02,3.06-.14,4.43-.17,2.06-.52,4.09-1.26,6.03-1.28,3.36-3.63,5.61-7,6.81-1.38,.49-2.8,.8-4.24,1.01-2.21,.32-4.44,.39-6.67,.44-.99,.02-1.97,.04-2.96,.05-.11,0-.17,.05-.24,.13-.87,1.02-1.76,2.03-2.72,2.96-.63,.62-1.28,1.22-2.05,1.68-.22,.13-.44,.24-.69,.3-.48,.12-.95-.08-1.18-.52-.2-.39-.26-.81-.31-1.23-.08-.78-.03-1.57-.04-2.35,0-.58,0-1.17,0-1.75,0-.14-.04-.2-.18-.25-1.91-.66-3.56-1.72-4.93-3.22-1.24-1.36-2.12-2.94-2.76-4.66-.62-1.66-.99-3.37-1.22-5.12-.33-2.51-.36-5.02-.22-7.54,.11-1.97,.37-3.92,.93-5.81,.54-1.83,1.33-3.53,2.55-5.01,1.25-1.52,2.81-2.59,4.61-3.33,1.42-.58,2.9-.91,4.42-1.11,1.79-.24,3.59-.28,5.39-.34,1.17-.03,2.33-.04,3.5,0,2.77,.1,5.51,.44,8.15,1.35,1.43,.49,2.81,1.09,4.05,1.98,1.73,1.25,2.94,2.92,3.75,4.88,.58,1.41,.93,2.88,1.15,4.39,.29,2.02,.31,4.06,.3,5.8Zm-27.82,21.94c.08,0,.13-.06,.18-.1,.45-.36,.86-.75,1.26-1.16,1.48-1.51,2.85-3.13,4.18-4.77,.07-.09,.15-.13,.27-.13,.75,0,1.49-.03,2.24-.04,2.37-.05,4.73-.11,7.07-.48,1.33-.21,2.62-.52,3.86-1.05,1.76-.74,3.15-1.9,4.08-3.58,.73-1.32,1.13-2.75,1.38-4.23,.26-1.52,.35-3.06,.37-4.61,.04-2.32,.06-4.63-.24-6.94-.17-1.31-.45-2.59-.95-3.82-.54-1.34-1.32-2.5-2.45-3.42-.85-.69-1.82-1.14-2.82-1.54-2.36-.92-4.83-1.3-7.34-1.44-1.39-.08-2.78-.08-4.17-.04-1.55,.05-3.09,.08-4.63,.27-1.38,.16-2.73,.44-4.03,.95-1.61,.64-2.96,1.62-3.96,3.06-.76,1.08-1.26,2.28-1.62,3.54-.47,1.64-.68,3.33-.76,5.03-.12,2.52-.09,5.03,.29,7.53,.24,1.53,.6,3.03,1.22,4.46,.57,1.33,1.34,2.52,2.4,3.52,1.11,1.05,2.42,1.74,3.88,2.16,.18,.05,.25,.11,.25,.32-.01,1.96,0,3.91,0,5.87,0,.21,.02,.42,.05,.63Z"/>
        <path class="cls-1" d="M20.71,24.05c.03-1.11,.73-2.1,1.94-2.75,.38-.21,.77-.39,1.21-.43,.41-.04,.78,.05,1.11,.32,.42,.33,.77,.73,1.1,1.15,.72,.9,1.38,1.85,1.86,2.91,.17,.38,.27,.76,.15,1.18-.1,.33-.3,.59-.56,.81-.16,.13-.32,.25-.49,.38-.69,.52-.92,1.17-.68,2.01,.23,.78,.63,1.48,1.09,2.15,1.01,1.45,2.36,2.48,3.97,3.19,.82,.36,1.44,.17,1.94-.58,.13-.19,.26-.37,.42-.53,.57-.59,1.24-.73,2.01-.44,.31,.12,.59,.28,.86,.47,.9,.63,1.77,1.29,2.61,1.99,.14,.11,.27,.24,.39,.37,.42,.47,.55,1.02,.34,1.6-.57,1.58-1.67,2.61-3.3,3.05-.51,.14-.98-.02-1.43-.21-1.34-.56-2.61-1.25-3.84-2.02-2.45-1.54-4.59-3.42-6.4-5.69-1.62-2.03-2.89-4.27-3.87-6.68-.25-.62-.45-1.26-.44-2.24Z"/>
        <path class="cls-1" d="M39.88,29.81c0,.25,.04,.49,0,.74-.05,.28-.19,.41-.46,.42-.3,0-.46-.11-.53-.39-.06-.27-.02-.55-.06-.82-.17-1.3-.44-2.56-1-3.75-.82-1.76-2.17-2.95-3.97-3.64-1.01-.39-2.05-.64-3.12-.74-.02,0-.04,0-.06,0-.36-.06-.5-.2-.48-.49,.02-.37,.2-.54,.57-.55,1.69-.03,3.26,.41,4.67,1.33,2.29,1.49,3.74,3.58,4.29,6.26,.11,.54,.16,1.08,.15,1.63Z"/>
        <path class="cls-1" d="M37.5,29.08c0,.15,0,.31,0,.46-.01,.32-.16,.47-.46,.49-.31,.02-.48-.09-.52-.41-.06-.47-.11-.94-.21-1.4-.18-.8-.43-1.56-.93-2.23-.53-.71-1.26-1.14-2.07-1.44-.59-.22-1.2-.39-1.83-.47-.06,0-.11-.02-.17-.04-.29-.09-.41-.28-.37-.57,.05-.33,.21-.51,.52-.49,.66,.04,1.32,.14,1.94,.39,1.99,.78,3.33,2.17,3.92,4.24,.14,.48,.19,.98,.18,1.49Z"/>
        <path class="cls-1" d="M35.24,28.45c0,.16,0,.32-.04,.47-.07,.23-.22,.35-.44,.37-.21,.02-.39-.1-.48-.31-.08-.18-.07-.37-.11-.56-.22-1.13-.81-1.7-1.96-1.91-.07-.01-.14-.03-.22-.05-.25-.07-.37-.21-.37-.41,0-.27,.14-.49,.38-.56,.3-.09,.61-.07,.9,0,1.18,.32,2.35,1.71,2.34,2.95Z"/>
      </g>
    </g>
  </g>
</svg>