<?xml version="1.0" encoding="UTF-8"?>
<svg id="_Слой_2" data-name="Слой 2" xmlns="http://www.w3.org/2000/svg" viewBox="0 0 35.8 35.8">
  <defs>
    <style>
      .cls-1 {
        fill: #111;
      }
    </style>
  </defs>
  <g id="_Слой_1-2" data-name="Слой 1">
    <path class="cls-1" d="M17.9,0C8.01,0,0,8.01,0,17.9s8.01,17.9,17.9,17.9,17.9-8.01,17.9-17.9S27.78,0,17.9,0Zm7.47,20.27c.24,.27,.5,.52,.75,.78,.68,.71,1.37,1.42,2.03,2.15,.23,.26,.4,.58,.55,.89,.2,.44,.05,.82-.4,.99-.25,.1-.53,.15-.8,.16-.5,.02-1.01,0-1.51,0h0c-.36,.01-.73-.02-1.09,.02-.87,.08-1.55-.29-2.14-.88-.33-.33-.63-.7-.96-1.04-.28-.29-.56-.59-.88-.84-.37-.29-.76-.22-.96,.21-.18,.38-.31,.8-.34,1.22-.07,1.12-.25,1.29-1.39,1.33-1.97,.07-3.75-.43-5.32-1.64-1.1-.84-1.95-1.92-2.72-3.06-1.38-2.02-2.5-4.19-3.51-6.42-.28-.63-.06-.97,.63-.98,.95-.02,1.91-.04,2.86-.05,.67,0,.96,.19,1.23,.82,.65,1.5,1.4,2.95,2.43,4.24,.14,.18,.32,.34,.5,.47,.3,.21,.57,.14,.68-.2,.12-.37,.24-.76,.24-1.15,0-.91-.04-1.81-.11-2.72-.05-.54-.43-.84-.94-.96-.34-.08-.39-.21-.12-.44,.24-.2,.52-.4,.82-.45,1.27-.23,2.55-.24,3.82-.01,.63,.11,.9,.46,.9,1.11,0,1.22-.05,2.43-.05,3.65,0,.3,.06,.61,.16,.9,.14,.39,.47,.49,.74,.19,.51-.56,1.02-1.13,1.4-1.77,.56-.94,1.02-1.93,1.49-2.92,.28-.59,.38-.69,1.04-.69,1.14,0,2.28-.03,3.42-.04,.16,0,.33,.02,.49,.05,.42,.09,.6,.39,.44,.86-.15,.43-.33,.87-.59,1.24-.8,1.15-1.64,2.27-2.46,3.41-.15,.21-.29,.44-.42,.67-.18,.32-.14,.64,.1,.91Z"/>
  </g>
</svg>