<?xml version="1.0" encoding="UTF-8"?>
<svg id="_Слой_2" data-name="Слой 2" xmlns="http://www.w3.org/2000/svg" viewBox="0 0 60.81 60.81">
  <defs>
    <style>
      .cls-1 {
        fill: #6cb71d;
      }

      .cls-2 {
        fill: #fff;
        fill-rule: evenodd;
      }
    </style>
  </defs>
  <g id="_Слой_1-2" data-name="Слой 1">
    <g>
      <circle class="cls-1" cx="30.4" cy="30.4" r="30.4"/>
      <g id="WA_Logo" data-name="WA Logo">
        <path class="cls-2" d="M44.77,16.89c-3.55-3.55-8.26-5.5-13.28-5.51-10.35,0-18.77,8.42-18.78,18.77,0,3.31,.86,6.54,2.51,9.39l-2.66,9.73,9.95-2.61c2.74,1.5,5.83,2.28,8.97,2.28h0c10.35,0,18.77-8.42,18.78-18.77,0-5.02-1.95-9.73-5.49-13.28Zm-13.28,28.88h0c-2.8,0-5.55-.75-7.94-2.17l-.57-.34-5.91,1.55,1.58-5.76-.37-.59c-1.56-2.48-2.39-5.36-2.39-8.3,0-8.6,7.01-15.6,15.61-15.6,4.17,0,8.09,1.63,11.03,4.58,2.95,2.95,4.57,6.87,4.57,11.04,0,8.6-7.01,15.6-15.61,15.6Zm8.56-11.69c-.47-.23-2.78-1.37-3.21-1.53s-.74-.23-1.06,.23c-.31,.47-1.21,1.53-1.49,1.84s-.55,.35-1.02,.12c-.47-.23-1.98-.73-3.77-2.33-1.39-1.24-2.34-2.78-2.61-3.25-.27-.47-.03-.72,.21-.96,.21-.21,.47-.55,.7-.82s.31-.47,.47-.78c.16-.31,.08-.59-.04-.82-.12-.23-1.06-2.54-1.45-3.48-.38-.91-.77-.79-1.06-.81-.27-.01-.59-.02-.9-.02s-.82,.12-1.25,.59c-.43,.47-1.64,1.6-1.64,3.91s1.68,4.54,1.92,4.85c.23,.31,3.31,5.05,8.02,7.08,1.12,.48,1.99,.77,2.67,.99,1.12,.36,2.15,.31,2.96,.19,.9-.13,2.78-1.13,3.17-2.23s.39-2.03,.27-2.23c-.12-.2-.43-.31-.9-.55Z"/>
      </g>
    </g>
  </g>
</svg>