<?xml version="1.0" encoding="UTF-8"?>
<svg id="_Слой_2" data-name="Слой 2" xmlns="http://www.w3.org/2000/svg" viewBox="0 0 67.44 61.11">
  <defs>
    <style>
      .cls-1 {
        fill: #fff;
      }
    </style>
  </defs>
  <g id="_Слой_1-2" data-name="Слой 1">
    <g>
      <path class="cls-1" d="M65.7,15.04c-2.46-6.5-7.92-10.84-14.46-12.88-3.52-1.1-7.28-1.44-10.93-1.81-4.04-.41-8.11-.52-12.15,.01-.87,.11-1.74,.24-2.61,.37-.12,.02-.23,.05-.33,.08C11.6,3.77,1.36,15.47,.12,29.35c-.62,7.01,1.09,14.49,5.27,20.22,4.17,5.71,10.43,8.79,17.25,10.1,3.4,.66,6.86,.96,10.31,1.15,3.34,.19,6.69,.35,10.03,.24,6.39-.23,13.19-1.65,17.64-6.62,4.57-5.1,5.59-12.18,6.21-18.74,.64-6.8,1.34-14.14-1.13-20.67Z"/>
      <path d="M50.08,40.45c-5.01-3.39-9.4-7.49-12.67-10.7l.29-.27c3.91-3.55,7.94-7.23,12.61-9.89,1.36-.78,1.37-2.19,.81-3.17-.59-1.03-1.88-1.69-3.21-.93-4.97,2.84-9.28,6.75-13.45,10.53l-.41,.37c-2.67-2.69-5.35-5.44-7.95-8.11-1.02-1.05-2.04-2.09-3.06-3.14-.49-.5-1.09-.75-1.72-.71-.56,.04-1.11,.29-1.55,.72-.45,.44-.72,.99-.77,1.57-.06,.65,.18,1.27,.68,1.78,1.64,1.68,3.3,3.41,4.91,5.09,1.91,2,3.89,4.07,5.87,6.07-3.07,2.83-7.04,6.58-10.69,10.69-1.05,1.18-.64,2.68,.27,3.5,.82,.73,2.1,.97,3.1-.15,3.65-4.1,7.62-7.86,10.7-10.69,5.05,4.89,9.45,8.56,13.83,11.53,.43,.29,.85,.41,1.24,.41,.74,0,1.37-.43,1.77-1.03,.69-1.02,.72-2.59-.6-3.48Z"/>
    </g>
  </g>
</svg>