<?xml version="1.0" encoding="UTF-8"?>
<svg id="_Слой_2" data-name="Слой 2" xmlns="http://www.w3.org/2000/svg" viewBox="0 0 1366 64.45">
  <defs>
    <style>
      .cls-1 {
        fill: #6cb71d;
      }
    </style>
  </defs>
  <g id="_Слой_1-2" data-name="Слой 1">
    <path class="cls-1" d="M.48,64.45H1365.54v-4.27c0-3.2-.07-6.4,0-9.6,.1-4.17,0-8.29,0-12.46,0-5.7,1.2-12.76-.26-18.34-1.45-5.52-7.19-8.41-12.01-10.2-11.87-4.41-25.46-5.07-37.94-5.55-8.45-.32-16.9-.5-25.35-.74-46.38-1.3-92.78-2.43-139.18-3.05-59.45-.81-118.87,.56-178.31,1.59-71.31,1.24-142.62,2.55-213.92,3.81-76.88,1.36-153.59,2.63-230.47,1.63-81.87-1.07-163.73-2.32-245.6-3.37-71.09-.92-142.21-2.1-213.31-1.75-8.79,.04-17.59,.08-26.37,.38-2.28,.08-4.55,.21-6.83,.36C27.05,3.48,7.02,.28,1.39,9.97-1.06,14.2,.48,20.84,.48,25.93v38.52Z"/>
  </g>
</svg>