<?xml version="1.0" encoding="UTF-8"?>
<svg id="_Слой_2" data-name="Слой 2" xmlns="http://www.w3.org/2000/svg" viewBox="0 0 69.22 91.5">
  <defs>
    <style>
      .cls-1 {
        fill: #fff;
      }

      .cls-2 {
        fill: #6cb71d;
        stroke: #6cb71d;
        stroke-miterlimit: 10;
        stroke-width: 2.03px;
      }
    </style>
  </defs>
  <g id="_Слой_1-2" data-name="Слой 1">
    <g>
      <g>
        <path class="cls-1" d="M67.71,41.98c-2.21-7.06-7.53-12.14-14.42-14.65-3.62-1.32-7.51-1.73-11.31-2.16-4.26-.48-8.54-.65-12.8-.09-.98,.13-1.96,.29-2.94,.44-.13,.02-.25,.05-.35,.09-6.61,1.53-12.65,5.26-17.11,10.35C3.78,41.65,.89,48.81,.17,56.31c-.73,7.54,.83,15.59,4.97,22,4.02,6.24,10.34,9.91,17.49,11.49,3.46,.77,7,1.12,10.53,1.35,3.46,.22,6.95,.41,10.42,.32,6.73-.19,13.86-1.72,18.46-7.04,4.75-5.49,5.84-13,6.49-19.99,.68-7.39,1.44-15.26-.82-22.46Z"/>
        <g>
          <path class="cls-2" d="M28.04,85.55c-4.31,0-8.08-.76-11.31-2.28,0-.16,.08-.46,.25-.88,.28-.84,.42-1.44,.42-1.79,0-.07,.02-.17,.07-.3s.08-.24,.11-.33c0-.12-.01-.2-.04-.25-.02-.05-.04-.12-.04-.21,0-.19,.06-.53,.18-1.02,.12-.49,.29-1.04,.51-1.65,.22-.61,.45-1.04,.68-1.3,.77,.3,1.58,.65,2.42,1.05,2.15,1.17,4.47,1.76,6.95,1.76,1.29,0,2.62-.2,4-.6,.94-.3,1.65-.67,2.14-1.09s.94-.89,1.33-1.4l.88-.98c.02-.47,.08-.95,.18-1.44,.12-.63,.18-1.36,.18-2.18-.47-6.18-4.48-9.4-12.05-9.66,0-1.08-.02-1.74-.05-1.98-.03-.25-.05-.57-.05-.96v-.6c0-.21-.01-.42-.04-.62-.02-.2-.04-.41-.04-.65s.08-.41,.25-.53c2.46-.12,4.78-1.12,6.95-3s3.31-4.21,3.41-6.97c-.07-3.39-.9-5.56-2.49-6.5-1.17-.82-3.07-1.29-5.69-1.4l-.32-.04c-.23-.07-.52-.11-.84-.11-.52,0-1.25,.11-2.21,.32-.96,.21-2.17,1.17-3.62,2.88-.37-.54-.74-1.03-1.09-1.47-.87-1.03-1.3-1.81-1.3-2.35,0-.35,.15-.69,.46-1.02,2.01-2.71,4.94-4.12,8.78-4.21h.88c3.49,0,6.54,.65,9.17,1.96,1.54,1.27,2.42,2.02,2.63,2.25,.35,.38,.67,.86,.95,1.46,.28,.6,.65,1.51,1.12,2.72,.4,1.22,.6,2.71,.6,4.49,0,.19-.02,.83-.05,1.91-.04,1.09-.36,2.17-.97,3.25-.19,1.38-.64,2.82-1.37,4.32-.73,1.5-1.62,2.61-2.67,3.34,.49,.23,.92,.47,1.3,.7,.98,.33,1.76,.71,2.34,1.16,.57,.45,1.16,1.12,1.77,2.04,.73,1.01,1.29,2.1,1.69,3.27,.47,1.62,.73,3.78,.77,6.5,0,1.27-.12,1.99-.35,2.18-.02,.77-.32,1.8-.88,3.09-.56,1.29-1.25,2.45-2.05,3.49-.81,1.04-1.56,1.58-2.27,1.6-.42,.61-1.17,1.18-2.25,1.72-2.22,1.1-4.34,1.8-6.36,2.11-.91,.14-1.91,.21-2.98,.21Z"/>
          <path class="cls-2" d="M55.39,85.13c-.33,0-.74-.05-1.25-.16s-1.14-.44-1.91-1c-.07-.14-.14-.25-.21-.32-.23-.23-.35-.36-.35-.39-.14-.21-.27-.61-.39-1.19l-.14-.49c-.14-.63-.21-1.12-.21-1.47,0-.96,.08-1.69,.25-2.18,.09-.28,.44-.91,1.05-1.9,1.1-1.01,2.41-1.51,3.93-1.51,.26,0,.56,.04,.91,.12,.35,.08,.84,.47,1.47,1.18,.84,1.24,1.33,2.67,1.48,4.28,0,.54-.15,1.21-.44,2.02-.29,.81-.66,1.35-1.11,1.63l-.14,.28-.28,.28c-.28,.23-.6,.42-.95,.56l-.14,.04c-.56,.14-1.09,.21-1.58,.21Z"/>
        </g>
      </g>
      <path class="cls-1" d="M62.63,2.2C62.41,.95,60.97-.03,59.74,0c-6.38,.18-12.67,2.87-17.02,7.59-4.41,4.8-6.76,11.39-6.28,17.9,.11,1.49,1.12,2.76,2.61,2.96,.49,.49,1.17,.79,2.02,.76,6.34-.23,12.66-3.07,16.72-8.02,4.38-5.34,6.08-12.2,4.84-18.99Zm-15.67,9.63c2.7-2.94,6.3-4.84,10.1-5.53,0,.5,0,1-.04,1.51-1.11-.99-3.11-1.11-4.14,.09-3.31,3.85-6.63,7.7-9.94,11.54,.69-2.8,2-5.43,4.01-7.61Zm3.54,8.01c1.56-1.82,3.13-3.63,4.69-5.45-.52,1.01-1.15,1.97-1.88,2.83-.85,.99-1.79,1.86-2.81,2.62Z"/>
    </g>
  </g>
</svg>