<?xml version="1.0" encoding="UTF-8"?>
<svg id="_Слой_2" data-name="Слой 2" xmlns="http://www.w3.org/2000/svg" viewBox="0 0 69.22 89.73">
  <defs>
    <style>
      .cls-1 {
        fill: #fff;
      }

      .cls-2 {
        fill: #6cb71d;
        stroke: #6cb71d;
        stroke-miterlimit: 10;
        stroke-width: 2.03px;
      }
    </style>
  </defs>
  <g id="_Слой_1-2" data-name="Слой 1">
    <g>
      <g>
        <path class="cls-1" d="M67.71,40.21c-2.21-7.06-7.53-12.14-14.42-14.65-3.62-1.32-7.51-1.73-11.31-2.16-4.26-.48-8.54-.65-12.8-.09-.98,.13-1.96,.29-2.94,.44-.13,.02-.25,.05-.35,.09-6.61,1.53-12.65,5.26-17.11,10.35C3.78,39.88,.89,47.04,.17,54.54c-.73,7.54,.83,15.59,4.97,22,4.02,6.24,10.34,9.91,17.49,11.49,3.46,.77,7,1.12,10.53,1.35,3.46,.22,6.95,.41,10.42,.32,6.73-.19,13.86-1.72,18.46-7.04,4.75-5.49,5.84-13,6.49-19.99,.68-7.39,1.44-15.26-.82-22.46Z"/>
        <g>
          <path class="cls-2" d="M33.58,81.68h-6.81c-4.94,0-7.68-.01-8.22-.04-.68,0-1.4-.35-2.18-1.05l.53-5.23c.26,0,.39-.16,.39-.49v-.18c0-.12,.02-.27,.07-.46,.05-.19,.3-.46,.77-.82,.47-.36,.91-.62,1.33-.76,.77-.23,1.97-1.25,3.58-3.05,2.55-2.88,4.72-5.68,6.5-8.39,1.1-1.69,1.8-2.6,2.11-2.74,.07-.63,.64-1.64,1.72-3.02,.42-.54,.78-1.05,1.09-1.54,2.69-4.38,4.04-7.41,4.04-9.1-.14-.98-.34-1.71-.6-2.2-.26-.48-.62-.95-1.09-1.42-.21-.21-.43-.46-.67-.74-.8-.89-1.69-1.34-2.67-1.34-.68,0-1.45,.15-2.32,.46-1.43,.56-2.37,1.38-2.83,2.46s-.77,2.4-.93,3.97l-.03,.17c-.96,.28-3.56,.42-7.8,.42-.28-.05-.48-.15-.6-.32l-.07-.25c.47-2.25,1.41-4.89,2.83-7.94s3.1-5.12,5.04-6.21l6.22-1.76c.26,.05,.63,.08,1.12,.1,4.17,0,7.18,1.45,9.03,4.36,1.5,1.85,2.47,4.27,2.91,7.27,.12,.77,.18,1.54,.18,2.32,0,2.25-.48,4.54-1.44,6.88-.91,1.97-2.84,5.19-5.78,9.66-2.94,4.47-5.8,8.58-8.59,12.33,2.06-.05,3.96-.07,5.69-.07s2.93,.04,3.58,.11c.51,.05,1.12,.07,1.83,.07h.74c1.92,0,3.17,.11,3.76,.32,.47,1.1,.7,2.08,.7,2.95v.11c0,.68,.1,1.44,.32,2.28l-.32,2.6c-.75,.12-1.93,.18-3.55,.18l-2.28-.04c-.73-.02-1.51-.04-2.35-.04-.47,0-.98,.02-1.54,.05-.56,.04-1.1,.05-1.62,.05-.28,0-.57,.01-.88,.04s-.61,.04-.91,.04Z"/>
          <path class="cls-2" d="M55.74,83.36c-.33,0-.74-.05-1.25-.16s-1.14-.44-1.91-1c-.07-.14-.14-.25-.21-.32-.23-.23-.35-.36-.35-.39-.14-.21-.27-.61-.39-1.19l-.14-.49c-.14-.63-.21-1.12-.21-1.47,0-.96,.08-1.69,.25-2.18,.09-.28,.44-.91,1.05-1.9,1.1-1.01,2.41-1.51,3.93-1.51,.26,0,.56,.04,.91,.12,.35,.08,.84,.47,1.47,1.18,.84,1.24,1.33,2.67,1.48,4.28,0,.54-.15,1.21-.44,2.02-.29,.81-.66,1.35-1.11,1.63l-.14,.28-.28,.28c-.28,.23-.6,.42-.95,.56l-.14,.04c-.56,.14-1.09,.21-1.58,.21Z"/>
        </g>
      </g>
      <path class="cls-1" d="M53.24,3C53.13,1.39,51.95,0,50.24,0c-10.96,.04-20.72,10.17-20.03,21.19,.09,1.5,1.15,2.78,2.66,2.96,.03,.04,.06,.07,.09,.1,0,.25,.02,.51,.09,.77,.41,1.5,2.15,2.61,3.69,2.1,10-3.32,17.19-13.5,16.5-24.11Zm-6.07,3.52s0,.03-.02,.09c-.04,.25-.08,.5-.13,.75-.1,.5-.22,.99-.35,1.48-.15,.54-.32,1.07-.51,1.6-.07,.2-.15,.39-.22,.58-.03,.05-.24,.53-.24,.53-.46,.97-.99,1.9-1.58,2.79-.22,.34-.66,.95-.75,1.06-.12,.15-.65,.77-.95,1.1-.35,.38-.71,.74-1.08,1.09,.37-.89,.73-1.77,1.09-2.64,.18-.43,.36-.87,.54-1.3,.02-.04,.02-.06,.04-.09,0-.02,.01-.03,.02-.05,.09-.21,.18-.42,.27-.64,.35-.81,.71-1.62,1.08-2.42,.33-.71,.68-1.42,1.07-2.1,.18-.32,.37-.64,.57-.94,.08-.11,.16-.22,.23-.34,.13-.16,.24-.33,.34-.51,.19-.06,.38-.12,.58-.17,0,.06,0,.1-.01,.13Z"/>
    </g>
  </g>
</svg>