<svg xmlns="http://www.w3.org/2000/svg" opacity="0.7" viewBox="0 0 7.58 15.62"><title>фейсб сер</title><g id="Слой_2" data-name="Слой 2"><g id="Слой_1-2" data-name="Слой 1"><path d="M1.61,7.49H0V5.11H1.63c0-.79,0-1.52,0-2.24A2.6,2.6,0,0,1,4.09,0a25.8,25.8,0,0,1,3.49.1c-.16,1-.3,1.72-.44,2.5-.51,0-1-.11-1.43-.11-.73,0-1,.3-1,1V4.69c0,.11,0,.21,0,.4H7.22C7.16,5.94,7.11,6.7,7,7.51H4.67v.74c0,2.25,0,4.5,0,6.75,0,.47-.13.64-.61.62-.79,0-1.58,0-2.46,0Z" style="fill:#808080;fill-rule:evenodd"/></g></g></svg>