<?xml version="1.0" encoding="UTF-8"?>
<svg id="_Слой_2" data-name="Слой 2" xmlns="http://www.w3.org/2000/svg" xmlns:xlink="http://www.w3.org/1999/xlink" viewBox="0 0 170.33 175.68">
  <defs>
    <style>
      .cls-1 {
        fill: #0d4335;
      }

      .cls-2 {
        fill: url(#_Безымянный_градиент_87);
        stroke: url(#_Безымянный_градиент_3);
        stroke-miterlimit: 10;
        stroke-width: .04px;
      }

      .cls-3 {
        fill: url(#_Безымянный_градиент_91);
      }

      .cls-4 {
        fill: url(#_Безымянный_градиент_2-3);
      }

      .cls-5 {
        fill: url(#_Безымянный_градиент_2-4);
      }

      .cls-6 {
        fill: url(#_Безымянный_градиент_2-2);
      }

      .cls-7 {
        fill: url(#_Безымянный_градиент_2-5);
      }

      .cls-8 {
        fill: url(#_Безымянный_градиент_7-3);
      }

      .cls-9 {
        fill: url(#_Безымянный_градиент_7-2);
      }

      .cls-10 {
        fill: url(#_Безымянный_градиент_2);
      }

      .cls-11 {
        fill: url(#_Безымянный_градиент_7);
      }

      .cls-12 {
        opacity: 0;
      }
    </style>
    <linearGradient id="_Безымянный_градиент_2" data-name="Безымянный градиент 2" x1="39.21" y1="133.04" x2="131.46" y2="133.04" gradientUnits="userSpaceOnUse">
      <stop offset="0" stop-color="#66b430"/>
      <stop offset=".24" stop-color="#60b230"/>
      <stop offset=".56" stop-color="#50ae32"/>
      <stop offset=".91" stop-color="#36a835"/>
      <stop offset="1" stop-color="#2ea737"/>
    </linearGradient>
    <linearGradient id="_Безымянный_градиент_7" data-name="Безымянный градиент 7" x1="96" y1="116.49" x2="141.47" y2="116.49" gradientUnits="userSpaceOnUse">
      <stop offset="0" stop-color="#73b82b"/>
      <stop offset="1" stop-color="#73b82b"/>
    </linearGradient>
    <linearGradient id="_Безымянный_градиент_2-2" data-name="Безымянный градиент 2" x1="70.29" y1="138.23" x2="125.98" y2="138.23" xlink:href="#_Безымянный_градиент_2"/>
    <linearGradient id="_Безымянный_градиент_7-2" data-name="Безымянный градиент 7" x1="31.53" y1="121.14" x2="73.13" y2="121.14" xlink:href="#_Безымянный_градиент_7"/>
    <linearGradient id="_Безымянный_градиент_2-3" data-name="Безымянный градиент 2" x1="81.45" y1="141.19" x2="119.77" y2="141.19" xlink:href="#_Безымянный_градиент_2"/>
    <linearGradient id="_Безымянный_градиент_2-4" data-name="Безымянный градиент 2" x1="29.92" y1="127.63" x2="144.64" y2="127.63" xlink:href="#_Безымянный_градиент_2"/>
    <linearGradient id="_Безымянный_градиент_7-3" data-name="Безымянный градиент 7" x1="93.27" y1="116.42" x2="144.73" y2="116.42" xlink:href="#_Безымянный_градиент_7"/>
    <linearGradient id="_Безымянный_градиент_91" data-name="Безымянный градиент 91" x1="33.54" y1="72.53" x2="80.13" y2="72.53" gradientUnits="userSpaceOnUse">
      <stop offset="0" stop-color="#66b430"/>
      <stop offset=".24" stop-color="#60b230"/>
      <stop offset=".55" stop-color="#50af32"/>
      <stop offset=".9" stop-color="#36a935"/>
      <stop offset="1" stop-color="#2da737"/>
    </linearGradient>
    <linearGradient id="_Безымянный_градиент_2-5" data-name="Безымянный градиент 2" x1="91.16" y1="72.84" x2="137.75" y2="72.84" xlink:href="#_Безымянный_градиент_2"/>
    <linearGradient id="_Безымянный_градиент_87" data-name="Безымянный градиент 87" x1="58.72" y1="51.74" x2="111.22" y2="51.74" gradientUnits="userSpaceOnUse">
      <stop offset="0" stop-color="#76c42b"/>
      <stop offset=".42" stop-color="#7bc12b"/>
      <stop offset=".96" stop-color="#8bb82b"/>
      <stop offset="1" stop-color="#8db82b"/>
    </linearGradient>
    <linearGradient id="_Безымянный_градиент_3" data-name="Безымянный градиент 3" x1="58.7" y1="51.74" x2="111.24" y2="51.74" gradientUnits="userSpaceOnUse">
      <stop offset="0" stop-color="#66b430"/>
      <stop offset=".41" stop-color="#63b330"/>
      <stop offset=".62" stop-color="#5cb131"/>
      <stop offset=".78" stop-color="#4eae32"/>
      <stop offset=".92" stop-color="#3caa35"/>
      <stop offset="1" stop-color="#2ea737"/>
    </linearGradient>
  </defs>
  <g id="_Слой_1-2" data-name="Слой 1">
    <g>
      <g>
        <path class="cls-1" d="M144.37,107.54c-7.67-1.13-15.45-.83-22.99,.96-7.48,1.78-14,4.32-20.81,7.75-2.19,1.1-4.28,2.41-6.6,3.23-2.94,1.03-4.13,.21-4.38-2.77-.02-.2-.69-9.57-1.21-14.03-.25-2.17,.18-4,1.87-5.53,2.26-2.06,4.32-4.34,6.62-6.37,1.61-1.42,1.79-1.43,2.78-.84,0,0-2-2.28-2.6-3.05-.87-1.12-2.31-3.57-2.4-3.62,.24,.63,.53,1.26,.88,1.87,.36,.62,.41,1.15-.26,1.57-2.29,1.45-4.1,2.94-6.53,4.16-.91,.46-1.2,.09-1.19-.81,.07-4.95-.32-14.99-.32-15.06h-3.97c-.02,.15-.8,10.81-.88,14.69-.02,1.05-.9,1.38-1.91,.88-1.47-.72-2.9-1.51-4.32-2.32-2.07-1.18-2.14-1.21-1.15-3.22-1.26,1.61-4.43,5.34-4.43,5.34,.65-.34,1.21-.24,1.86,.28,2.93,2.32,5.72,4.79,8.28,7.51,.64,.67,.88,1.42,.79,2.37-.54,5.49-1.05,10.98-1.7,16.45-.23,1.95-.4,2.1-2.31,1.38-3.45-1.3-6.96-2.37-10.54-3.24-4.53-1.11-9.14-1.61-13.79-1.92-3.72-.25-7.44-.25-11.17,0-3.36,.23-6.72,.53-10.04,1.07-.47,.08-3.58,.48-4.01,.53,3.81,6.92,8.92,13.08,15.35,18.47,14.99,12.56,36.94,16.76,50.51,14.65,17.48-2.72,31.7-11.02,42.69-24.89,3.78-4.77,6.83-9.7,8.98-15.43-.3-.15-.72,0-1.11-.07Z"/>
        <g class="cls-12">
          <path class="cls-10" d="M47.68,134.69c-1.06-.87-4.94-3.89-5.39-4.32-.95-.9-1.92-1.77-3.07-2.83,4.01-1.09,7.77-2.05,11.6-2.72,12.16-2.14,24.42-2.88,36.75-2.46,5.72,.2,11.23,.99,16.92,1.53,8.24,.79,16.64,1.35,24.9,1.74,.64,.03,1.28,.1,2.08,.16-.6,.69-1.09,1.25-1.58,1.81-.4,.45-.85,.62-1.49,.52-13.09-2.03-25.66-.17-37.77,5.12-5.79,2.52-11.12,5.99-17,8.29-8.05,3.14-5.77,3.01-13.94-.13-.46-.18-4.36-1.93-5.41-2.57-1.17-.71-5.79-3.5-6.59-4.14Z"/>
          <path class="cls-11" d="M96,121.23c7.88-3.95,15.31-7.89,23.53-10.05,6.73-1.76,13.54-2.29,20.46-1.64,1.79,.17,1.77,.19,.97,1.83-1.95,3.99-4.4,7.67-7.08,11.21-.64,.84-1.3,1.12-2.29,1.11-4.85-.03-9.69-.24-14.53-.52-6.57-.37-13.12-.96-19.65-1.75-.34-.04-.68-.1-1.41-.2Z"/>
          <path class="cls-6" d="M70.29,145.57c6.06-2.06,11.42-5.43,17.05-8.2,11.55-5.69,23.68-8.2,36.53-6.97,.7,.07,1.4,.21,2.1,.31-.04,.1-.06,.2-.11,.27-1.76,2.23-4.05,2.51-6.77,2.39-10.42-.45-20.12,2.43-29.4,6.97-3.79,1.85-7.56,3.73-11.43,5.42-2.81,1.22-5.35,.4-7.98-.18Z"/>
          <path class="cls-9" d="M73.13,120.39c-2.27,.13-4.49,.38-6.72,.69-1.76,.25-12.44,1.48-14.78,1.88-4.16,.71-8.3,1.54-12.33,2.82-.93,.3-1.47,.13-2.1-.57-2.05-2.28-3.85-4.75-5.68-7.53,14.18-2.17,28.02-1.93,41.6,2.71Z"/>
          <path class="cls-4" d="M119.77,135.77c-1.67,1.05-3.33,2.1-5.01,3.13-.67,.41-1.42,.53-2.2,.55-7.68,.19-14.67,2.62-21.18,6.56-.72,.44-1.47,.78-2.28,.8-2.53,.06-5.06,.02-7.65,.02,1.33-.64,2.69-1.24,4-1.93,6.26-3.28,12.64-6.25,19.55-7.93,4.83-1.17,9.7-1.81,14.77-1.2Z"/>
          <path class="cls-1" d="M140.63,110.79c-6.61,.31-13.27,.85-19.68,2.56-3.07,.82-6.07,1.92-8.91,3.35-3.11,1.57-6.04,3.49-9.24,4.88-1.08,.47-.15,2.06,.93,1.59,3-1.3,5.75-3.06,8.64-4.57s5.93-2.64,9.08-3.48c6.26-1.67,12.75-2.19,19.19-2.5,1.18-.06,1.19-1.9,0-1.84h0Z"/>
          <path class="cls-1" d="M115.37,125.01c7.89-3.85,16.21-7.29,24.9-8.76,1.17-.2,.67-1.97-.49-1.77-8.85,1.5-17.32,5.03-25.34,8.95-1.06,.52-.13,2.11,.93,1.59h0Z"/>
          <path class="cls-1" d="M47.28,135.44c5.02-2.46,10.53-4.02,15.88-5.56,6.32-1.82,12.7-3.42,19.12-4.87,2.77-.63,5.54-1.22,8.33-1.74,1.16-.22,.67-1.99-.49-1.77-12.07,2.25-24.19,5.27-35.82,9.21-2.7,.91-5.39,1.9-7.96,3.15-1.06,.52-.13,2.11,.93,1.59h0Z"/>
          <path class="cls-1" d="M59.02,142.89c4.78-1.86,9.25-4.53,13.9-6.7,7.58-3.54,15.48-6.38,23.63-8.29,6.04-1.42,12.17-2.32,18.35-2.77,1.17-.09,1.18-1.93,0-1.84-10.26,.74-20.4,2.74-30.13,6.1-6.71,2.32-13.14,5.29-19.48,8.49-2.23,1.13-4.44,2.33-6.77,3.24-1.09,.42-.62,2.2,.49,1.77h0Z"/>
          <path class="cls-1" d="M35.01,123.78c10.4-5.19,22.27-4.71,33.58-4.78,1.18,0,1.19-1.85,0-1.84-11.67,.08-23.79-.32-34.51,5.03-1.06,.53-.13,2.12,.93,1.59h0Z"/>
        </g>
      </g>
      <path class="cls-5" d="M29.92,116.22s11.28,20.49,35.38,28.93c25.81,9.03,48.32-3.22,53.41-6.3,11.95-7.26,19.21-16.84,25.92-31.04,.29-.61-7.31-1.69-17.95-.26-9.93,1.33-18.29,5.96-27.82,10.83-6.53,3.34-20.99,1.04-24.03,.15-1.68-.49-11.39-4.86-29.52-4.01-5.85,.28-7.64,.45-9.53,.7-2.74,.38-2.74,.39-5.86,1Z"/>
      <path class="cls-8" d="M93.27,120.75c7.88-3.95,18.04-8.14,26.25-10.29,6.73-1.76,17.31-3.2,24.22-2.55,1.79,.17,.75,1.7-.05,3.33-1.95,3.99-4.4,7.67-7.08,11.21-.64,.84-1.89,2.63-2.89,2.63-4.85-.03-12-.91-16.84-1.19-6.57-.37-12.24-.84-18.77-1.63-.34-.04-4.13-1.41-4.86-1.52Z"/>
      <g>
        <circle class="cls-3" cx="56.84" cy="72.53" r="23.29"/>
        <path class="cls-1" d="M56.84,96.88c-3.29,0-6.48-.64-9.48-1.91-2.9-1.23-5.5-2.98-7.74-5.22-2.24-2.24-3.99-4.84-5.22-7.74-1.27-3-1.91-6.19-1.91-9.48s.64-6.48,1.91-9.48c1.23-2.9,2.98-5.5,5.22-7.74,2.24-2.24,4.84-3.99,7.74-5.22,3-1.27,6.19-1.91,9.48-1.91s6.48,.64,9.48,1.91c2.9,1.23,5.5,2.98,7.74,5.22,2.24,2.24,3.99,4.84,5.22,7.74,1.27,3,1.91,6.19,1.91,9.48s-.64,6.48-1.91,9.48c-1.23,2.9-2.98,5.5-5.22,7.74-2.24,2.24-4.84,3.99-7.74,5.22-3,1.27-6.19,1.91-9.48,1.91Zm0-46.59c-5.94,0-11.52,2.31-15.72,6.51-4.2,4.2-6.51,9.78-6.51,15.72s2.31,11.52,6.51,15.72c4.2,4.2,9.78,6.51,15.72,6.51s11.52-2.31,15.72-6.51c4.2-4.2,6.51-9.78,6.51-15.72s-2.31-11.52-6.51-15.72c-4.2-4.2-9.78-6.51-15.72-6.51Z"/>
      </g>
      <g>
        <circle class="cls-7" cx="114.46" cy="72.84" r="23.29"/>
        <path class="cls-1" d="M114.46,97.19c-3.29,0-6.48-.64-9.48-1.91-2.9-1.23-5.5-2.98-7.74-5.22-2.24-2.24-3.99-4.84-5.22-7.74-1.27-3-1.91-6.19-1.91-9.48s.64-6.48,1.91-9.48c1.23-2.9,2.98-5.5,5.22-7.74,2.24-2.24,4.84-3.99,7.74-5.22,3-1.27,6.19-1.91,9.48-1.91s6.48,.64,9.48,1.91c2.9,1.23,5.5,2.98,7.74,5.22,2.24,2.24,3.99,4.84,5.22,7.74,1.27,3,1.91,6.19,1.91,9.48s-.64,6.48-1.91,9.48c-1.23,2.9-2.98,5.5-5.22,7.74-2.24,2.24-4.84,3.99-7.74,5.22-3,1.27-6.19,1.91-9.48,1.91Zm0-46.59c-5.94,0-11.52,2.31-15.72,6.51-4.2,4.2-6.51,9.78-6.51,15.72s2.31,11.52,6.51,15.72c4.2,4.2,9.78,6.51,15.72,6.51s11.52-2.31,15.72-6.51c4.2-4.2,6.51-9.78,6.51-15.72s-2.31-11.52-6.51-15.72-9.78-6.51-15.72-6.51Z"/>
      </g>
      <circle class="cls-1" cx="3.71" cy="98.06" r="3.71"/>
      <circle class="cls-1" cx="166.62" cy="98.06" r="3.71"/>
      <path class="cls-1" d="M34.72,124.97c-.4,0-.78-.23-.96-.61-.24-.53-.01-1.16,.52-1.4,.16-.08,4.1-1.88,11.21-3.46,4.16-.93,8.54-1.58,13.04-1.95,5.61-.46,11.41-.48,17.24-.04,.58,.04,1.02,.55,.98,1.13-.04,.58-.55,1.02-1.13,.98-12.9-.96-23.21,.52-29.58,1.93-6.91,1.53-10.82,3.31-10.86,3.33-.14,.07-.29,.1-.44,.1Z"/>
      <path class="cls-1" d="M48.09,137.6c-.4,0-.78-.23-.96-.61-.25-.53-.02-1.16,.51-1.4,.54-.25,13.32-6.2,22.41-8.28,15-3.44,38.24-4.85,42.19-4.99,.58-.02,1.07,.44,1.09,1.02,.02,.58-.44,1.07-1.02,1.09-3.92,.14-26.96,1.54-41.79,4.94-8.87,2.03-21.85,8.07-21.99,8.14-.14,.07-.3,.1-.45,.1Z"/>
      <path class="cls-1" d="M134.52,126.14s-1.15-.15-9.46-.5c-8.77-.37-33.79-3.86-34.85-4.01-.58-.08-.98-.62-.9-1.19,.08-.58,.62-.98,1.19-.9,.26,.04,25.98,3.62,34.65,3.99,6.56,.28,9.33,.45,9.72,.53l-.39,2.08s0,0,.03,0Z"/>
      <path class="cls-1" d="M71.3,147.7c-.34,0-.68-.17-.88-.47-.32-.49-.19-1.14,.3-1.46,6.4-4.24,13.56-7.96,21.28-11.06,6.17-2.48,12.71-4.58,19.44-6.23,11.47-2.81,19.64-3.37,19.72-3.37,.58-.04,1.09,.4,1.12,.99,.04,.58-.4,1.09-.99,1.12h0c-.08,0-8.11,.55-19.41,3.33-6.63,1.63-13.07,3.69-19.14,6.13-7.58,3.05-14.6,6.7-20.88,10.85-.18,.12-.38,.18-.58,.18Z"/>
      <path class="cls-1" d="M91.35,121.81c-.72,0-1.48-.02-2.26-.04-.28,0-.56-.01-.84-.02,0,0-.01,0-.02,0l-6.71-.26s-.09,0-.14-.01l-3.19-.56c-.11-.02-.22-.06-.32-.11-.03-.01-2.61-1.41-6.65-2.89-3.71-1.36-9.43-3.06-15.65-3.47-7.98-.53-14.56,.12-18.67,.76-4.46,.69-7.06,1.52-7.09,1.53-.56,.18-1.15-.13-1.33-.68-.18-.56,.13-1.15,.68-1.33,.11-.04,2.75-.88,7.35-1.6,4.23-.66,10.99-1.33,19.19-.79,3.58,.24,9.31,1.06,16.28,3.61,3.65,1.34,6.1,2.59,6.73,2.92l2.95,.52,6.63,.26c.28,0,.56,.01,.84,.02,2.58,.07,5.02,.13,6.1-.56,5.59-3.55,11.43-6.42,17.38-8.54,4.92-1.76,9.94-3.01,14.92-3.72,10.06-1.45,16.6-.23,17.31-.08,.57,.12,.94,.67,.83,1.25-.12,.57-.67,.94-1.25,.83-.68-.14-6.88-1.29-16.59,.1-4.84,.7-9.72,1.91-14.51,3.62-5.8,2.07-11.5,4.87-16.95,8.33-1.21,.77-2.96,.93-5.03,.93Z"/>
      <path class="cls-1" d="M85.14,149.41c-8.87,0-17.48-1.74-25.58-5.16-7.83-3.31-14.85-8.05-20.89-14.08-6.03-6.03-10.77-13.06-14.08-20.89-3.43-8.1-5.16-16.71-5.16-25.58s1.74-17.48,5.16-25.58c3.31-7.83,8.05-14.85,14.08-20.89,6.03-6.03,13.06-10.77,20.89-14.08,8.1-3.43,16.71-5.16,25.58-5.16s17.48,1.74,25.58,5.16c7.83,3.31,14.85,8.05,20.89,14.08,6.03,6.03,10.77,13.06,14.08,20.89,3.43,8.1,5.16,16.71,5.16,25.58s-1.74,17.48-5.16,25.58c-3.31,7.83-8.05,14.85-14.08,20.89-6.03,6.03-13.06,10.77-20.89,14.08-8.1,3.43-16.71,5.16-25.58,5.16Zm0-129.13c-8.56,0-16.87,1.68-24.68,4.98-7.55,3.19-14.33,7.77-20.16,13.59-5.82,5.82-10.4,12.61-13.59,20.16-3.31,7.82-4.98,16.12-4.98,24.68s1.68,16.87,4.98,24.68c3.19,7.55,7.77,14.33,13.59,20.16,5.82,5.82,12.61,10.4,20.16,13.59,7.82,3.31,16.12,4.98,24.68,4.98s16.87-1.68,24.68-4.98c7.55-3.19,14.33-7.77,20.16-13.59,5.82-5.82,10.4-12.61,13.59-20.16,3.31-7.82,4.98-16.12,4.98-24.68s-1.68-16.87-4.98-24.68c-3.19-7.55-7.77-14.33-13.59-20.16-5.82-5.82-12.61-10.4-20.16-13.59-7.82-3.31-16.12-4.98-24.68-4.98Z"/>
      <circle class="cls-2" cx="84.97" cy="51.74" r="26.25"/>
      <path class="cls-1" d="M105.93,123.45c-.27,0-.54-.1-.75-.31-.41-.41-.41-1.08,0-1.49,.14-.13,3.44-3.34,13.85-7.19,6.33-2.35,12.54-3.35,16.64-3.78,4.45-.47,7.37-.38,7.49-.38,.58,.02,1.04,.51,1.02,1.09-.02,.57-.49,1.02-1.06,1.02-.01,0-.02,0-.03,0h0s-2.93-.08-7.24,.37c-3.97,.42-9.98,1.39-16.09,3.66-9.98,3.7-13.06,6.68-13.09,6.71-.21,.2-.47,.31-.74,.31Z"/>
      <path class="cls-1" d="M119.36,125.12c-.39,0-.77-.22-.95-.6-.25-.53-.03-1.16,.49-1.41,4-1.93,6.59-3.16,9.52-4.09,2.99-.95,6.26-1.56,11.26-2.09,.58-.06,1.1,.36,1.16,.94,.06,.58-.36,1.1-.94,1.16-9.89,1.05-12.66,2.39-20.09,5.98-.15,.07-.31,.11-.46,.11Z"/>
      <path class="cls-1" d="M167.75,86.95s-.02,0-.03,0c-.63-.02-1.14-.54-1.12-1.18,.02-.66,.02-1.33,.02-2,0-11-2.15-21.67-6.4-31.71-2.04-4.83-4.57-9.48-7.51-13.84-2.91-4.31-6.26-8.37-9.95-12.06-3.69-3.69-7.74-7.03-12.06-9.95-4.36-2.94-9.01-5.47-13.84-7.51-10.04-4.25-20.71-6.4-31.71-6.4s-21.67,2.15-31.71,6.4c-4.83,2.04-9.48,4.57-13.84,7.51-4.31,2.91-8.37,6.26-12.06,9.95s-7.03,7.74-9.95,12.06c-2.94,4.36-5.47,9.01-7.51,13.84-4.25,10.04-6.4,20.71-6.4,31.71,0,.26,0,.47,0,.65,0,.43,0,.72,.01,1.31,.02,.63-.48,1.17-1.11,1.18-.64,.02-1.17-.48-1.18-1.11-.02-.63-.02-.95-.01-1.4,0-.18,0-.38,0-.64,0-11.31,2.22-22.28,6.58-32.61,2.1-4.96,4.7-9.75,7.72-14.23,3-4.44,6.44-8.61,10.23-12.4s7.96-7.23,12.4-10.23c4.48-3.03,9.27-5.62,14.23-7.72C62.87,2.22,73.84,0,85.15,0s22.28,2.22,32.61,6.58c4.96,2.1,9.75,4.7,14.23,7.72,4.44,3,8.61,6.44,12.4,10.23s7.23,7.96,10.23,12.4c3.03,4.48,5.62,9.27,7.72,14.23,4.37,10.33,6.58,21.3,6.58,32.61,0,.68,0,1.37-.02,2.05-.02,.63-.53,1.12-1.15,1.12Z"/>
      <path class="cls-1" d="M84.89,78.49c-3.67,0-7.24-.72-10.59-2.14-3.24-1.37-6.15-3.33-8.65-5.83-2.5-2.5-4.46-5.41-5.83-8.65-1.42-3.36-2.14-6.92-2.14-10.59s.72-7.24,2.14-10.59c1.37-3.24,3.33-6.15,5.83-8.65,2.5-2.5,5.41-4.46,8.65-5.83,3.36-1.42,6.92-2.14,10.59-2.14s7.24,.72,10.59,2.14c3.24,1.37,6.15,3.33,8.65,5.83,2.5,2.5,4.46,5.41,5.83,8.65,1.42,3.36,2.14,6.92,2.14,10.59s-.72,7.24-2.14,10.59c-1.37,3.24-3.33,6.15-5.83,8.65-2.5,2.5-5.41,4.46-8.65,5.83-3.36,1.42-6.92,2.14-10.59,2.14Zm0-52.32c-6.71,0-13.01,2.61-17.75,7.35-4.74,4.74-7.35,11.04-7.35,17.75s2.61,13.01,7.35,17.75,11.04,7.35,17.75,7.35,13.01-2.61,17.75-7.35c4.74-4.74,7.35-11.05,7.35-17.75s-2.61-13.01-7.35-17.75c-4.74-4.74-11.04-7.35-17.75-7.35Z"/>
      <g>
        <path class="cls-1" d="M13.52,112.6c.13,.41,.24,.79,.36,1.22,.07,.22,.15,.5,.24,.74,.02,.05,.06,.1,.13,.11,.03,0,.05,0,.09,0,.61-.19,1.25-.38,1.86-.58,.06-.02,.08-.05,.11-.09,.03-.04,.03-.09,.01-.13-.08-.26-2.39-7.57-2.61-8.31-.04-.13-.1-.15-.22-.12-.6,.17-1.22,.4-1.81,.58-.12,.03-.14,.14-.12,.2,.15,.57,.4,1.2,.57,1.71,.18,.54,.3,.93,.45,1.45-3.25,.86-6.46,1.87-9.68,2.83-.12,.04-.14,.1-.11,.22,.15,.59,.34,1.19,.52,1.78,.02,.06,.04,.08,.09,.11,.05,.03,.07,.03,.13,.02,3.22-.94,6.43-1.96,9.66-2.88,.13,.38,.22,.76,.34,1.14Z"/>
        <path class="cls-1" d="M20.68,124.23c.11-.05,.15-.13,.1-.24-.29-.57-.49-1.29-.87-1.78-1.93,.7-3.83,1.78-5.75,2.6-.53-1.44-2.1-3.19-.86-4.62,1.21-1.06,3-1.49,4.43-2.29,.36-.16-.61-1.56-.69-1.93-.04-.1-.16-.14-.25-.09-1.16,.58-2.59,1.11-3.66,1.75-3.57,2.09-2.76,5.07-1.09,8.14-.67-.03-1.21-.06-1.82-.43-.77-.61-1.39-1.72-1.18-2.78-.01-.33-.66-.34-.84-.47-.29-.1-.14-.05-.4-.14-.19-.01-.78-.45-.92-.14-.89,2.84,1.45,5.95,4.34,6.24,.84,0,1.45-.17,2.3-.5,2.34-1.06,4.79-2.24,7.16-3.33Z"/>
        <path class="cls-1" d="M22.18,137.83c.72-.17,1.44-.34,2.05-.77s1.11-.97,1.45-1.64c.34-.67,.47-1.34,.47-2.08,0-.74-.32-1.38-.6-2.05,0,0,0,0,0,0-1-1.47-1.99-2.94-2.99-4.4-.03-.05-.06-.06-.12-.08-.06-.01-.08,0-.13,.04-3.37,2.26-6.74,4.57-10.1,6.86-.11,.07-.1,.14-.04,.25,.33,.52,.69,1.03,1.04,1.54,.03,.05,.06,.07,.12,.07,.05,0,.08,0,.13-.03,1.03-.7,2.06-1.4,3.09-2.1,.59,.86,1.17,1.73,1.76,2.59,0,0,0,0,0,0,.03,.03,.06,.09,.09,.12,.51,.52,1.01,1.01,1.68,1.32,.54,.25,1.11,.3,1.69,.36,.13,.01,.27,.01,.41-.02Zm-.38-7.95c.54,.83,1.22,1.74,1.71,2.56,.33,.55,.39,.93,.3,1.5-.09,.57-.38,.95-.84,1.26-.46,.31-.92,.45-1.49,.32s-.89-.33-1.28-.83c-.58-.75-1.17-1.73-1.75-2.53,1.11-.77,2.22-1.53,3.35-2.28Z"/>
        <path class="cls-1" d="M29.07,139.63c.33,.3,.71,.66,1.01,.95,.45,.43,.87,.83,1.29,1.23s.76,.74,1.18,1.13c.19,.18,.4,.37,.63,.53,.07,.05,.15,.06,.24-.03,.42-.47,.86-.96,1.27-1.45,.04-.05,.05-.08,.04-.13s-.02-.08-.05-.12c-.27-.25-.41-.36-.71-.65-.62-.6-1.5-1.5-2.08-2.1-.38-.4-.52-.57-.82-.91-.25-.27-.44-.46-.68-.72,0,0,0,0,0,0-.14-.15-.27-.31-.41-.46,0,0,0,0,0,0-.28-.31-.55-.65-.85-.94-.09-.09-.15-.11-.25-.03-2.89,2.57-5.95,5.4-9.17,8.49-.09,.09-.08,.16,0,.25,.4,.46,.85,.9,1.27,1.35,.04,.04,.08,.04,.13,.06,0,0,0,0,0,0,.05-.02,.08-.02,.12-.06,2.43-2.3,4.9-4.57,7.37-6.83,.15,.14,.33,.3,.48,.43Z"/>
        <path class="cls-1" d="M39.63,153.13c-1.68-1.37-3.39-2.7-5.07-4.07,.64-.82,1.27-1.63,1.94-2.43,.27,.2,.58,.45,.85,.65,.36,.28,.8,.62,1.13,.87,.49,.37,.94,.73,1.4,1.05,.46,.33,.79,.56,1.25,.86,.19,.13,.42,.28,.66,.39,.07,.03,.16,.03,.23-.07,.34-.51,.73-1.04,1.07-1.56,.03-.05,.03-.08,.03-.13s-.04-.09-.08-.11c-.22-.15-.48-.31-.68-.46-.42-.29-.77-.53-1.17-.83-.41-.3-.78-.6-1.21-.93-.3-.23-.68-.53-1-.79-.32-.26-.67-.55-.99-.83-.01-.01-.03-.03-.04-.05-.03-.03-.11-.09-.13-.11-.02-.02-.02-.02-.02-.02-.43-.37-.86-.74-1.29-1.11-.05-.04-.07-.05-.13-.04-.06,0-.08,0-.12,.06-2.74,3.2-5.31,6.55-7.91,9.87-.08,.1-.07,.16,.03,.24,2.21,1.79,4.45,3.54,6.67,5.31,.04,.03,.07,.02,.11,.04,0,0,.01,0,.02,0,.05-.02,.08-.02,.12-.07,.4-.51,.82-1.01,1.2-1.53,.07-.1,.07-.17-.03-.25-1.67-1.35-3.38-2.69-5.06-4.03,.57-.73,1.15-1.45,1.72-2.17,1.69,1.35,3.4,2.7,5.09,4.04,.05,.04,.08,.04,.13,.04,.06,0,.08-.02,.12-.07,.4-.5,.82-1.01,1.19-1.53,.07-.1,.07-.16-.02-.24Z"/>
        <path class="cls-1" d="M54.24,155.73c-.02-.06-.04-.08-.09-.11-.55-.32-1.11-.69-1.69-.95-.12-.05-.18-.04-.25,.08-.76,1.36-1.49,2.74-2.24,4.1-1.66-.76-3.29-1.57-4.87-2.48,.8-1.38,1.62-2.76,2.37-4.16,.06-.11,.03-.17-.07-.24-.52-.32-1.07-.62-1.6-.92-.05-.03-.09-.03-.14-.02-.05,.02-.08,.02-.11,.08-2.01,3.55-4.23,6.97-6.35,10.45-.07,.11-.03,.17,.07,.24,.5,.35,1.03,.68,1.55,1,.05,.03,.08,.04,.14,.02,.05-.02,.08-.03,.12-.08,.93-1.46,1.88-2.92,2.79-4.39,1.62,1,3.22,2.01,4.99,2.7-.78,1.61-1.53,3.23-2.42,4.78-.06,.11-.04,.17,.07,.24,.55,.34,1.15,.64,1.72,.94,.04,.02,.06,.02,.09,.02,.03,0,.04,0,.06,0,.05-.03,.09-.05,.11-.11,1.94-3.67,3.91-7.34,5.76-11.05,.03-.06,.02-.08,0-.13Z"/>
        <path class="cls-1" d="M75.4,166.98c.29-.53,.66-1.02,.72-1.64,.08-.83-.09-1.54-.43-2.3-.71-1.61-5.48-2.11-7.31-2.44-.12-.02-.18,.01-.2,.14-.74,4.11-1.42,8.24-2.17,12.35-.02,.13,.17,.21,.25,.23,1.25,.27,3.66,.71,4.58,.9s.84,.14,1.16,.16c.8,.04,1.12-.06,1.68-.28,.77-.3,1.21-.71,1.72-1.31,.51-.6,.74-1.29,.9-2.05,.15-.7,.07-1.4-.09-2.09-.14-.63-.51-1.12-.81-1.67Zm-1.39-2.06c-.01,.22-.18,.38-.29,.53-.12,.14-.38,.14-.48,.15s-.05,0-.08,0c-.03,0,0,0-.02,0-.01,0,0,0,0,0-1.17-.22-2.33-.45-3.49-.68,.1-.54,.19-1.09,.29-1.63,1.14,.23,2.33,.44,3.45,.68,.26,.06,.35,.16,.5,.34,.15,.19,.14,.39,.13,.61Zm-1.56,2.97c.81,.2,.95,.41,1.38,.91s.38,.93,.31,1.52c-.07,.59-.31,1-.79,1.33-.48,.32-.83,.43-1.46,.34-1.05-.15-2.27-.44-3.35-.63,.23-1.37,.44-2.74,.75-4.1,.92,.19,2.36,.43,3.16,.63Z"/>
        <path class="cls-1" d="M144.25,146.77c-.07,0-.11,.03-.15,.07-.05,.04-.04,.1-.04,.16,.04,.7,.14,1.4-.08,2.09s-.55,1.26-1.1,1.74c-.54,.48-1.13,.78-1.84,.9-.71,.12-1.39,.06-2.08-.18s-1.3-.66-1.78-1.2c-.49-.54-.84-1.2-1-1.91-.17-.71-.14-1.39,.05-2.09s.59-1.22,1.08-1.75c.32-.33,.72-.52,1.14-.71,.42-.18,.86-.2,1.31-.29,.1-.02,.17-.06,.18-.18,.06-.67,.12-1.38,.18-2.05,0-.07-.01-.1-.04-.14-.03-.04-.08-.07-.13-.06-.77,.08-1.53,.11-2.26,.41-.73,.3-1.43,.64-1.99,1.22-.81,.83-1.46,1.7-1.78,2.82-.32,1.12-.36,2.2-.11,3.34,.25,1.13,.79,2.16,1.56,3.02,.77,.86,1.73,1.51,2.83,1.88,1.1,.37,2.18,.42,3.33,.25,1.15-.17,3.78-.89,4.72-4.1,.31-1.04,.32-2.05,.28-3.12,0-.09-.07-.14-.18-.14-.68,0-1.4,0-2.08,.02Z"/>
        <path class="cls-1" d="M88.33,171.01c-.06-.05-.1-.05-.16-.05-.07,0-.1,.05-.13,.09-.43,.55-.83,1.14-1.44,1.51s-1.25,.58-1.98,.58c-.73,0-1.36-.17-1.98-.55-.62-.38-1.09-.88-1.44-1.51s-.53-1.36-.54-2.08c0-.73,.17-1.45,.52-2.09,.35-.64,.82-1.13,1.42-1.53s1.25-.53,1.97-.59c.46-.04,.89,.09,1.32,.23,.43,.14,.78,.43,1.17,.65,.09,.05,.16,.07,.25-.02,.49-.46,1-.95,1.5-1.41,.05-.05,.05-.08,.06-.13,0-.05-.01-.1-.05-.13-.63-.44-1.22-.93-1.96-1.19-.74-.26-1.5-.47-2.3-.41-1.16,.09-2.22,.3-3.2,.93-.98,.63-1.74,1.41-2.3,2.42-.56,1.01-.84,2.14-.84,3.3,0,1.16,.3,2.28,.87,3.28,.57,1.01,1.35,1.76,2.32,2.39,.98,.63,3.42,1.84,6.25,.07,.92-.58,1.6-1.33,2.28-2.15,.06-.07,.04-.15-.04-.23-.51-.45-1.05-.92-1.57-1.37Z"/>
        <path class="cls-1" d="M97.88,167.97c1.4-1.32,2.33-2.83,3.03-4.64,.13-.33,.3-.83,.4-1.21,.03-.1,0-.18-.1-.22-.57-.23-1.17-.45-1.75-.67-.06-.02-.09-.01-.14,0-.05,.02-.07,.06-.1,.11-.15,.37-.26,.83-.41,1.19-.94,2.37-2.03,3.37-4.01,4.87-.05,.03-.11,.06-.15,.1-.27-1.74-.57-3.49-.88-5.22-.02-.14-.08-.16-.2-.15-.61,.07-1.23,.19-1.83,.29-.06,0-.09,.03-.12,.08-.03,.05-.04,.07-.03,.13,.68,4.16,1.31,8.36,1.96,12.52,.02,.12,.08,.12,.17,.17,0,0,.02,0,.03,0,.61-.09,1.23-.19,1.84-.29,.06,0,.08-.03,.12-.07,.03-.05,.04-.07,.03-.13-.22-1.58-.49-3.15-.69-4.73,.23-.16,.67-.47,.85-.59,.18-.12,.09-.07,.22-.15,1.48,1.67,3.04,3.26,4.62,4.85,.05,.05,.09,.06,.16,.05,.76-.12,1.53-.24,2.28-.37,.08-.01,.12-.04,.14-.12,.02-.07,.02-.12-.04-.18-1.79-1.87-3.65-3.67-5.38-5.59Z"/>
        <path class="cls-1" d="M113.05,157.57c-.04-.13-.11-.14-.23-.11-.59,.18-1.19,.38-1.77,.59-.1,.04-.12,.08-.12,.18-.03,.58,.06,1.05-.04,1.67s-.24,1.22-.51,1.86c-.21,.49-.55,1.12-.81,1.64-.05,.1-.13,.26-.19,.38-.21,.44-.43,.91-.63,1.37-.3,.7-.56,1.4-.83,2.11-.78-2.4-1.51-4.81-2.27-7.21-.02-.06-.04-.07-.09-.1s-.08-.03-.14-.01c-.58,.2-1.19,.39-1.76,.61-.12,.05-.16,.1-.12,.22,1.24,4.01,2.52,8,3.78,12.01,.03,.1,.1,.06,.17,.12,.02,.01,.03,0,.06-.01,.58-.2,1.18-.4,1.76-.6,.1-.03,.13-.09,.13-.17,.02-.95,.07-1.89,.17-2.84,.28-.91,.55-1.76,.91-2.65,.21-.52,.5-1.11,.74-1.64,.01-.02,.03-.07,.04-.09,.33-.69,.7-1.36,1.03-2.04,.78,2.48,1.57,4.96,2.36,7.43,.02,.06,.04,.08,.09,.11,.05,.03,.08,.03,.14,.01,.58-.2,1.19-.39,1.76-.61,.12-.05,.16-.09,.12-.22-1.24-4.01-2.5-8.01-3.78-12Z"/>
        <path class="cls-1" d="M128.26,161.88c-.03-.06-.05-.08-.11-.09s-.08-.02-.14,.01c-1.92,1.01-3.85,2.03-5.77,3.04-.43-.87-.86-1.74-1.3-2.61,1.91-1.05,3.85-2.06,5.75-3.12,.11-.06,.12-.12,.07-.24-.27-.6-.59-1.19-.89-1.78-.03-.06-.05-.08-.11-.09-.05-.02-.08-.02-.14,0-1.93,1.02-3.85,2.06-5.78,3.08-.46-.9-.92-1.79-1.36-2.7,.3-.17,.64-.35,.94-.51,.42-.22,.9-.45,1.29-.65,.58-.3,1.12-.59,1.65-.89,.53-.3,.95-.53,1.47-.82,.22-.13,.47-.27,.69-.45,.06-.05,.1-.13,.04-.24-.31-.56-.63-1.15-.95-1.71-.03-.05-.06-.07-.11-.09-.04-.02-.1,0-.13,.02-.25,.14-.5,.31-.74,.44-.49,.27-.91,.52-1.4,.79-.49,.27-.96,.52-1.48,.79-.37,.19-.8,.39-1.2,.59s-.82,.42-1.21,.64c-.02,0-.04,.02-.06,.03-.04,.02-.12,.07-.15,.08s-.02,.01-.03,.02c-.5,.29-1.02,.57-1.51,.86-.11,.07-.14,.12-.08,.24,1.89,3.78,3.82,7.56,5.7,11.35,.03,.06,.06,.06,.11,.09,.02,.01,.03,0,.06,0,.03,0,.05,0,.08-.02,2.52-1.34,5.07-2.67,7.58-4.02,.11-.06,.12-.13,.07-.24-.27-.6-.58-1.2-.87-1.78Z"/>
        <path class="cls-1" d="M157.17,137.64c-4.18-1.29-8.38-2.55-12.57-3.82-.09-.03-.13,0-.19,.07-.46,.52-.87,1.1-1.34,1.61-.06,.07,.03,.29,.07,.35,1.01,1.77,2.43,4.31,3.3,5.86s.89,1.57,1.62,2.83c.02,.03-.07-.12-.05-.09s.02,.03,.02,.04c.55,.87,1.06,1.76,1.56,2.65,.04,.07,.08,.06,.14,.1,0,0,0,0,.01,0,.06-.03,.1-.02,.14-.08,.41-.52,.84-1.06,1.24-1.59,.06-.08,.06-.12,.01-.2-.48-.86-1.01-1.71-1.5-2.57,.09-.13,.25-.32,.34-.44,.29-.38,.64-.78,.9-1.12,.37-.48,.69-.96,.99-1.44,.26-.43,.42-.8,.64-1.24,1.09,.35,2.2,.68,3.31,1,.09,.03,.13,.01,.19-.06,.43-.51,.85-1.04,1.26-1.56,.05-.06,.05-.1,.03-.16-.02-.07-.04-.1-.11-.12Zm-6.9,.22c-.38,.69-.77,1.34-1.23,1.98-.18,.26-.43,.53-.63,.79-.75-1.34-1.49-2.68-2.25-4.02,1.38,.41,2.75,.82,4.12,1.25Z"/>
        <path class="cls-1" d="M161.05,124.84s-.05-.02-.08-.02c-.03,0,0,0-.04,0-.05,0-.01,0-.11,.02-.1,0-.13,.05-.33,.04-.15,0-.36,.05-.65-.03-.29-.07-.59-.05-1.02-.24-.43-.18-.76-.27-1.36-.6-1.76-.95-3.77-2.02-5.6-2.99-.05-.03-.11-.05-.15-.02-.05,.02-.08,.04-.11,.09-.62,1.15-1.24,2.31-1.86,3.47-.62,1.15-1.25,2.31-1.87,3.46-.03,.05-.02,.09-.02,.14,0,.05,.05,.09,.1,.12,1.82,.99,3.82,2.08,5.58,3.02,.6,.32,.86,.55,1.25,.81,.39,.26,.54,.52,.76,.73,.22,.2,.29,.41,.38,.53,.12,.16,.11,.22,.15,.3,.05,.09,.02,.06,.05,.1,.02,.04,0,.01,.02,.04,.02,.02,.03,.03,.06,.05,.86,.47,1.73,.94,2.6,1.41,.04,.02,.05,.03,.09,.02,.07-.02,.11-.02,.16-.1,.29-.52,.58-1.06,.86-1.59,.03-.05,.03-.08,.01-.14-.02-.05-.03-.08-.09-.11-.25-.14-.52-.28-.78-.42,.45-.84,.91-1.68,1.36-2.52h0s.02-.04,.04-.07c.01-.02,.02-.04,.04-.07h0c.45-.84,.9-1.68,1.35-2.52,.26,.14,.52,.28,.78,.41,.05,.03,.08,.03,.14,.01,.05-.02,.08-.03,.11-.09,.28-.53,.58-1.07,.85-1.6,.04-.08,.02-.11,0-.18-.01-.03-.03-.04-.06-.06-.86-.46-1.74-.93-2.6-1.39Zm-2.42,4.11c-.04,.08-.09,.16-.13,.24h0s-.02,.04-.04,.07c-.01,.02-.02,.04-.04,.07h0c-.04,.08-.09,.16-.13,.24-.38,.71-.67,1.25-1.01,1.94-.38-.37-.52-.62-.98-.96-.56-.42-1-.74-1.75-1.15-1.11-.62-2.56-1.39-3.75-2.03,.29-.58,.59-1.15,.9-1.73,.31-.57,.62-1.14,.94-1.7,1.19,.63,2.64,1.42,3.76,2.01,.76,.4,1.26,.59,1.93,.82,.54,.19,.83,.18,1.34,.29-.39,.66-.68,1.2-1.06,1.91Z"/>
        <path class="cls-1" d="M169.54,109.82c-.02-.05-.05-.06-.11-.08-3.96-1.28-7.79-2.41-11.76-3.66-.13-.04-.18,0-.22,.11-.22,.58-.41,1.18-.6,1.77-.02,.06-.02,.09,.01,.14,.03,.05,.04,.07,.1,.09,3.96,1.28,7.8,2.38,11.76,3.67,.02,0,.04,0,.06,0,.08-.03,.14-.03,.17-.13,.2-.58,.4-1.19,.6-1.78,.02-.06,.01-.09-.01-.14Z"/>
        <path class="cls-1" d="M166.14,112.44c-.52-.55-1.02-.8-1.75-1.03-.73-.23-1.48-.28-2.23-.15-.75,.14-1.37,.44-1.97,.89s-.92,1.09-1.29,1.71c0,0,0,0,0,.01-.33,.97-.66,1.95-.98,2.93-1.21-.39-2.15-.64-3.36-1.02-.06-.02-.37-.15-.43-.13-.05,.02-.07,.05-.09,.1-.19,.58-.41,1.18-.58,1.77-.04,.12-.02,.19,.11,.23,3.97,1.27,7.79,2.4,11.77,3.66,.02,0,.03,.02,.06,.01,.03,0,.05,0,.08-.03,.03-.03,.06-.04,.08-.1,.53-1.58,1.06-3.17,1.59-4.75,.02-.05,.03-.08,.03-.11,.09-.72,.22-1.42,.01-2.13-.21-.71-.53-1.32-1.05-1.87Zm-5.98,5.07c.32-.87,.6-1.9,.94-2.72,.24-.59,.51-.87,1.03-1.15,.52-.28,1.01-.28,1.55-.1,.54,.17,.94,.46,1.19,.98,.25,.52,.29,.91,.13,1.52-.22,.85-.62,1.85-.89,2.73-1.32-.4-2.63-.82-3.95-1.26Z"/>
        <path class="cls-1" d="M63.25,165.17c-2.02-.77-4.07-1.49-6.1-2.25,.35-.98,.69-1.95,1.07-2.92,.32,.11,.69,.24,1.01,.35,.43,.15,.95,.33,1.35,.46,.58,.2,1.13,.39,1.66,.55,.54,.16,.93,.28,1.46,.42,.22,.06,.49,.13,.75,.16,.08,0,.16-.02,.19-.14,.16-.59,.37-1.22,.53-1.82,.02-.06,0-.09-.02-.13s-.07-.07-.11-.08c-.25-.07-.56-.15-.79-.22-.49-.15-.89-.26-1.38-.42-.48-.16-.93-.32-1.44-.5-.36-.13-.81-.29-1.2-.43-.39-.14-.81-.31-1.2-.47-.02,0-.04-.02-.05-.03-.04-.02-.13-.05-.16-.06-.02,0-.03,0-.03,0-.53-.21-1.05-.43-1.57-.64-.06-.02-.09-.02-.14,0-.05,.02-.07,.03-.1,.09-1.59,3.91-2.97,7.89-4.38,11.87-.04,.12-.01,.17,.11,.22,2.66,1,5.34,1.95,8.01,2.93,.05,.02,.07,0,.12,0,0,0,.01,0,.02,0,.04-.04,.07-.05,.09-.11,.22-.6,.45-1.22,.65-1.83,.04-.12,.02-.18-.1-.23-2.02-.76-4.06-1.48-6.08-2.22,.31-.87,.63-1.74,.94-2.61,2.03,.75,4.08,1.49,6.11,2.22,.06,.02,.09,.02,.14,0,.05-.02,.07-.04,.09-.1,.22-.6,.46-1.22,.65-1.83,.04-.12,.02-.18-.1-.22Z"/>
      </g>
    </g>
  </g>
</svg>