<svg xmlns="http://www.w3.org/2000/svg" opacity="1" viewBox="0 0 16 9.23"><title>вк сер</title><g id="Слой_2" data-name="Слой 2"><g id="Слой_1-2" data-name="Слой 1"><path d="M5.19.53a3.5,3.5,0,0,1,1-.48,13.06,13.06,0,0,1,2.34,0c.68.06.87.34.87,1,0,.87,0,1.73,0,2.59a2.27,2.27,0,0,0,.26.66c.2-.13.48-.22.59-.41C10.83,3,11.4,2,11.9,1.07a1,1,0,0,1,1-.65c.74,0,1.49,0,2.23,0s1,.32.61,1c-.6,1-1.28,1.92-1.95,2.85s-.57,1,.12,1.69,1.26,1.39,1.87,2.1c.34.38.19.7-.21.9a1.88,1.88,0,0,1-.77.21c-.51,0-1,0-1.53,0a2.19,2.19,0,0,1-1.91-.83c-.32-.34-.62-.71-1-1s-.72-.32-.9.23a3.1,3.1,0,0,0-.13.75c-.05.64-.28.86-.92.88A6,6,0,0,1,3.49,7,25,25,0,0,1,.08,1.16C-.12.72.05.45.52.44c.76,0,1.52,0,2.29,0,.48,0,.64.35.83.71.5.93,1,1.85,1.56,2.75.12.21.41.32.62.47a3,3,0,0,0,.34-.76c0-.48,0-1,0-1.47,0-.65-.12-1.22-1-1.34C5.22.7,5.21.62,5.19.53Z" style="fill:gray;fill-rule:evenodd"/></g></g></svg>