<?xml version="1.0" encoding="UTF-8"?>
<svg id="_Слой_2" data-name="Слой 2" xmlns="http://www.w3.org/2000/svg" viewBox="0 0 180.08 144.96">
  <defs>
    <style>
      .cls-1 {
        fill: #ff4931;
      }
    </style>
  </defs>
  <g id="_Слой_1-2" data-name="Слой 1">
    <g>
      <g>
        <path class="cls-1" d="M35.85,82.37c-5.46,14.75-7.71,29.49,.63,43.36,8.99,14.94,29.66,13.87,45.05,13.89,17.74,.02,28.55-11.28,29.38-29.29,.95-20.58-12.92-32.72-31.91-36.44-10.36-2.03-40.66-4.72-44.47,9.8"/>
        <path class="cls-1" d="M34.41,81.97c-3.95,10.74-6.57,22.47-3.7,33.81,1.29,5.1,3.6,10.2,7.03,14.21,2.66,3.12,6.12,5.49,9.87,7.1,7.87,3.39,16.65,3.92,25.12,4.01s16.86,.44,24.47-3.56c6.91-3.63,11.6-10.17,13.72-17.59,2.36-8.22,2.22-17.59-1.09-25.53-3.13-7.48-9.02-13.33-16.15-17.08-6.43-3.39-13.5-5.04-20.67-5.88s-13.97-1.05-20.88-.14c-6.25,.82-13.43,2.65-17.25,8.11-.81,1.16-1.4,2.48-1.77,3.84-.51,1.86,2.38,2.66,2.89,.8,1.52-5.58,7.4-7.95,12.54-9.1,6.5-1.46,13.34-1.43,19.95-.94,13.34,.98,28.02,4.76,35.89,16.54,4.47,6.7,5.7,14.8,4.81,22.7-.82,7.27-3.81,14.37-9.55,19.09-2.73,2.24-6.01,3.78-9.42,4.68-3.87,1.03-7.77,1.05-11.74,1.07-7.95,.03-16.07,.1-23.84-1.82-3.7-.91-7.27-2.3-10.43-4.47-3.57-2.46-6.09-5.87-8-9.72-4.92-9.93-4.36-21.1-1.46-31.53,.73-2.64,1.61-5.23,2.55-7.8,.67-1.81-2.23-2.6-2.89-.8h0Z"/>
      </g>
      <path d="M5.94,13.65c5.45,3.44,10.45,7.44,15.17,11.82s8.68,8.92,13.44,12.89,9.77,6.23,15.46,8.05,11.82,3.2,17.92,3.13c7.15-.08,13.95-2.32,19.85-6.35,1.09-.74,.06-2.53-1.04-1.78-5.2,3.55-11.1,5.72-17.4,6.03s-12.14-.95-17.94-2.75-10.82-3.99-15.38-7.78-8.52-8.27-12.83-12.32c-5.02-4.71-10.37-9.03-16.19-12.71-1.13-.71-2.16,1.07-1.04,1.78h0Z"/>
      <path d="M88.46,43.03c2.02-7.02,6.47-12.91,12.32-17.22,3.03-2.23,6.34-4.08,9.49-6.16,2.87-1.9,5.67-3.91,8.26-6.18,3.12-2.73,5.84-5.85,8.21-9.25,.76-1.09-1.02-2.12-1.78-1.04-4.28,6.12-9.84,10.82-16.04,14.89-3.15,2.07-6.46,3.92-9.47,6.17-2.82,2.11-5.37,4.53-7.51,7.33-2.5,3.26-4.33,6.95-5.46,10.9-.37,1.28,1.62,1.82,1.99,.55h0Z"/>
      <path d="M126.18,.99c.28,4.56-.83,9.13-2.2,13.44-1.45,4.55-3.33,8.96-5.56,13.18-1.93,3.65-4.32,6.59-8.16,8.31-3.51,1.58-7.43,2.03-11.2,2.58-4.17,.6-8.37,1.3-12.11,3.36-1.16,.64-.12,2.42,1.04,1.78,6.99-3.85,15.49-2.63,22.76-5.71,3.88-1.65,6.79-4.47,8.82-8.14,2.32-4.19,4.27-8.61,5.83-13.13,1.72-4.98,3.16-10.37,2.84-15.68-.08-1.32-2.14-1.33-2.06,0h0Z"/>
      <path d="M100.7,33.95c4.58-4.31,9.42-8.32,14.77-11.64,1.12-.7,.09-2.48-1.04-1.78-5.5,3.41-10.48,7.54-15.19,11.96-.97,.91,.49,2.37,1.46,1.46h0Z"/>
      <path d="M72.28,51.96c12.31-.16,22.47,7.29,33.97,10.43,6.22,1.7,12.47,1.65,18.77,.36,6.8-1.39,13.39-3.89,20.32-4.67,3.41-.38,6.71-.25,10.01,.69,3.03,.87,5.94,1.77,9.11,2.02,1.32,.1,1.32-1.96,0-2.06-2.87-.22-5.52-1.05-8.26-1.86s-5.56-1.19-8.44-1.05c-6.96,.34-13.58,2.62-20.29,4.26s-13.01,2.22-19.58,.6c-5.68-1.4-10.97-3.96-16.34-6.22-6.16-2.59-12.51-4.66-19.27-4.57-1.33,.02-1.33,2.08,0,2.06h0Z"/>
      <path d="M119.49,65.12c5.09,.04,9.96,1.23,14.84,2.56,4.57,1.25,9.53,2.87,14.33,2.67,4.35-.18,8.44-2.54,11.87-5.07s6.39-5.61,8.74-9.15c2.73-4.12,4.54-8.81,5.23-13.7h-1.99c1.33,4.21,2.95,8.42,3.46,12.83,.32,2.72,.24,5.64-1.58,7.86-3.11,3.79-9.06,4.3-13.6,4.53-2.78,.14-5.56,.09-8.34,.08-1.33,0-1.33,2.06,0,2.06,9.06,0,25.86,.8,25.72-12.27-.06-5.41-2.07-10.56-3.68-15.65-.28-.88-1.83-1.08-1.99,0-1.17,8.24-5.58,15.69-12.06,20.88-3.22,2.58-7.37,5.29-11.61,5.52-4.6,.25-9.38-1.34-13.77-2.53-5.12-1.4-10.25-2.65-15.59-2.69-1.33,0-1.33,2.05,0,2.06h0Z"/>
      <path d="M139.29,64.63c4.89-.79,9.74-1.98,14.71-2.23,1.32-.07,1.33-2.13,0-2.06-5.15,.26-10.18,1.49-15.25,2.31-1.31,.21-.75,2.2,.55,1.99h0Z"/>
      <path d="M172.57,45.28c.09,.21,.2,.94,.21,1.38,.03,.78,0,1.57-.08,2.35-.17,1.83-.53,3.64-.97,5.42s-.97,3.58-1.66,5.3c-.44,1.11-.97,2.42-1.84,3.19-1,.88,.47,2.33,1.46,1.46,1.08-.95,1.69-2.45,2.22-3.75,.78-1.9,1.37-3.87,1.85-5.87s.86-4.06,1.03-6.13c.11-1.46,.15-3.02-.45-4.38-.53-1.21-2.3-.17-1.78,1.04h0Z"/>
      <path d="M111.94,63.65c6.13,4.69,12.67,9.26,17.86,15.02,4.61,5.13,7.53,11.33,9.42,17.91s3.06,13.37,6.29,19.42c1.63,3.05,3.8,5.82,6.44,8.06s5.68,4.03,8.65,5.85c3.42,2.1,6.5,4.38,9.3,7.25s5.28,5.66,8.63,7.62c.67,.39,1.56-.11,1.55-.89-.05-3.96-2.11-7.52-3.74-11.01-.88-1.87-1.71-3.8-2.1-5.84s-.39-4.01-.32-5.99c.24-6.83,2.22-13.88-.91-20.35-1.84-3.79-5.13-6.67-8.36-9.26s-6.84-4.92-10.54-6.94c-6.53-3.54-13.45-6.28-20.17-9.42-3.96-1.85-7.88-3.79-11.63-6.04-3.29-1.97-6.51-4.17-9.11-7.02-.9-.98-2.35,.48-1.46,1.46,4.71,5.15,11.28,8.57,17.47,11.62s13.02,5.8,19.43,8.92c3.73,1.81,7.39,3.8,10.82,6.13s7.2,5.18,9.87,8.55c2.27,2.86,3.33,6.28,3.41,9.9,.08,3.4-.48,6.77-.75,10.15-.33,4.27-.21,8.52,1.41,12.54s4.56,8.1,4.62,12.6l1.55-.89c-3.01-1.77-5.38-4.38-7.79-6.87s-4.97-4.69-7.89-6.59-6.09-3.61-8.93-5.72-5.28-4.76-7.09-7.84c-3.51-5.99-4.68-12.97-6.55-19.57s-4.59-12.64-8.91-17.87c-5.41-6.56-12.72-11.56-19.43-16.68-1.05-.81-2.08,.98-1.04,1.78h0Z"/>
      <path d="M144.85,85.41c.24,.18,.47,.36,.71,.54,.13,.09,.25,.19,.37,.28,.06,.05,.12,.1,.19,.14s.1,.08,.02,.01c.48,.38,.96,.76,1.42,1.16s.88,.79,1.3,1.22c.21,.21,.4,.43,.6,.66,.1,.12,.2,.24,.3,.36-.07-.08-.04-.05,.01,.01,.06,.08,.11,.15,.17,.23,.31,.44,.91,.69,1.41,.37,.43-.28,.71-.94,.37-1.41-1.57-2.18-3.7-3.76-5.82-5.36-.43-.33-1.17-.08-1.41,.37-.29,.54-.09,1.06,.37,1.41h0Z"/>
      <path d="M154.91,97.05c2.34,5.75,4.25,11.6,5.45,17.7,.26,1.3,2.24,.75,1.99-.55-1.2-6.1-3.11-11.95-5.45-17.7-.49-1.21-2.49-.68-1.99,.55h0Z"/>
      <path d="M164,124.53c.91,2.12,2.32,3.99,3.74,5.8,1.59,2.01,3.28,3.93,4.84,5.96,.34,.44,.89,.68,1.41,.37,.43-.25,.71-.97,.37-1.41-1.58-2.06-3.28-4.02-4.9-6.05-1.41-1.76-2.78-3.62-3.68-5.7-.22-.51-.97-.63-1.41-.37-.53,.31-.59,.9-.37,1.41h0Z"/>
      <path d="M144.89,137.56c-4.33-6.38-7.51-13.42-8.94-21.02-.72-3.81-.82-7.61-.93-11.48-.08-3.06-.38-6.18-1.35-9.09-2.28-6.81-8.26-11.04-13.67-15.32-6.31-4.99-12.91-9.6-19.85-13.67s-14.31-7.75-18.8-14.75c-.71-1.11-2.5-.08-1.78,1.04,3.86,6.01,9.65,9.8,15.73,13.29,6.9,3.97,13.6,8.21,19.96,13.01,3.33,2.51,6.57,5.15,9.75,7.85,2.51,2.14,4.73,4.53,6.09,7.58,1.25,2.81,1.68,5.91,1.82,8.96,.17,3.72,.15,7.39,.7,11.09,1.26,8.5,4.69,16.46,9.5,23.55,.74,1.09,2.53,.06,1.78-1.04h0Z"/>
      <path d="M100.79,69.81c.79,2.07,1.06,4.15,.45,6.26-.15,.52,.18,1.15,.72,1.27s1.11-.17,1.27-.72c.7-2.45,.44-5-.45-7.36-.2-.52-.7-.88-1.27-.72-.5,.14-.92,.74-.72,1.27h0Z"/>
      <path d="M116.23,118.38c1.6,5.79,5.99,10.38,10.79,13.77s10.6,5.95,16.54,6.51c1.32,.13,1.31-1.94,0-2.06-5.45-.52-10.75-2.93-15.2-6.02s-8.65-7.37-10.13-12.74c-.35-1.28-2.34-.73-1.99,.55h0Z"/>
      <path d="M137.92,130.54c-.65-.62-1.28-1.26-1.88-1.94-.29-.33-.57-.66-.85-1-.14-.17-.28-.35-.42-.53-.03-.04-.08-.12-.12-.15,.05,.03,.11,.14,.02,.03-.08-.1-.15-.2-.23-.3-.17-.22-.34-.4-.62-.47-.25-.07-.58-.04-.79,.1-.43,.27-.71,.95-.37,1.41,1.15,1.53,2.4,2.98,3.79,4.29,.39,.37,1.07,.42,1.46,0s.42-1.06,0-1.46h0Z"/>
      <path d="M130.93,117.83c-2.19-8.61-3.45-17.45-6.36-25.87-.43-1.25-2.42-.71-1.99,.55,2.9,8.42,4.17,17.26,6.36,25.87,.33,1.29,2.32,.74,1.99-.55h0Z"/>
      <path d="M68.83,54.38c5.68,4.63,11.24,10.09,11.5,17.88,.04,1.32,2.11,1.33,2.06,0-.13-4-1.48-7.76-3.8-11.01s-5.26-5.85-8.3-8.33c-1.02-.83-2.49,.62-1.46,1.46h0Z"/>
      <path d="M83.7,75.91c-7.86-4.31-16.95-6.32-25.92-6.08-6.48,.18-12.22,3.2-16.15,8.33-8.49,11.08-8.06,26.44-6.43,39.57,.53,4.22,1.38,8.55,3.57,12.26s5.45,5.91,9.48,6.92c4.28,1.07,8.7,.76,13.06,.94,4.85,.2,9.62,.91,14.24,2.44s9.12,4.09,14.11,4.59,9.22-1.44,12.96-4.22c7.11-5.26,12.01-13.2,14.67-21.54,2.75-8.61,3.18-18.26-.67-26.61s-11.21-12.7-19.17-15.71c-1.91-.72-3.85-1.35-5.81-1.92-1.28-.37-1.82,1.62-.55,1.99,7.52,2.18,15.4,5.34,20.55,11.5,5.61,6.71,6.63,16.2,5.09,24.54-1.54,8.34-5.37,16.4-11.28,22.52-2.9,3-6.46,5.74-10.52,6.93-4.68,1.37-9.25-.3-13.58-2.05s-8.54-3.21-13.12-3.9-8.7-.61-13.08-.75c-3.8-.12-7.86-.58-11.07-2.81-3.38-2.35-5.03-6.42-5.95-10.28s-1.19-8.18-1.54-12.3c-.26-3.02-.38-6.03-.21-9.05,.33-6.13,1.59-12.43,4.44-17.91,2.66-5.12,6.88-9.36,12.59-10.83,3.59-.93,7.32-.59,10.97-.26,4.13,.38,8.22,1.14,12.12,2.58,2.13,.79,4.18,1.78,6.17,2.87,1.16,.64,2.21-1.14,1.04-1.78h0Z"/>
      <path d="M72.01,78.25c1.81,.63,3.33,1.81,4.93,2.83s3.41,1.83,5.37,2.15c4.2,.7,8.44,.06,12.66,.05,1.33,0,1.33-2.07,0-2.06-4.13,.01-8.39,.74-12.49-.04-3.77-.72-6.38-3.67-9.93-4.92-1.25-.44-1.79,1.55-.55,1.99h0Z"/>
      <path d="M63.38,77.79c1.06,.15,2.12,.3,3.18,.45,.29,.04,.53,.05,.79-.1,.21-.13,.42-.37,.47-.62,.06-.26,.05-.56-.1-.79-.13-.21-.36-.44-.62-.47-1.06-.15-2.12-.3-3.18-.45-.29-.04-.53-.05-.79,.1-.21,.13-.42,.37-.47,.62-.06,.26-.05,.56,.1,.79,.13,.21,.36,.44,.62,.47h0Z"/>
      <path d="M53.22,82.37c1.33,0,1.33-2.06,0-2.06s-1.33,2.06,0,2.06h0Z"/>
      <path d="M49.77,86.87c3.58,1.27,6.9,3.16,10.71,3.67,.55,.07,1.03-.53,1.03-1.03,0-.62-.48-.96-1.03-1.03-3.58-.47-6.8-2.4-10.17-3.59-.52-.19-1.13,.21-1.27,.72-.16,.57,.19,1.08,.72,1.27h0Z"/>
      <path d="M51.13,94.59c1.82,.45,3.63,.91,5.45,1.36,.52,.13,1.14-.17,1.27-.72s-.16-1.13-.72-1.27c-1.82-.45-3.63-.91-5.45-1.36-.52-.13-1.14,.17-1.27,.72s.16,1.13,.72,1.27h0Z"/>
      <path d="M56.85,100.53c2.57,.3,5.14,.61,7.72,.91,.55,.07,1.03-.52,1.03-1.03,0-.61-.48-.97-1.03-1.03-2.57-.3-5.14-.61-7.72-.91-.55-.07-1.03,.52-1.03,1.03,0,.61,.48,.97,1.03,1.03h0Z"/>
      <path d="M77.73,52.62c-11.5-1.08-22.91-2.92-33.32-8.19-9.59-4.86-17.39-12.31-25.3-19.44-4.44-4-8.99-7.9-13.94-11.27-1.1-.75-2.13,1.04-1.04,1.78,9.07,6.16,16.61,14.18,25.04,21.12,4.15,3.42,8.52,6.59,13.28,9.1,5.12,2.71,10.6,4.72,16.22,6.08,6.25,1.52,12.67,2.27,19.06,2.87,1.32,.12,1.31-1.94,0-2.06h0Z"/>
      <path d="M.5,14.14c8.13,4.81,14.5,11.88,20.76,18.84,5.72,6.36,11.42,12.91,18.83,17.34s15.37,7.5,23.69,8.51c3.83,.46,7.76,.42,11.32-1.19,1.92-.87,3.72-2.04,5.77-2.62,2.15-.61,4.55-.44,6.75-.18,11.01,1.28,20.72,7.53,31.61,9.35,1.3,.22,1.86-1.77,.55-1.99-9.58-1.6-18.22-6.51-27.66-8.65-4.21-.95-9.04-1.68-13.16-.04-1.93,.77-3.69,1.92-5.63,2.66-1.83,.7-3.77,.86-5.71,.85-8.38-.03-16.9-3.23-24.19-7.17-3.36-1.82-6.53-3.92-9.35-6.49-3.45-3.14-6.62-6.57-9.74-10.03C17.41,25.64,10.53,17.68,1.54,12.36c-1.14-.68-2.18,1.1-1.04,1.78H.5Z"/>
      <path d="M75.19,52.2c-.2,.03,.27-.03,.02,0-.07,0-.14,.02-.21,.03-.12,.01-.25,.03-.37,.04-.28,.03-.56,.06-.83,.08-.53,.05-1.06,.09-1.59,.13-.36,.03-.72,.05-1.08,.09-.26,.03-.48,.04-.71,.17-.17,.09-.29,.22-.39,.38-.28,.43-.12,.89,.16,1.26,.15,.19,.5,.3,.73,.3,.25,0,.55-.11,.73-.3,.42-.45,.36-1,0-1.46h0c.09,.15,.18,.3,.27,.45h0c-.03,.26-.07,.53-.1,.79-.01,.02-.43,.49-.58,.46,0,0,.04,0,.04,0,.02,0,.04,0,.06,0,.12-.03-.3,.04-.19,.03,.13-.01,.26-.03,.39-.04,.39-.03,.78-.06,1.16-.09,1.02-.08,2.03-.17,3.04-.31,.24-.03,.5-.28,.62-.47,.13-.22,.18-.55,.1-.79s-.24-.49-.47-.62c-.26-.14-.5-.14-.79-.1h0Z"/>
      <path d="M72.01,50.84c-6.25,1.22-12.38,3.33-18.79,3.59-1.32,.05-1.33,2.12,0,2.06,6.6-.27,12.9-2.41,19.34-3.67,1.3-.25,.75-2.24-.55-1.99h0Z"/>
      <path d="M61.84,51.26c-2.69-.36-5.47-.34-8.18-.42s-5.47-.17-8.2-.11c-1.32,.03-1.33,2.09,0,2.06,2.73-.06,5.47,.03,8.2,.11s5.49,.06,8.18,.42c.56,.07,1.03-.53,1.03-1.03,0-.62-.48-.96-1.03-1.03h0Z"/>
      <path d="M58.49,47.66c-2.65-.36-5.31-.55-7.99-.49-.56,.01-1.03,.47-1.03,1.03s.47,1.04,1.03,1.03c2.49-.05,4.98,.08,7.44,.42,.55,.08,1.11-.13,1.27-.72,.13-.48-.16-1.19-.72-1.27h0Z"/>
      <path d="M48.5,45.85c-5-.74-10.02-1.31-14.98-2.27-1.3-.25-1.85,1.74-.55,1.99,4.96,.96,9.98,1.53,14.98,2.27,.55,.08,1.1-.14,1.27-.72,.14-.48-.17-1.19-.72-1.27h0Z"/>
      <path d="M29.43,39.49c-.12-.03-.24-.08-.35-.1-.03,0-.06-.03-.09-.03,.13,0,.49,.29,.56,.45l-.16,1.25c-.32,.25-.73,.34-.9,.28,.04,.02,.1,.02,.15,.03,.17,.04,.34,.07,.52,.11,.57,.12,1.14,.25,1.71,.38,1.72,.39,3.44,.78,5.15,1.17,3.04,.69,6.11,1.5,9.2,1.95,.67,.1,1.49,.14,1.72-.7s-.54-1.26-1.2-1.5c-1.25-.46-1.79,1.53-.55,1.99,.08,.03,.15,.05,.23,.09-.43-.19-.1-.06-.07-.03-.23-.29-.42-1.46,.29-1.81,.06-.03,.36-.08,.13-.04-.05,0-.13,0-.17-.02,.18,.05,.21,.03,.02,0-.22-.04-.44-.07-.65-.11-1.39-.26-2.77-.56-4.15-.87-3.29-.72-6.57-1.49-9.86-2.23-.86-.19-2.25-.77-3.02-.16-.38,.3-.34,.86-.16,1.25,.19,.42,.72,.52,1.12,.63,1.28,.36,1.83-1.63,.55-1.99h0Z"/>
    </g>
  </g>
</svg>