<?xml version="1.0" encoding="UTF-8"?>
<svg id="_Слой_2" data-name="Слой 2" xmlns="http://www.w3.org/2000/svg" viewBox="0 0 133.82 173.97">
  <defs>
    <style>
      .cls-1 {
        fill: #ebb62a;
      }
    </style>
  </defs>
  <g id="_Слой_1-2" data-name="Слой 1">
    <g>
      <g>
        <path class="cls-1" d="M46.52,68.48c-.97,2.81-.51,5.93-.64,8.96-.16,3.55-1.04,7-1.33,10.53-.45,5.45-1.03,10.86-1.35,16.26-.41,7,.06,13.71,.68,20.73,.53,6.04,2.26,14.75,6.25,19.49,2.61,3.1,6.55,4.49,9.94,6.45,2.73,1.58,5.51,3.89,8.55,4.87,3.94,1.27,5.86-.83,7.97-4.08,1.95-3,3.53-4.8,6.49-6.91,10.44-7.44,6.72-21.28,8.58-32.51s5-21.76,4.06-33.03c-1.02-12.34-21.38-12.68-30.27-13.34-6.64-.49-13.36,.6-18.94,4.23"/>
        <path class="cls-1" d="M45.07,68.08c-.76,2.37-.7,4.84-.67,7.3,.02,2.67-.32,5.25-.73,7.88-.83,5.3-1.17,10.7-1.61,16.05-.81,9.91-.67,20.05,.84,29.9,.61,3.99,1.6,7.95,3.28,11.63s4.39,6.6,8.05,8.64c1.86,1.04,3.81,1.92,5.63,3.02,2.03,1.23,3.94,2.68,6.07,3.74,1.83,.91,3.87,1.63,5.93,1.29,1.67-.28,3.08-1.28,4.17-2.55,1.27-1.47,2.19-3.19,3.38-4.72s2.67-2.92,4.27-4.09c3.08-2.25,5.35-5.04,6.74-8.61,2.68-6.86,1.77-14.53,2.32-21.71,.36-4.66,1.48-9.25,2.37-13.82,.98-5.04,1.88-10.12,2.18-15.26,.22-3.81,.5-8.15-1.15-11.71-1.13-2.44-3.22-4.33-5.52-5.67-5.17-3.01-11.45-3.87-17.3-4.43-7.13-.68-14.52-1.38-21.43,.93-2.16,.72-4.22,1.7-6.14,2.92-1.62,1.03-.12,3.63,1.51,2.59,3.78-2.41,8.1-3.71,12.56-4.04,3.12-.23,6.23,.05,9.34,.26,5.44,.37,10.99,.87,16.17,2.66,2.33,.8,4.65,1.93,6.4,3.69,1.99,2,2.47,4.4,2.59,7.14,.42,9.71-2.07,19.17-3.77,28.65-.65,3.6-.96,7.17-1.06,10.82s-.08,6.97-.55,10.41c-.45,3.25-1.37,6.49-3.32,9.18-2.12,2.93-5.48,4.54-7.82,7.28-1.24,1.46-2.22,3.1-3.35,4.64-.81,1.11-1.85,2.31-3.29,2.5-1.9,.25-3.92-.98-5.47-1.91-1.88-1.13-3.64-2.43-5.57-3.49-3.38-1.86-7.23-3.3-9.54-6.58-2.13-3.03-3.27-6.67-4.08-10.25-.91-3.97-1.24-8.01-1.55-12.06-.36-4.88-.58-9.77-.37-14.66s.77-10.17,1.21-15.25,1.59-9.86,1.56-14.83c-.01-2.28-.14-4.54,.56-6.73,.59-1.84-2.31-2.63-2.89-.8h0Z"/>
      </g>
      <path d="M79.79,152.57c1.93,8.95,8.86,16.02,18.06,17.25,10.62,1.42,19.88-5.07,26.21-13.04,6.59-8.3,11.06-19.86,9.43-30.56-.52-3.39-2.3-11.28-7.17-10.29-1.15,.23-2.23,.86-3.26,1.39-1.32,.69-2.61,1.43-3.88,2.21-2.59,1.59-5.08,3.35-7.5,5.19-5.44,4.15-10.53,8.74-15.69,13.23-2.7,2.34-5.34,4.72-7.92,7.18-1.33,1.28-2.65,2.61-4.13,3.72-1.21,.9-2.46,1.71-3.42,2.9-.68,.84,.51,2.04,1.2,1.2,.83-1.02,1.87-1.75,2.92-2.52s1.99-1.6,2.93-2.48c2.18-2.03,4.28-4.15,6.52-6.12,4.18-3.68,8.37-7.36,12.63-10.94s8.72-7.08,13.51-10.01c1.15-.7,2.32-1.37,3.51-2,.99-.52,2.2-1.33,3.35-1.35,2.27-.03,3.45,3.86,3.96,5.54,2.95,9.76-.45,21.07-5.89,29.35-5.16,7.85-13.38,15.45-23.23,15.9-4.77,.22-9.57-1.17-13.31-4.16s-6.16-7.34-7.17-12.03c-.23-1.06-1.86-.61-1.63,.45h0Z"/>
      <path d="M92.8,144.47c2.74,.98,5.64,1.51,8.55,1.57,2.71,.06,5.65-.22,8.18-1.27,3.66-1.52,6.52-5.29,6.14-9.37-.22-2.43-1.52-4.51-3.42-6-.85-.67-2.05,.52-1.2,1.2,1.85,1.45,3.07,3.44,2.95,5.85-.11,2.19-1.35,4.23-3.05,5.56-2.21,1.74-5.25,2.2-7.98,2.32-3.31,.14-6.61-.38-9.73-1.49-1.03-.37-1.47,1.27-.45,1.63h0Z"/>
      <path d="M117.79,135.48c-.08,.56-.18,1.12-.33,1.68s-.33,1.09-.52,1.51c-.48,1.05-1.08,1.88-1.91,2.65-.34,.31-.31,.88,0,1.2,.34,.34,.86,.31,1.2,0,1.87-1.72,2.86-4.1,3.2-6.58,.06-.45-.11-.91-.59-1.04-.39-.11-.98,.14-1.04,.59h0Z"/>
      <path d="M104.18,140.5c.78-.19,1.57-.36,2.34-.59,1.03-.3,2.11-.66,2.95-1.35,.38-.32,.67-.77,.68-1.28,.02-.6-.36-1.13-.84-1.46-.97-.66-2.38-.4-3.42-.04-.62,.22-1.24,.5-1.79,.88-.5,.35-.97,.76-1.17,1.35-.14,.43,.16,.93,.59,1.04,1.48,.39,3.1,0,4.33-.87,.37-.26,.55-.74,.3-1.16-.22-.37-.78-.57-1.16-.3-.25,.18-.51,.33-.79,.46-.03,.02-.18,.08-.08,.04-.07,.03-.14,.05-.21,.08-.15,.05-.3,.1-.46,.13-.07,.02-.14,.03-.21,.04-.05,0-.19,.03-.07,.01-.14,.02-.29,.03-.43,.03-.09,0-.17,0-.26,0-.02,0-.24-.02-.14,0,.09,0-.14-.03-.14-.02-.08-.02-.16-.04-.25-.06l.59,1.04c.03-.1-.11,.19-.04,.09,.02-.02,.03-.06,.05-.08,.01-.02,.06-.06,.06-.09,0,.08-.14,.16-.02,.04,.06-.07,.13-.13,.2-.19,.01-.01,.11-.08,.11-.09,0,0-.15,.11-.08,.06,.03-.02,.05-.04,.08-.06,.18-.13,.37-.25,.57-.35,.11-.06,.22-.12,.34-.17,.05-.03,.11-.05,.16-.07,.18-.08-.09,.03,.05-.02,.23-.09,.47-.18,.71-.25,.11-.03,.23-.06,.35-.09,.07-.01,.13-.03,.2-.04,.05,0,.23-.06,.11-.02s.03,0,.08,0c.05,0,.11,0,.16-.01,.11,0,.23,0,.34,0,.02,0,.14,.02,.15,.01-.03,.03-.21-.04-.03,0,.05,.01,.09,.02,.14,.03,.02,0,.04,.01,.07,.02,.15,.04-.03,0-.06-.03,0,.01,.23,.12,.22,.13,0,0-.17-.14-.04-.02,.01,.01,.03,.04,.04,.05,.06,.03-.08-.13-.05-.07,.01,.03,.04,.07,.06,.09,.08,.11-.04-.12-.03-.08,.01,.03,.02,.06,.03,.09,0,.04-.02-.25-.02-.09s.02-.15,.02-.1c0,.03-.02,.06-.02,.08-.01,.04,.12-.2,.04-.09-.01,.02-.06,.07-.06,.09,0-.05,.15-.17,.05-.07-.03,.03-.05,.05-.07,.08-.03,.03-.06,.05-.08,.08-.12,.11,.05-.03,.03-.02-.17,.1-.32,.21-.5,.31-.09,.05-.18,.09-.27,.13-.05,.02-.09,.04-.14,.06-.17,.08,.12-.05-.02,0-.44,.17-.88,.33-1.33,.46-.78,.23-1.58,.41-2.37,.6-.43,.1-.73,.62-.59,1.04,.14,.45,.58,.7,1.04,.59h0Z"/>
      <path d="M79.68,151.62c-4.09,2.36-4.22,8.6-2.27,12.37,2.26,4.37,6.82,6.96,11.38,8.38,5,1.55,10.57,2.09,15.73,1.12,6.09-1.14,12.52-4.38,16.66-9.05,4.36-4.92,6.05-11.43,9.09-17.12,.51-.96-.95-1.82-1.46-.85-2.44,4.58-3.97,9.64-6.77,14.03-3.11,4.88-8.23,8.23-13.6,10.17-4.98,1.8-10.24,1.97-15.41,1-4.38-.82-8.97-2.42-12.12-5.71-1.64-1.71-2.84-3.87-2.98-6.26s.4-5.32,2.62-6.61c.94-.54,.09-2.01-.85-1.46h0Z"/>
      <path d="M44.49,40.97c-1.82,2.05-2.02,4.48,.21,6.29,2.03,1.65,4.76,2.43,7.26,3.03,8.61,2.07,17.48,1.97,26.22,3.1,3.57,.46,7.15,1.02,10.76,.95,3.15-.06,6.61-.58,9.09-2.7,2.86-2.45,1.86-6.21-.83-8.31s-6.36-3.17-9.77-3.82c-9.78-1.88-19.79-1.79-29.68-2.52-1.09-.08-1.08,1.61,0,1.69,4.42,.32,8.85,.4,13.28,.67,3.61,.22,7.21,.62,10.8,1.03,3.27,.37,6.56,.86,9.69,1.92,2.5,.84,7.33,2.89,6.55,6.3-.68,2.96-5.08,3.78-7.59,3.97-3.13,.25-6.28-.1-9.39-.49-7.4-.94-14.88-1.2-22.27-2.24-3.44-.48-6.99-1.08-10.24-2.36-1.18-.46-2.51-1.06-3.35-2.05-.96-1.13-.44-2.27,.46-3.28,.72-.81-.47-2.01-1.2-1.2h0Z"/>
      <path d="M52.07,65.59c-2.19,.52-5.84,2.04-4.45,4.96s5.69,4.14,8.5,4.92c5.59,1.56,11.42,1.81,17.16,2.4,4.65,.48,9.43,.91,14.09,.35,1.84-.22,3.91-.54,5.41-1.73,1.4-1.11,1.76-2.92,.72-4.43-1.55-2.25-4.58-3.25-6.99-4.26-4.65-1.95-9.63-2.75-14.36-4.45-1.03-.37-1.47,1.27-.45,1.63,6.02,2.16,12.55,2.99,18.17,6.23,1.16,.67,3.51,2.19,2.14,3.71-.95,1.05-2.76,1.33-4.08,1.53-4.06,.62-8.31,.3-12.39-.06s-7.87-.67-11.76-1.17-7.71-1.19-11.2-2.82c-1.06-.49-3.53-1.56-3.56-3.01s2.51-1.94,3.5-2.18c1.06-.25,.61-1.88-.45-1.63h0Z"/>
      <path d="M60.24,72.72c1.54,0,3.08,0,4.61-.19s3.07-.58,4.56-1.08c1.03-.34,.59-1.98-.45-1.63-1.38,.46-2.79,.85-4.24,1.03s-2.99,.19-4.48,.18c-1.09,0-1.09,1.69,0,1.69h0Z"/>
      <path d="M72.41,71.97c1.09,0,1.09-1.69,0-1.69s-1.09,1.69,0,1.69h0Z"/>
      <path d="M4.25,1.09c.02,.41,0,.82-.02,1.22-.02,.29-.05,.57-.08,.86,0,.07-.03,.21,0,.06,0,.07-.02,.14-.03,.22-.02,.16-.05,.32-.08,.47-.11,.6-.25,1.21-.46,1.78-.03,.08-.06,.15-.09,.23-.06,.15,.05-.1-.02,.05-.06,.13-.12,.26-.19,.38-.06,.11-.13,.21-.19,.31-.09,.14,.02-.02,0,.01-.04,.05-.08,.1-.13,.15-.04,.04-.08,.07-.11,.11-.08,.08-.09,.05,.01,0-.04,.02-.09,.05-.13,.08-.02,.01-.05,.02-.07,.03-.05,.05,.13-.03,.07-.03-.04,0-.1,.03-.14,.04-.14,.05,.06,0,.03,0-.04-.01-.11,0-.15,0-.17,0,.1,.04-.05,0-.07-.02-.15-.03-.23-.06-.03,0-.21-.08-.1-.03s-.05-.03-.08-.05c-.09-.05-.15-.12-.03,0-.04-.04-.08-.07-.11-.11-.09-.08-.06-.09,0,.02-.02-.04-.05-.09-.08-.13-.01-.02-.02-.05-.03-.07-.05-.05,.03,.13,.03,.06,0-.08-.05-.23-.08-.3-.02-.04,0,.17,0,0,0-.07,0-.13,0-.2,0-.12,.01-.24,.02-.36-.01,.15-.01,.07,0-.02,.01-.07,.03-.15,.05-.22,.07-.29,.16-.58,.26-.86,.01-.03,.08-.21,.05-.13s.05-.1,.06-.13c.07-.15,.14-.29,.21-.43,.16-.3,.33-.6,.51-.89,.09-.14,.18-.28,.28-.41,.05-.06,.09-.13,.14-.19,.06-.08-.03,.03-.03,.04,.03-.03,.05-.07,.08-.1,.18-.22,.37-.44,.58-.63,.04-.04,.09-.08,.13-.12,.03-.03,.18-.14,.06-.05s.02-.01,.05-.03c.04-.03,.09-.05,.13-.08,.4-.21,.53-.77,.3-1.16C4.35,0,3.84-.11,3.43,.11c-.47,.25-.86,.66-1.19,1.05-.46,.55-.86,1.14-1.21,1.76C.38,4.1-.24,5.58,.09,6.95s2.04,2.21,3.36,1.59c1.22-.57,1.74-2.13,2.04-3.34,.32-1.32,.54-2.76,.46-4.12-.03-.46-.37-.85-.85-.85-.44,0-.87,.39-.85,.85h0Z"/>
      <path d="M6.12,2.4c7.68,1.39,14.84,4.58,21.88,7.84,3.39,1.57,6.69,3.34,10.14,4.78,.69,.29,1.37,.56,2.08,.77,.49,.14,1.22,.23,1.58,.64,1.05,1.22-1.51,2.63-2.34,3.05-.97,.49-.12,1.95,.85,1.46,1.23-.63,2.65-1.54,3.19-2.88,.49-1.21,.07-2.59-1.07-3.26-.54-.32-1.16-.47-1.75-.64-.94-.27-1.83-.66-2.72-1.05-2.1-.92-4.14-1.98-6.2-2.98C23.71,6.26,15.39,2.36,6.57,.77c-1.06-.19-1.52,1.44-.45,1.63h0Z"/>
      <path d="M45.02,17.5c-.04,.14-.08,.27-.13,.41-.02,.06-.05,.12-.07,.18-.02,.06-.02,.04,.03-.06-.01,.03-.02,.06-.04,.08-.1,.22-.22,.44-.35,.64-.04,.06-.13,.25-.19,.28,.07-.09,.09-.11,.05-.06-.02,.02-.03,.04-.05,.06-.04,.04-.07,.08-.11,.13-.15,.17-.31,.33-.48,.49-.08,.07-.17,.15-.25,.22-.04,.04-.09,.07-.13,.1-.17,.14,.11-.08-.03,.02-.18,.13-.37,.27-.56,.4-.42,.28-.84,.55-1.27,.82-.37,.24-.56,.76-.3,1.16,.24,.37,.76,.56,1.16,.3,.9-.58,1.83-1.14,2.61-1.86,.84-.78,1.43-1.76,1.75-2.86,.12-.42-.15-.94-.59-1.04s-.91,.14-1.04,.59h0Z"/>
      <path d="M44.03,26.9c1.15-.63,2.06-1.69,2.8-2.75s1.36-2.22,1.56-3.47c.07-.45-.12-.91-.59-1.04-.4-.11-.97,.14-1.04,.59-.04,.25-.1,.49-.17,.72-.04,.14-.09,.28-.15,.42,0,.02-.08,.21-.04,.11s-.04,.1-.05,.11c-.26,.57-.57,1.11-.92,1.62-.32,.47-.62,.84-1.08,1.31-.2,.2-.41,.39-.62,.56-.08,.06,.1-.07-.03,.02-.06,.04-.11,.08-.17,.12-.11,.07-.22,.14-.34,.2-.4,.22-.53,.77-.3,1.16,.24,.41,.75,.52,1.16,.3h0Z"/>
      <path d="M2.19,10.51c8.89,4.98,18.59,8.21,28.3,11.17,3.85,1.17,7.48,2.07,10.19,5.24,2.25,2.63,3.54,5.98,4.65,9.22,1.25,3.64,2.29,7.37,3.99,10.83,.48,.98,1.94,.12,1.46-.85-3.07-6.25-3.85-13.63-8.05-19.31-2.13-2.88-4.92-4.68-8.33-5.7-5.01-1.51-10.02-3.03-14.95-4.78-5.65-2.01-11.18-4.34-16.41-7.27-.95-.53-1.81,.93-.85,1.46h0Z"/>
      <path d="M50.57,25.61c2.24,4.45,4.52,8.87,6.71,13.34,.99,2.02,2.03,4.02,2.75,6.15,.58,1.71,1.16,3.38,2.34,4.77,.7,.83,1.9-.37,1.2-1.2-1.21-1.43-1.63-3.32-2.26-5.04-.75-2.05-1.81-4.01-2.78-5.97-2.13-4.32-4.34-8.61-6.5-12.91-.49-.97-1.95-.12-1.46,.85h0Z"/>
      <path d="M51.48,54.22c2.21,5.43,4.33,10.89,7.04,16.1,.5,.97,1.96,.11,1.46-.85-2.64-5.07-4.72-10.4-6.87-15.69-.41-1-2.04-.56-1.63,.45h0Z"/>
      <path d="M61.74,57.65c1.5,2.68,1.68,5.9,3.48,8.44,.26,.37,.74,.55,1.16,.3,.37-.22,.57-.78,.3-1.16-1.79-2.53-1.97-5.77-3.48-8.44-.53-.95-2-.1-1.46,.85h0Z"/>
      <path d="M49.95,78.43c.06,.08,.13,.15,.19,.23l-.13-.17c.3,.4,.57,.82,.81,1.26,.1,.18,.31,.33,.51,.39s.47,.03,.65-.09,.34-.29,.39-.51c.05-.23,.02-.44-.09-.65-.31-.59-.7-1.14-1.13-1.66-.13-.16-.4-.25-.6-.25-.21,0-.46,.09-.6,.25s-.26,.37-.25,.6l.03,.22c.04,.14,.11,.27,.22,.37h0Z"/>
      <path d="M52.97,86.01c1.74,6.04,2.97,12.29,6.05,17.84,.53,.95,1.99,.1,1.46-.85-3.01-5.41-4.18-11.54-5.88-17.43-.3-1.04-1.93-.6-1.63,.45h0Z"/>
      <path d="M63.4,114.07c1.57,6.14,2.88,12.64,6.29,18.09,.58,.92,2.04,.07,1.46-.85-3.33-5.32-4.59-11.68-6.12-17.68-.27-1.05-1.9-.61-1.63,.45h0Z"/>
      <path d="M74.82,142.89c.52,2.71,1.25,5.36,2.32,7.9,.18,.42,.8,.51,1.16,.3,.44-.25,.48-.73,.3-1.16-1.01-2.4-1.66-4.95-2.15-7.5-.09-.45-.63-.71-1.04-.59-.47,.13-.68,.59-.59,1.04h0Z"/>
      <path d="M61.41,86.01c.87,2.99,1.6,6.03,2.73,8.94,.17,.43,.57,.72,1.04,.59,.41-.11,.76-.61,.59-1.04-1.14-2.91-1.86-5.95-2.73-8.94-.3-1.04-1.94-.6-1.63,.45h0Z"/>
      <path d="M68.37,105.38c.87,2.73,1.86,5.43,3.31,7.9,.55,.94,2.02,.09,1.46-.85-1.39-2.35-2.32-4.91-3.14-7.5-.33-1.03-1.96-.59-1.63,.45h0Z"/>
      <path d="M76.81,122.52c1.79,5.37,4.19,10.52,5.96,15.9,.34,1.03,1.97,.59,1.63-.45-1.77-5.38-4.17-10.53-5.96-15.9-.34-1.03-1.98-.59-1.63,.45h0Z"/>
      <path d="M84.58,142.76c1.09,0,1.09-1.69,0-1.69s-1.09,1.69,0,1.69h0Z"/>
      <path d="M46.01,75.87c-1.86,10.6-.55,21.34-.53,32.02,0,1.09,1.69,1.09,1.69,0-.02-10.51-1.37-21.13,.47-31.57,.19-1.06-1.44-1.52-1.63-.45h0Z"/>
      <path d="M46.9,112.87c-1.2,.86-1.73,2.29-2.07,3.68-.44,1.78-.6,3.62-.73,5.44-.31,4.19-.85,8.57,.39,12.67,.15,.48,.78,.83,1.24,.51,2.79-1.97,2.49-6.4,2.19-9.39-.17-1.71-.38-3.35-.33-5.08,.05-1.88,.26-3.98-.43-5.76-.24-.62-1.18-.91-1.55-.2-1.38,2.69-1.75,5.81-1.84,8.79s.14,6.17,.74,9.18c.21,1.07,1.85,.62,1.63-.45-.55-2.76-.76-5.6-.69-8.42s.34-5.74,1.62-8.24l-1.55-.2c.6,1.56,.42,3.38,.37,5.02s.07,3.1,.25,4.68,.29,3.14,.18,4.71c-.09,1.29-.3,3.1-1.46,3.91l1.24,.51c-1.13-3.74-.65-7.7-.38-11.53,.11-1.57,.22-3.14,.51-4.69,.21-1.14,.48-2.92,1.5-3.66,.88-.63,.03-2.1-.85-1.46h0Z"/>
      <path d="M46.23,143.65c.6,5.78,5.81,9.98,10.56,12.59s11.06,4.9,16.59,3.62c1.06-.25,.61-1.88-.45-1.63-4.97,1.15-10.7-.97-15.01-3.3s-9.46-6.08-10-11.28c-.11-1.07-1.8-1.08-1.69,0h0Z"/>
      <path d="M76.63,167.4c-4.85-.15-9.71,.13-14.55-.25-2.49-.19-5-.56-7.4-1.29-2.18-.66-4.12-1.89-6.15-2.89-3.18-1.57-7.75-2.33-9.08-6.1-.63-1.8-.64-3.77-.59-5.65,.05-2.21,.17-4.42,.22-6.63,.12-5.05,.54-10.06,.87-15.1s.54-10.27,.72-15.41c.36-10.12,.71-20.25,1.16-30.37,.52-11.54,1.31-23.08,3.33-34.46,.19-1.06-1.44-1.52-1.63-.45-1.83,10.32-2.69,20.78-3.21,31.24s-.9,21.2-1.26,31.81c-.18,5.39-.38,10.78-.71,16.16s-.82,10.71-.95,16.1c-.1,4.06-.82,8.57,.22,12.55s4.17,5.35,7.54,6.69c2.31,.92,4.43,2.19,6.68,3.23,2.43,1.11,5.04,1.66,7.68,2.01,5.67,.75,11.41,.34,17.11,.52,1.09,.03,1.09-1.66,0-1.69h0Z"/>
      <path d="M101.87,54.24c-.04,10.32-.53,20.64-1.75,30.9s-3.45,20.39-5.02,30.61c-.87,5.63-1.52,11.29-1.67,16.98-.03,1.09,1.66,1.09,1.69,0,.28-10.32,2.22-20.47,4.05-30.6,1.81-10.05,3.2-20.12,3.84-30.31,.37-5.85,.53-11.72,.55-17.58,0-1.09-1.69-1.09-1.69,0h0Z"/>
      <path d="M45.09,150.26c-.98,.07-1.87,.44-2.7,.95-.74,.45-1.43,.99-2.2,1.4-.39,.21-.55,.78-.3,1.16,.26,.4,.74,.53,1.16,.3,.73-.39,1.38-.89,2.08-1.33,.17-.11,.34-.21,.51-.3,.09-.05,.18-.1,.28-.14,.04-.02,.08-.04,.12-.06,.08-.04,.13-.06,.02-.01,.18-.07,.36-.14,.55-.19,.1-.03,.2-.05,.3-.07,.03,0,.22-.03,.09-.02s.09,0,.09,0c.44-.03,.87-.37,.85-.85-.02-.43-.37-.88-.85-.85h0Z"/>
      <path d="M47.1,154.26c-.79,.32-1.52,.73-2.25,1.17-.33,.2-.66,.4-1,.59-.18,.1-.36,.2-.54,.29-.09,.04-.17,.08-.26,.12-.02,0-.16,.07-.06,.03,.1-.04-.1,.04-.1,.04-.41,.16-.74,.57-.59,1.04,.13,.4,.6,.77,1.04,.59,.79-.31,1.52-.72,2.25-1.16,.33-.2,.66-.4,1-.59,.18-.1,.36-.2,.54-.29,.09-.04,.17-.08,.26-.12,.04-.02,.09-.04,.13-.06,.12-.06-.18,.07,.03-.01,.41-.16,.74-.57,.59-1.04-.13-.4-.6-.77-1.04-.59h0Z"/>
      <path d="M51.12,156.58c-.53,.36-1.09,.68-1.66,.97-.28,.14-.57,.29-.87,.41,.2-.08,.01,0-.03,.01-.08,.03-.16,.06-.24,.09-.16,.06-.32,.12-.48,.17-.42,.14-.74,.59-.59,1.04,.13,.41,.59,.74,1.04,.59,1.3-.44,2.54-1.06,3.68-1.82,.37-.25,.56-.76,.3-1.16-.24-.37-.76-.57-1.16-.3h0Z"/>
      <path d="M56.79,159.48c-.9,.36-1.8,.72-2.73,.99-.42,.12-.73,.6-.59,1.04s.59,.72,1.04,.59c.93-.27,1.83-.64,2.73-.99,.21-.08,.39-.19,.51-.39,.11-.18,.15-.45,.09-.65s-.19-.4-.39-.51-.44-.17-.65-.09h0Z"/>
      <path d="M91.68,84.29c-.03,9.29,1.2,18.61-.25,27.85l1.55-.2c-2.05-2.95-1.1-7.62-.65-10.93,.65-4.82,.72-9.75,1.77-14.51,.23-1.06-1.4-1.51-1.63-.45-1.11,5.03-1.2,10.24-1.88,15.33-.47,3.54-1.26,8.26,.93,11.41,.37,.53,1.42,.58,1.55-.2,1.48-9.41,.28-18.84,.31-28.3,0-1.09-1.69-1.09-1.69,0h0Z"/>
    </g>
  </g>
</svg>