<?xml version="1.0" encoding="UTF-8"?>
<svg id="_Слой_2" data-name="Слой 2" xmlns="http://www.w3.org/2000/svg" viewBox="0 0 139.63 186.7">
  <defs>
    <style>
      .cls-1 {
        fill: #6cb51d;
      }
    </style>
  </defs>
  <g id="_Слой_1-2" data-name="Слой 1">
    <g>
      <path class="cls-1" d="M3.54,89.59c-2.65-5.88,1.39-10.54,5.7-14.07,2.84-2.32,10.17-4.86,11.95-7.84,2.79-4.67-1.68-7.58-3.12-11.44-2.47-6.65,3.4-10.25,4.54-16.27s-2.38-10.21,2.56-15.2c4.3-4.35,15.34-11.6,21.94-10.44,5.67,1,7.56,7.78,13.97,6.59,2.03-.37,3.78-1.98,5.76-2.09,.61-.04,1.97,1.8,3.2,1.8,.89,0,2.9-1.57,3.7-2.02,6.59-3.7,11.2-6.88,18.79-2.99,6.16,3.16,5.52,8.01,3.92,14.1,3.11,2.32,7.32,1.22,10.89,1.73s4.84,1.61,7.56,4.01c3.71,3.27,8.91,7.36,9.64,12.48,.64,4.45-3.5,8.46-2.73,12.42,1.01,5.14,7.49,4.89,6.57,11.14-.64,4.38-3.58,6.7-3.54,11.03,.03,3.32,2.05,1.89-1.07,5.06-3.35,3.39-7.58,5.18-11.02,8.82-1.71,1.8-3.2,4.07-5.94,3.93-4.6-.23-5.12-5.4-7.17-8.06-.89-1.16-3.04-2.12-3.64-3.24-1.32-2.46,.23-3.16,.14-5.73-.07-1.96-.52-5.06-2.85-6.1s-4.16,1.07-6.42-.31c-2.46-1.51-1.82-5.69-5.35-6.76-1.85-.56-6.06,.7-7.55,1.83-2.77,2.09-3.75,7.16-5.51,9.91-1.27,1.99-2.9,1.64-2.32,4.49,.72,3.53,8.25,6.35,10.86,7.77,5.69,3.08,14.08,12.16,5.21,15.88-6.73,2.82-12.93,2.11-19.65,.14-4.91-1.43-10.3-3.06-15.43-1.65-6.42,1.76-1,4.46-2.46,8.37-2.42,6.48-14.12,13.82-21.38,13.13-3.53-.33-11.81-2.96-13.3-6.28-3.33-7.44,5.12-14.44-1.16-21.61-2.43-2.77-8.08-6.74-6.16-11.22"/>
      <path d="M60.65,18.94c.08,1.24-.19,2.41-.83,3.48h1.41c-.74-1.27-.6-2.84-.88-4.24-.11-.53-.76-.73-1.2-.49-2.46,1.39-2.51,4.59-4.39,6.45l1.36,.36c-.22-.74-.37-1.48-.49-2.23-.1-.66-.95-.71-1.36-.36-.28,.25-.59,.46-.87,.71l1.39,.58c-.12-2.55-.06-5.23-2.82-6.41-2.47-1.05-3.82,1.24-3.8,3.42l1.52-.41c-1.44-1.91-4.22-4.3-6.78-4.22-3,.09-3.17,4.17-1.31,5.8,.58,.51,1.61,.03,1.36-.79-.57-1.91-2.7-3.43-4.3-4.44s-4.11-2.33-5.94-1.19c-3.78,2.35,4.24,6.55,5.8,7.4,.92,.5,1.73-.87,.82-1.41-1.56-.91-3.34-1.55-5.1-1.95s-3.77-.7-5.38,.16c-1.7,.91-2.06,2.99-1.38,4.68,.95,2.38,3.31,3.8,4.9,5.71l.16-1.28c-2.64,1.12-7.04-1.45-9.12,1.2s2.5,5.64,4.42,6.63l.41-1.52c-2.75,.26-7.58,5.8-4.12,7.96,1.7,1.06,3.91,.23,5.56-.52,1.84-.84,3.48-2.07,5.31-2.92l-1.11-1.11c-.96,2.02-2.71,3.63-2.82,5.98-.02,.33,.26,.72,.6,.78,3.37,.66,6.04-1.32,8.75-3.02l-1.22-.7c.08,1.06-.17,2.06,.03,3.12,.11,.57,.76,.67,1.2,.49,.99-.42,1.76-1.15,2.57-1.84s-.36-1.83-1.15-1.15c-.71,.61-1.37,1.22-2.24,1.58l1.2,.49c-.17-.89,.09-1.79,.03-2.69-.04-.59-.67-1.05-1.22-.7-2.24,1.41-4.67,3.4-7.5,2.85l.6,.78c.09-1.93,1.8-3.48,2.6-5.16,.36-.76-.36-1.46-1.11-1.11-2.56,1.19-5.03,3.57-7.97,3.71-.49,.02-1.26-.04-1.53-.54-.28-.53,.14-1.31,.39-1.76,.57-1.03,1.88-2.78,3.18-2.9,.74-.07,1.19-1.12,.41-1.52-1.06-.54-6.23-4.03-3-4.66,2.54-.5,5.22,.7,7.7-.35,.53-.22,.46-.93,.16-1.28-1.28-1.53-3.02-2.69-4.12-4.37-.87-1.34-.96-3.2,.84-3.65,2.58-.65,6.07,.68,8.27,1.98l.82-1.41c-1.25-.68-2.5-1.38-3.67-2.2-.46-.32-2.9-1.91-1.97-2.48,1.17-.71,3.47,.84,4.38,1.44,1.12,.74,2.9,1.94,3.31,3.31l1.36-.79c-.61-.54-.97-1.59-.66-2.39,.37-.95,1.48-.62,2.21-.31,1.47,.63,3.02,1.81,3.99,3.09,.45,.6,1.52,.47,1.52-.41,0-.55,0-1.53,.53-1.91,.67-.48,1.63,.25,2.08,.75,.96,1.09,.7,2.81,.77,4.15,.04,.73,.85,1.04,1.39,.58,.28-.25,.59-.46,.87-.71l-1.36-.36c.12,.76,.27,1.5,.49,2.23,.17,.58,.92,.8,1.36,.36,1.72-1.71,1.9-4.98,4.06-6.2l-1.2-.49c.32,1.58,.21,3.19,1.05,4.63,.31,.53,1.09,.52,1.41,0,.78-1.3,1.15-2.79,1.05-4.3-.07-1.04-1.7-1.05-1.63,0h0Z"/>
      <path d="M43.01,25.33c-1.25,1-2.24,2.61-2.73,4.11s-.21,3.29,1.47,3.79c1.47,.44,3.09-.45,4.29-1.22s2.33-1.77,3.53-2.61l-1.11-1.11c-.61,.99-.93,2.37,.25,3.1,.94,.57,1.96,.39,2.86-.13,1.79-1.03,3.12-2.7,4.59-4.12,.75-.73-.4-1.88-1.15-1.15-1.05,1.02-2.02,2.13-3.15,3.08-.46,.39-1.09,.96-1.71,1.06-.13,.02-.49,.03-.62-.13-.02-.02-.03-.06,0-.21,.06-.24,.2-.46,.33-.67,.41-.67-.43-1.59-1.11-1.11-.93,.65-1.78,1.4-2.7,2.06s-2.17,1.58-3.39,1.65-1.02-1.33-.7-2.14c.45-1.14,1.24-2.32,2.2-3.09,.82-.65-.34-1.8-1.15-1.15h0Z"/>
      <path d="M57.82,32c0,3.17,.54,7.24-1.66,9.87l.99-.13c-1.65-.91-1.95-3.04-2.92-4.5-.23-.35-.73-.55-1.11-.29-.42,.29-.71,.81-1.01,1.21-.54,.73-1.01,1.35-1.55,2.02-.61,.75-1.23,1.5-1.93,2.17-.14,.14-.29,.27-.44,.4-.03,.02-.25,.2-.12,.1-.08,.06-.16,.12-.24,.17-.08,.05-.44,.24-.23,.14-.06,.03-.12,.04-.18,.06-.1,.03,.19,0,.01,0-.02,0,.14,.04,.18,.05-.12-.04,.12,.13,0,0,.11,.12,.04-.02,.06,.09-.02-.09-.05-.17-.07-.26,0-.03-.02-.15,0,0,0-.05-.01-.1-.01-.15,0-.13-.01-.26,0-.4,0-.33,.03-.66,.07-.99,.06-.44-.11-.87-.57-1-.38-.11-.94,.13-1,.57-.13,.99-.4,2.45,.37,3.27,.62,.66,1.54,.44,2.21,0,1.74-1.14,3.04-3.04,4.27-4.67,.28-.37,.56-.75,.84-1.13,.05-.07,.1-.13,.15-.2,.13-.17,0,0,.02-.02,.05-.11,.29-.25-.02-.04l-1.11-.29c1.17,1.76,1.51,3.98,3.51,5.09,.29,.16,.75,.15,.99-.13,2.56-3.05,2.13-7.3,2.14-11.02,0-1.05-1.62-1.05-1.63,0h0Z"/>
      <path d="M66.98,19.59c-.03-4.44-1.44-9.42,.24-13.71,.46-1.17,2.05-3.49,3.6-2.67,1.28,.68,1.83,2.67,2.22,3.94,.51,1.68,.8,3.41,1.19,5.12,.23,1.03,1.76,.59,1.57-.43-.87-4.71,3.36-8.25,7.02-10.33h-.82c.56,.42,.56,1.43,.55,2.05-.01,1.12-.22,2.23-.46,3.33-.41,1.89-1.08,3.73-1.39,5.64-.11,.7,.79,1.5,1.36,.79,1.66-2.09,3.24-4.9,6.01-5.57l-1-.57c.47,1.69-.57,3.49-1.21,5.01-.4,.97,1.17,1.39,1.57,.43,.78-1.86,1.77-3.81,1.21-5.87-.12-.43-.57-.67-1-.57-3.12,.76-4.86,3.64-6.73,5.99l1.36,.79c.38-2.33,1.24-4.57,1.64-6.91,.34-1.95,.71-4.59-1.09-5.95-.23-.17-.59-.13-.82,0-4.39,2.5-8.78,6.65-7.77,12.16l1.57-.43c-.39-1.75-.69-3.51-1.22-5.22s-1.24-3.76-2.81-4.74c-1.76-1.09-3.78,.06-4.95,1.48-1.6,1.96-1.91,4.68-1.95,7.12-.05,3.05,.47,6.07,.49,9.11,0,1.05,1.63,1.05,1.63,0h0Z"/>
      <path d="M79.63,17.59c-1.28,.55-2.38,1.42-3.34,2.42-.73,.75,.39,1.87,1.15,1.15,2.79-2.61,5.68-4.87,9.37-6.03l-.79-.21s.1,.19,.13,.28c.06,.19,.07,.31,.08,.46,.03,.47-.05,.93-.15,1.39-.27,1.18-.73,2.3-1.26,3.39s-1.18,2.23-1.89,3.26c-.27,.4-.56,.79-.87,1.16-.13,.16-.27,.31-.42,.46-.07,.07-.16,.14-.23,.22-.02,.03-.24,.19-.1,.09l1.11,1.11c1.1-2.06,3.77-3.73,6.04-4.08,.88-.14,2.25-.06,2.48,1.02,.2,.93-.33,2.03-.89,2.74-.64,.81,.5,1.97,1.15,1.15,.91-1.16,1.63-2.69,1.33-4.19-.31-1.58-1.8-2.35-3.31-2.39-1.68-.04-3.36,.69-4.76,1.56s-2.7,1.95-3.45,3.37c-.35,.66,.41,1.63,1.11,1.11,.86-.64,1.52-1.52,2.12-2.4,.83-1.2,1.56-2.48,2.18-3.81,.9-1.94,2.34-5.12,.74-7.06-.18-.21-.54-.29-.79-.21-1.93,.61-3.77,1.46-5.45,2.59s-3.17,2.48-4.64,3.86l1.15,1.15c.88-.9,1.85-1.66,3.01-2.16,.96-.42,.13-1.82-.82-1.41h0Z"/>
      <path d="M28.18,46.14c.03,.29,.04,.49-.04,.77l1.2-.49c-.96-.63-2.41-1.48-3.62-1.18-.52,.13-.96,.55-1.36,.87-1.42,1.16-2.74,2.51-3.89,3.93-.78,.97-2.08,2.46-1.09,3.71s3.17,.71,4.47,.28c1.71-.57,3.86-1.43,4.98-2.92,.36-.48-.12-1.27-.7-1.22-3.21,.28-6.71,2.72-8.26,5.52-.16,.29-.16,.76,.13,.99,2.14,1.7,5.81,2.98,7.92,.54,.22-.26,.34-.68,.13-.99-1.7-2.42-4.85,.61-6.15,1.95-1.1,1.15-2.11,2.41-2.96,3.76-.6,.94-1.32,2.09-1.33,3.25,0,.48,.38,.76,.81,.81,1.65,.19,3.28-.07,4.91-.31,1.03-.15,.59-1.72-.43-1.57-1.49,.21-2.98,.42-4.48,.25l.81,.81c0-.65,.58-1.57,.97-2.21,.68-1.09,1.46-2.12,2.32-3.08,.78-.87,1.62-1.74,2.6-2.38,.34-.23,.73-.48,1.15-.55,.21-.03,.29-.03,.37,.08l.13-.99c-1.47,1.69-4.14,.63-5.62-.54l.13,.99c1.25-2.28,4.22-4.49,6.85-4.72l-.7-1.22c-.33,.45-1.13,.86-1.66,1.15-.81,.44-1.66,.81-2.54,1.09-.61,.19-1.67,.59-2.33,.34-.21-.08-.19-.05-.29-.21,.09,.13-.03,.17,.06-.04,.04-.1,.1-.19,.15-.28,.83-1.52,2.25-2.83,3.49-4.01,.51-.48,1.03-.98,1.61-1.38,.3-.21,.15-.19,.54-.09,.75,.19,1.41,.54,2.05,.96,.44,.29,1.06,0,1.2-.49,.11-.4,.14-.79,.09-1.21-.11-1.03-1.73-1.04-1.63,0h0Z"/>
      <path d="M41.52,51.97c-.7,.3-1.31,.8-1.6,1.53-.25,.62-.14,1.3,.13,1.89,.57,1.21,1.93,2.07,3.21,2.33,1.73,.35,3.5-.3,4.43-1.85,.54-.9,.74-2.05,.34-3.04-.37-.91-1.09-1.64-2.04-1.92-1.9-.57-3.96,.54-5.65,1.28-.4,.18-.5,.77-.29,1.11,.24,.42,.71,.47,1.11,.29,.31-.14,.62-.27,.92-.41,.05-.02,.1-.04,.15-.06-.02,0-.09,.04,0,0,.08-.03,.15-.06,.23-.09,.18-.07,.36-.14,.55-.21,.34-.12,.68-.23,1.02-.31,.17-.04,.34-.07,.51-.1-.14,.02,.04,0,.09,0,.09,0,.17-.01,.26-.01s.17,0,.26,0c.06,0,.22,.02,.07,0,.16,.03,.32,.07,.48,.12,.14,.05-.06-.05,.06,.03,.06,.04,.12,.07,.18,.11,0,0,.11,.07,.03,.02-.08-.06,.04,.04,.06,.05,.07,.06,.13,.12,.19,.19,.09,.1,0-.03,.07,.09,.06,.08,.11,.17,.16,.25,.07,.13,.11,.24,.15,.44,.02,.09,.02,.26,.01,.45,0,.09,0,.03,0,0,0,.04-.02,.09-.02,.13-.02,.12-.06,.23-.1,.35-.09,.26-.29,.59-.49,.8-.06,.07-.13,.13-.19,.19-.03,.03-.07,.06-.1,.09,.03-.02,.12-.08,0,0s-.25,.17-.39,.24c-.04,.02-.25,.11-.08,.04-.06,.02-.12,.05-.19,.07-.15,.05-.29,.08-.44,.11s.12,0-.04,0c-.06,0-.13,.01-.19,.01-.15,0-.3,0-.45,0-.08,0-.18-.03-.04,0-.06-.01-.13-.02-.19-.03-.15-.03-.29-.07-.43-.11-.06-.02-.12-.04-.18-.06-.04-.01-.08-.03-.12-.04,0,0,.13,.06,.05,.02-.12-.06-.24-.11-.36-.18s-.23-.13-.34-.21c-.02-.02-.18-.12-.09-.06,.08,.06-.09-.08-.12-.1-.09-.08-.17-.15-.25-.24-.04-.05-.08-.1-.13-.15-.09-.09,.08,.12-.02-.03-.07-.11-.14-.22-.2-.33-.01-.02-.02-.05-.03-.07-.05-.06,.03,.13,.02,.06,0-.06-.04-.13-.06-.18-.01-.05-.02-.11-.04-.16,.05,.12,0,.14,0,.01,0-.06,.01-.12,0-.18,0-.08-.01,.1-.01,.1,.01-.03,0-.06,.02-.09,.01-.05,.04-.1,.05-.15,.01-.09-.09,.13-.03,.07,.02-.02,.03-.06,.05-.08,.05-.09,.1-.13,0-.02,.05-.05,.09-.11,.14-.16,.02-.02,.17-.15,.09-.09s.09-.06,.12-.08c.16-.1,.33-.18,.5-.26,.4-.17,.49-.77,.29-1.11-.24-.42-.71-.46-1.11-.29h0Z"/>
      <path d="M103.08,51.89c-1.44-.57-3.11-.19-4.48,.41-1.21,.52-2.55,1.4-3.15,2.62-.31,.63-.4,1.31-.09,1.97s.98,1.05,1.64,1.3c1.68,.65,3.67,.45,4.84-1.03s1.49-3.61,.86-5.35c-.15-.41-.55-.69-1-.57-.4,.11-.72,.59-.57,1,.05,.15,.1,.3,.14,.45,.02,.07,.03,.15,.05,.22s.04,.3,.02,.1c.04,.34,.05,.69,.03,1.03,0,.08-.02,.16-.02,.24,0,.12,.03-.15,0-.04,0,.04-.01,.08-.02,.12-.03,.18-.07,.35-.12,.53-.05,.16-.1,.32-.16,.48-.02,.04-.07,.13,.01-.03-.02,.03-.03,.07-.05,.11-.04,.08-.08,.16-.12,.23-.08,.14-.17,.28-.26,.41-.03,.04-.1,.1,.02-.03-.03,.03-.05,.06-.07,.09-.06,.07-.13,.14-.19,.21-.05,.05-.11,.1-.17,.15-.03,.03-.12,.08,.03-.02-.03,.02-.06,.04-.09,.07-.14,.1-.29,.18-.45,.25,.16-.08,0,0-.08,.02-.08,.02-.15,.05-.23,.06s-.16,.03-.24,.05c.22-.04-.1,0-.16,0-.18,0-.37,0-.55-.03,.17,.02-.09-.02-.15-.03-.12-.02-.23-.05-.35-.08-.16-.04-.33-.09-.48-.15-.04-.01-.07-.03-.11-.04,.19,.07,.07,.03,.02,0-.07-.03-.14-.07-.2-.1-.05-.03-.11-.07-.16-.1-.18-.11,.09,.1-.02-.02-.04-.04-.08-.07-.12-.11-.15-.14,.03,.08,0,0-.02-.04-.06-.09-.08-.14-.09-.13,.05,.19,.02,.04,0-.04-.02-.09-.04-.13-.04-.12,0,.23,0,.02,0-.04,0-.09,0-.13,0-.16-.05,.2,0,.05,.02-.05,.02-.1,.04-.16,.01-.04,.09-.22,.02-.08s.02-.03,.03-.06c.03-.05,.06-.11,.09-.16,.03-.05,.06-.09,.09-.14,.02-.02,.03-.05,.05-.07,.07-.11-.1,.11-.03,.04,.2-.19,.37-.41,.58-.6,.05-.04,.1-.09,.16-.13,.03-.02,.05-.04,.08-.06-.01,.01-.15,.11-.04,.03,.13-.09,.26-.19,.4-.28,.27-.17,.54-.33,.83-.46,.09-.04,.17-.08,.26-.12,.04-.02,.14-.06-.04,.01,.04-.02,.09-.04,.13-.05,.17-.07,.34-.13,.51-.18,.34-.11,.69-.17,1.04-.24-.24,.05,.04,0,.11,0,.09,0,.18-.01,.27-.02,.17,0,.33,0,.5,.01,.03,0,.07,0,.1,0,.14,.01,.02-.02-.04,0,.07-.01,.18,.03,.25,.05,.16,.04,.32,.09,.47,.15,.41,.16,.89-.18,1-.57,.13-.46-.16-.84-.57-1h0Z"/>
      <path d="M102.41,54.98c.17,.06,.33,.12,.49,.19s-.18-.08-.03-.01c.03,.01,.05,.02,.08,.04,.08,.04,.15,.07,.23,.11,.25,.12,.49,.26,.72,.43,.07,.05,.24,.22,.03,.02,.04,.04,.08,.07,.13,.1,.09,.07,.17,.15,.24,.23,.04,.04,.08,.08,.12,.13,.01,.01,.02,.03,.04,.04,.08,.1-.13-.18-.06-.08,.06,.08,.11,.16,.16,.24,.02,.04,.05,.09,.07,.13,.04,.07,.07,.23-.02-.06,.03,.08,.06,.16,.08,.25,.01,.04,.02,.08,.03,.12,.04,.2-.01-.15,0-.07s.01,.16,.01,.24c0,.11-.07,.39,0,.05-.02,.08-.03,.16-.05,.24s-.05,.16-.07,.23c0,.01-.01,.03-.02,.04-.04,.11,.1-.22,.05-.11-.02,.04-.04,.08-.06,.12-.08,.15-.17,.29-.27,.43-.07,.1,.15-.18,.07-.09-.01,.01-.02,.03-.04,.05-.03,.03-.06,.07-.08,.1-.06,.06-.12,.13-.18,.19s-.13,.12-.2,.17c-.06,.05-.2,.15,.05-.04-.04,.03-.08,.06-.12,.09-.14,.1-.29,.19-.45,.27-.08,.04-.39,.16-.06,.04-.08,.03-.16,.06-.24,.09-.16,.05-.33,.08-.49,.12,.34-.07,.05,0-.05,0-.08,0-.16,0-.24,0-.04,0-.07,0-.11,0-.16-.01,.26,.05,.07,0-.08-.02-.16-.03-.23-.06-.04-.01-.08-.03-.12-.04-.15-.05,.22,.11,.05,.02-.09-.04-.17-.09-.25-.14-.01,0-.02-.02-.04-.03-.13-.09,.16,.14,.08,.06-.03-.03-.07-.06-.1-.09-.07-.07-.13-.14-.19-.21,.2,.23,.07,.09,.02,.02-.03-.05-.07-.1-.1-.16-.03-.05-.05-.1-.08-.15,0-.02-.02-.03-.02-.05-.08-.16,.07,.18,.02,.06-.1-.25-.17-.51-.22-.78-.07-.42-.61-.69-1-.57-.45,.15-.65,.55-.57,1,.18,.99,.71,2.01,1.66,2.45,.83,.38,1.77,.36,2.61,.02s1.62-.94,2.11-1.74,.63-1.74,.29-2.59c-.56-1.4-1.96-2.15-3.32-2.62-.4-.14-.91,.16-1,.57-.1,.45,.14,.85,.57,1h0Z"/>
      <path d="M72.52,68.94c1.05,0,1.05-1.63,0-1.63s-1.05,1.63,0,1.63h0Z"/>
      <path d="M51.81,109.41c.83-.03,1.53,.36,2.18,.99,.77,.75,1.34,1.67,1.84,2.62,.92,1.75,1.58,3.66,2.02,5.59,.23,1.02,1.8,.59,1.57-.43-.38-1.64-.94-3.25-1.62-4.79-.76-1.72-1.75-3.49-3.26-4.65-.79-.61-1.73-.99-2.73-.95s-1.05,1.66,0,1.63h0Z"/>
      <path d="M50.53,113.96c4.07,3.54,6.3,8.8,7.32,14,.2,1.03,1.77,.59,1.57-.43-1.07-5.46-3.47-11.01-7.74-14.72-.79-.68-1.94,.46-1.15,1.15h0Z"/>
      <path d="M58.32,123.39c.65,2.24,.73,4.56,.82,6.87s.23,4.65,.33,6.98c.21,5.02,.43,10.03,.47,15.06s.26,9.99,.27,14.98-.71,9.76-.74,14.66c0,1.05,1.62,1.05,1.63,0,.02-4.9,.75-9.76,.74-14.66-.01-5.15-.24-10.31-.27-15.47s-.28-10.2-.49-15.3c-.1-2.36-.23-4.72-.33-7.08-.09-2.17-.24-4.36-.85-6.46-.29-1-1.86-.58-1.57,.43h0Z"/>
      <path d="M61.59,137.76c.15,6.65-.96,13.25-1.06,19.89s.04,13.63-1.03,20.37c-.16,1.02,1.41,1.47,1.57,.43,1.07-6.73,1-13.52,1.08-20.31s1.22-13.57,1.06-20.38c-.02-1.05-1.65-1.05-1.63,0h0Z"/>
      <path d="M63.23,152.12c0,9.79-.23,19.58-.24,29.38,0,1.05,1.63,1.05,1.63,0,0-9.79,.23-19.58,.24-29.38,0-1.05-1.63-1.05-1.63,0h0Z"/>
      <path d="M72.44,117.96c-1.03,4.74-1.87,9.52-2.53,14.33s-.37,9.69-.08,14.55,.35,9.92,.27,14.89c-.04,2.48-.33,4.91-.57,7.38-.14,1.44-.27,2.88-.27,4.33,0,.76-.08,1.99,.56,2.55,.79,.69,1.94-.46,1.15-1.15,.13,.11-.03-.23-.06-.45-.05-.49-.03-1-.02-1.5,.03-1.26,.14-2.52,.26-3.77,.22-2.31,.52-4.58,.56-6.9,.08-4.63,.07-9.28-.18-13.9s-.71-9.59-.21-14.37c.55-5.22,1.56-10.42,2.67-15.54,.22-1.02-1.35-1.46-1.57-.43h0Z"/>
      <path d="M4.55,110.42c-1.16,.46-1.98,1.69-2.66,2.69-.83,1.22-1.77,2.74-1.88,4.25-.09,1.23,.76,2.44,2.09,2.3,1.5-.16,2.58-1.58,3.69-2.44l-1.39-.58c.11,1.71-1.93,6.19,1.14,6.57,2.01,.25,4.31-2.56,5.13-4.13l-1.49-.63c-.41,1.87-1.22,5.63,.78,6.89s4.26-2.47,4.53-4.08l-1.6-.22c-.06,2.73,1.25,6.05,3.71,7.47,3.03,1.74,4.71-1.53,5.16-4.06h-1.57c.76,2.77,2.49,6.95,5.91,7,3.72,.05,3.53-3.98,5.42-6.08l-.79,.21c2.71,.94,4.98,.56,7.65-.32,.99-.33,.57-1.9-.43-1.57-2.4,.79-4.34,1.17-6.78,.32-.26-.09-.61,0-.79,.21-.76,.85-1.16,1.88-1.59,2.92s-.9,2.31-2.08,2.62c-2.83,.74-4.4-3.74-4.95-5.75-.2-.73-1.42-.82-1.57,0-.31,1.74-1.16,4.47-3.25,2.75-1.62-1.34-2.47-3.67-2.43-5.73,.02-.89-1.44-1.14-1.6-.22-.12,.72-.58,1.42-.99,2.01-.22,.31-.48,.75-.82,.94-.37,.21-.26,.25-.52-.17-.71-1.17-.11-3.49,.16-4.73,.19-.86-1.04-1.48-1.49-.63-.34,.66-.85,1.23-1.36,1.77-.39,.41-1.43,1.65-2.07,1.56-.98-.14,.25-4.14,.2-4.95-.05-.75-.83-1.01-1.39-.58-.74,.57-1.37,1.35-2.21,1.78-1.13,.58-.79-.69-.55-1.33,.35-.96,.91-1.86,1.49-2.7,.36-.52,.98-1.57,1.61-1.82,.96-.38,.54-1.95-.43-1.57h0Z"/>
      <path d="M18.57,94.45c-.35,1.36-.93,3.53,.59,4.42,1.8,1.06,3.79-.81,4.23-2.51l-1.57-.43c-.26,1.1-.5,2.48,.12,3.52,.47,.78,1.33,1.1,2.21,.92,1.76-.35,3.06-2.29,2.84-4.04-.05-.41-.27-.74-.71-.8-.37-.05-.82,.18-.89,.58-.12,.68-.18,1.49,.36,2.02,.46,.46,1.17,.44,1.74,.24,1.13-.4,2.33-1.31,2.94-2.35l-1.52-.41c.02,.43,.2,.82,.23,1.24,.02,.27,.14,.58,.4,.7,.68,.31,1.3,.38,2.03,.28,.44-.06,.67-.62,.57-1-.12-.47-.57-.63-1-.57-.26,.04-.54,0-.78-.12l.4,.7c-.03-.42-.21-.83-.23-1.24-.03-.79-1.1-1.13-1.52-.41-.3,.51-1,1.08-1.61,1.43-.19,.11-.66,.36-.74,.26-.03-.04,.24,.11,.22,.1,.07,.03,.03,.06,.04,.05,.02-.03,0-.38,.02-.49l-1.6-.22c.08,.65-.03,1.09-.39,1.61-.24,.35-.72,.7-1.05,.8-.06,.02-.11,.03-.17,.04-.1,.02,.14-.01-.02,0-.06,0-.13,0-.2,0,.11,0,.09,.02,0,0-.05-.01-.12-.06-.06,0-.04-.03-.09-.07-.12-.12-.05-.07,.06,.1-.02-.03-.11-.18-.15-.44-.16-.75,0-.51,.09-1.01,.21-1.51,.24-1.02-1.31-1.45-1.57-.43-.14,.55-1.23,2.21-1.9,1.48-.43-.47,.08-1.94,.23-2.53,.26-1.02-1.31-1.45-1.57-.43h0Z"/>
      <path d="M62.51,110.85c-.81-.72-.15-1.14,.73-1.52,1.01-.43,2.38-.71,3.46-.38,.18,.05,.34,.11,.5,.22,.17,.12,.14,.18,.14,.17,0,.28-.45,.76-.58,1-.18,.34-.35,.7-.38,1.09-.06,.8,.54,1.52,1.33,1.67,1.08,.2,1.79-.69,2.08-1.61l-1.57-.43c-.16,.91-.25,2.16,.43,2.9,.85,.94,1.95,.16,2.57-.6l-1.28-.16c.79,1.12,1.25,2.41,2.25,3.38,.29,.28,.64,.27,.99,.13,1.23-.52,1.93-1.72,1.82-3.05l-1.39,.58c1.81,1.86,4.06,.48,4.22-1.87l-.81,.81c1.34,.13,3.1,.64,4.21-.41,1.35-1.27,.66-3.2-.58-4.24-.57-.48-1.65-.04-1.36,.79,.22,.63,.54,.74,1.06,1.08,.88,.57,1.7-.83,.82-1.41-.08-.05-.38-.3-.31-.11l-1.36,.79c.7,.59,1.4,1.96,0,2.1-.82,.08-1.66-.14-2.48-.22-.46-.05-.79,.41-.81,.81-.07,.97-.68,1.51-1.44,.72-.46-.48-1.45-.14-1.39,.58,.07,.82-.26,1.32-1.01,1.64l.99,.13c-.89-.86-1.29-2.06-2-3.05-.27-.39-.92-.6-1.28-.16,.01-.02-.55,.6-.56,.57,.28,.17,.39,.18,.32,.03-.03-.07-.05-.14-.06-.21,.07-.32-.05-.76,.01-1.11,.18-1.02-1.25-1.45-1.57-.43-.01,.04-.36,.81-.17,.36,.09-.21,.21-.4,.32-.59,.19-.32,.41-.64,.53-.99,.2-.63-.01-1.26-.46-1.73-.93-.95-2.49-.97-3.71-.81s-2.72,.59-3.63,1.54c-.96,1.01-.72,2.3,.27,3.18,.78,.69,1.94-.45,1.15-1.15h0Z"/>
      <path d="M69.23,102.48c.87,1.35,2.22,2.42,3.54,3.31,1.48,1,3.18,1.9,4.96,2.2,1.61,.27,3.5,0,4.41-1.53,1.15-1.9-.29-4.11-1.89-5.18-.7-.47-1.5,.44-1.11,1.11,1.31,2.31,5.77,4.62,7.12,1.05,1.03-2.72-2.14-5.46-3.98-6.95-.81-.65-1.97,.49-1.15,1.15s1.54,1.31,2.21,2.05c.64,.71,1.42,1.65,1.48,2.64s-.88,1.51-1.78,1.25c-1.01-.3-1.97-1.11-2.48-2.02l-1.11,1.11c1.07,.72,2.29,2.55,.75,3.47-.99,.6-2.32,.28-3.34-.07-1.33-.45-2.57-1.19-3.71-2.01-.92-.67-1.88-1.45-2.5-2.41-.57-.88-1.98-.06-1.41,.82h0Z"/>
      <path d="M94.61,84.14c1.08-.39,2.53-.9,3.64-.36,.65,.31,1.47,1.54,.95,2.25-.42,.57-1.42,.76-2.06,.93-.91,.23-1.85,.38-2.74,.68-.34,.12-.61,.41-.6,.78,.07,3.33,7.37,7.04,7.77,2.25,.04-.52-.56-.93-1.03-.78-1.5,.46-2.8,1.79-2.66,3.45,.05,.63,.37,1.23,.98,1.48,.75,.3,1.46-.11,2.04-.57l-1.28-.99c-1.03,1.34-1.93,2.94-2.53,4.52-.27,.71-.54,1.68,.04,2.31,.71,.77,1.86,.24,2.61-.15,.93-.48,.11-1.89-.82-1.41-.12,.06-.83,.39-.84,.32,0-.05,.3,.2,.3,.2,.08,.05-.01,.15,.04,0,.12-.4,.37-1.18,.64-1.71,.56-1.12,1.2-2.27,1.97-3.26,.61-.79-.62-1.52-1.28-.99-.09,.07-.51,.24-.2,.28-.02,0-.07-.2-.04-.43,.11-.77,.77-1.28,1.47-1.49l-1.03-.78c-.1,1.21-1.52,.58-2.21,.2-.82-.45-2.28-1.43-2.3-2.46l-.6,.78c1.9-.65,5.5-.63,6.09-3.08,.33-1.37-.59-3.05-1.77-3.72-1.52-.85-3.43-.4-4.97,.16-.98,.35-.56,1.93,.43,1.57h0Z"/>
      <path d="M103.94,100.69c1.79,1.96,3.54,5.3,6.7,3.84,1.51-.7,2.79-2.03,3.58-3.48s1.17-3.07,1.81-4.58h-1.41c.33,.74,.95,1.02,1.5,1.55,.3,.29,.85,.33,1.15,0,1.18-1.31,1.22-2.98,1.77-4.57l-1.36,.36c.74,.88,1.89,1.79,3.07,1.12,1.06-.6,1.46-2,1.72-3.1,.24-1.02-1.33-1.45-1.57-.43-.14,.6-.3,1.48-.76,1.94-.48,.49-1-.31-1.31-.68-.42-.5-1.18-.17-1.36,.36-.44,1.26-.42,2.82-1.35,3.85h1.15c-.44-.42-.99-.65-1.25-1.22-.23-.52-1.18-.54-1.41,0-1.09,2.59-1.59,5.46-4.12,7.1-1.06,.68-1.96,.66-2.87-.21s-1.66-2.03-2.54-3c-.71-.78-1.85,.38-1.15,1.15h0Z"/>
      <path d="M123.67,86.54c.83-.7,1.88-1.01,2.94-1.17l-.92-.37c.53,.75,.68,1.75,.89,2.63,.25,1.03,.48,2.1,.99,3.03,1.14,2.06,3.31,1.52,5.1,.69,2.42-1.12,9.62-5.51,5.01-8.15-1.04-.59-2.22-.97-3.37-1.26-.95-.24-2.02-.5-3-.39-.4,.05-.64,.23-.78,.6-.74,1.84,1.3,4.78,3.26,3.15,1.48-1.23,.67-3.83,.44-5.43-.15-1.03-1.72-.59-1.57,.43s.5,2.23,.28,3.3c-.08,.36-.28,.7-.63,.35s-.38-.95-.21-1.38l-.78,.6c1.48-.17,3.2,.42,4.55,.95,.45,.18,1.47,.52,1.69,1,.27,.59-.75,1.47-1.12,1.82-1.16,1.08-2.58,1.96-3.98,2.69-.74,.39-1.61,.83-2.47,.86-.65,.02-.92-.44-1.16-.99-.74-1.69-.64-3.81-1.73-5.34-.23-.33-.53-.43-.92-.37-1.36,.21-2.61,.7-3.66,1.59-.8,.68,.36,1.82,1.15,1.15h0Z"/>
      <path d="M108.45,26.39c1.4-.98,3.07-1.33,4.72-1.65l-.92-.37c.57,1.21-.09,2.56-.74,3.59-.73,1.16-1.65,2.16-2.58,3.16l1.28,.99c.53-.81,1.73-1.43,2.61-1.89,1.31-.69,2.7-1.25,4.13-1.61,.78-.2,2.32-.64,3.03-.11,.74,.56-1.21,2.05-1.79,2.22l.63,1.49c.98-.71,2.2-.81,3.35-1.09l-.79-.21c.95,1.09,.19,2.72-.32,3.84-.37,.82,.56,1.65,1.28,.99,.22-.2,.43-.36,.68-.52,.12-.08,.23,0,.1-.08-.04-.02,.03,.05,.06,.14,.05,.18,.09,.35,.11,.53,.08,.81-.03,1.8-.41,2.53-.49,.92,.91,1.75,1.41,.82,.64-1.2,.89-2.95,.49-4.26-.19-.61-.59-1.18-1.25-1.33-.9-.2-1.72,.45-2.33,1.01l1.28,.99c.85-1.9,1.6-4.05,.06-5.82-.19-.22-.52-.28-.79-.21-1.28,.32-2.64,.46-3.73,1.26-.7,.51-.32,1.77,.63,1.49,1.26-.38,2.58-1.55,3.01-2.8s-.38-2.43-1.64-2.71-2.61,.01-3.81,.35c-1.45,.4-2.86,.99-4.19,1.69-1.16,.61-2.45,1.36-3.19,2.47-.51,.77,.65,1.66,1.28,.99,2.07-2.22,5.12-5.46,3.57-8.73-.16-.34-.58-.44-.92-.37-1.78,.34-3.6,.76-5.1,1.81-.85,.6-.04,2.01,.82,1.41h0Z"/>
      <path d="M118.28,44.4c.13,1-.6,1.67-1.59,1.67-1.39,0-1.78-1.32-1.72-2.49h-1.63c.18,2.53-2.14,5.02-4.09,6.32-.85,.57-1.97,1.19-3.04,1.06-1.2-.15-1.53-1.43-1.67-2.45-.06-.41-.63-.71-1-.57-.22,.08-.44,.16-.66,.23-.99,.33-.57,1.9,.43,1.57,.22-.07,.44-.15,.66-.23l-1-.57c.17,1.21,.63,2.46,1.7,3.15,.91,.59,2.06,.58,3.08,.3,2.5-.69,4.71-2.78,6.05-4.94,.71-1.15,1.26-2.52,1.16-3.89-.07-1.04-1.58-1.05-1.63,0-.1,2.08,1.06,4.13,3.35,4.12,1.78,0,3.46-1.42,3.22-3.3-.13-1.02-1.76-1.04-1.63,0h0Z"/>
      <path d="M22.17,71.22c-3.12-.07-7.55,5.33-3.68,7.39,.58,.31,1.16-.09,1.22-.7,.35-3.57-4.4-2.82-6.1-1.2-1.89,1.79-4.06,6.36-1.01,8.1,.31,.18,.73,.13,.99-.13,1.45-1.44-.9-2.74-2.22-2.78-1.59-.05-3.07,1.27-3.42,2.79-.67,2.93,3.07,4.89,5.11,6.1,.9,.54,1.72-.87,.82-1.41-1.38-.83-3.05-1.67-3.98-3.03-.42-.62-.53-1.25-.1-1.9,.74-1.12,1.87-1.13,2.86-.33l-.24-.58,.03-.03,.99-.13c-1.83-1.05,.15-4.27,1.1-5.3,.7-.76,3.76-2.17,3.56-.19l1.22-.7c-1.06-.56-.59-1.75-.05-2.55,.64-.95,1.71-1.84,2.9-1.81,1.05,.02,1.05-1.6,0-1.63h0Z"/>
      <path d="M9.47,92.99c-1.44-.03-2.93,.74-3.53,2.09-.68,1.55,.42,2.76,1.84,3.23l.43-1.57c-1.25-.35-2.69,.02-2.74,1.54-.04,1.19,.77,2.44,1.83,2.95l.63-1.49c-1.24-.43-2.89-.71-3.89,.37-.78,.85-.75,2.15-.45,3.2,.61,2.13,2.85,4.61,5.09,2.82,.32-.25,.32-.9,0-1.15-.3-.24-.61-.42-.93-.63-.4-.25-.86-.05-1.11,.29-.68,.94-1.19,2.11-.85,3.27,.3,1.02,1.18,1.75,2.1,2.21,2.32,1.19,5.13,1.45,7.7,1.61,1.1,.07,2.2,.1,3.3,.07s1.05-1.66,0-1.63c-2.57,.08-5.22-.08-7.73-.65-1.14-.26-2.53-.59-3.39-1.44-.81-.8-.35-1.75,.28-2.63l-1.11,.29c.19,.12,.43,.23,.61,.37v-1.15c-.42,.33-.81,.16-1.24-.22-.55-.48-.93-1.19-1.12-1.89-.1-.33-.16-.65-.14-1,.01-.23,.1-.53,.17-.62,.47-.55,1.61-.2,2.3,.05,.86,.3,1.46-1.09,.63-1.49-.49-.23-.9-.7-1-1.24-.02-.11-.07-.27,0-.37-.07,.1-.05,.02,.09,0,.19-.02,.39,.06,.56,.1,1.02,.28,1.42-1.24,.43-1.57-1.95-.65,.06-2.15,1.25-2.12,1.05,.02,1.05-1.61,0-1.63h0Z"/>
      <path d="M24.92,106.21c-.5,2.16,.96,3.71,3.14,3.57s4.06-1.64,4.34-3.85h-1.63c.02,5.42,9.43,4.62,10.45,.1l-1.36,.36c3.21,2.63,6.19-2.09,7.48-4.56,.49-.93-.92-1.75-1.41-.82-.67,1.27-3.03,5.78-4.93,4.23-.44-.36-1.21-.29-1.36,.36-.62,2.75-7.24,3.8-7.26,.34,0-1.08-1.5-1.01-1.63,0-.27,2.14-4.89,3.32-4.28,.71,.24-1.02-1.33-1.45-1.57-.43h0Z"/>
      <path d="M47.45,82.48v-.02c0,.07-.02,.14-.03,.22,.04-.28,.11-.55,.22-.81l-.08,.19c.07-.16,.15-.32,.24-.47,.11-.18,.14-.43,.08-.63s-.2-.39-.37-.49c-.19-.1-.42-.15-.63-.08s-.37,.19-.49,.37c-.16,.26-.29,.54-.39,.82s-.15,.59-.19,.89c0,.11,.02,.22,.07,.31,.03,.1,.09,.19,.17,.26,.14,.14,.37,.25,.58,.24s.43-.08,.58-.24l.13-.16c.07-.13,.11-.26,.11-.41h0Z"/>
      <path d="M49.62,79.44c.34,1.19,.51,2.62-.2,3.71l1.49,.63c.01-.05,.1-.24,0-.04,.03-.06,.06-.12,.09-.17,.1-.16,.2-.32,.31-.47,.26-.36,.57-.72,.89-1.06,.7-.75,1.49-1.49,2.42-1.95,.11-.05,.3-.13,.48-.17,.06-.01,.19,0,.25,.01,.26,.12,.5,.38,.65,.72,.33,.74,.39,1.9-.2,2.45l1.36,.79c.44-1.38,1.71-2.31,2.69-3.3l-.99,.13c.98,.7,1.27,2.36,1.36,3.52,.11,1.37,.04,2.84-.49,4.13-.17,.41,.18,.89,.57,1,.47,.13,.83-.16,1-.57,.62-1.51,.69-3.34,.51-4.94-.19-1.69-.68-3.5-2.13-4.54-.29-.21-.75-.11-.99,.13-1.2,1.22-2.57,2.33-3.1,4.02-.26,.8,.79,1.33,1.36,.79,1.52-1.43,1.13-4.75-.75-5.72s-4.06,1.16-5.23,2.43c-.61,.66-1.4,1.48-1.63,2.38s.99,1.4,1.49,.63c.94-1.45,.82-3.37,.36-4.96-.29-1.01-1.86-.58-1.57,.43h0Z"/>
      <path d="M49.48,78.22c-.88,.29-1.51,.96-1.94,1.76-.21,.38-.37,.79-.54,1.2-.07,.18-.14,.36-.21,.54-.03,.08-.06,.16-.1,.24-.02,.04-.03,.08-.05,.12,.1-.25,.02-.06,0,0-.09,.21-.14,.4-.08,.63,.05,.19,.2,.39,.37,.49,.35,.19,.93,.12,1.11-.29,.16-.37,.31-.74,.46-1.12,.03-.09,.07-.17,.1-.25,.02-.04,.03-.09,.05-.13,.06-.16-.08,.18-.01,.02,.07-.17,.15-.34,.23-.5s.17-.32,.27-.47c.05-.07,.11-.14,.15-.22-.04,.07-.11,.13-.02,.03,.03-.03,.06-.06,.08-.1,.06-.06,.12-.12,.18-.18,.03-.02,.13-.1,.01-.02-.12,.09,0,0,.04-.02,.07-.05,.14-.09,.22-.13,.03-.01,.18-.08,.04-.02s.04,0,.06-.02c.4-.13,.71-.57,.57-1-.13-.4-.57-.71-1-.57h0Z"/>
      <path d="M58.79,53.32c.58,1.49,2.17,2.62,3.7,2.98,.72,.17,1.52,.18,2.13-.3,.74-.58,.76-1.53,.6-2.38l-1.57,.43c.26,1.13,1.18,2.26,2.12,2.9s2.14,.57,3-.24c1.5-1.39,1.83-3.71,2.41-5.58,.31-1-1.26-1.43-1.57-.43-.46,1.5-.72,3.17-1.65,4.47-.38,.54-.71,.8-1.27,.44-.65-.42-1.31-1.27-1.48-2-.24-1.03-1.76-.58-1.57,.43,.04,.24,.04,.48,0,.6,.01-.04-.1,.13,0,.04-.09,.1,0-.01,.02,0,0,0-.1,.06-.11,.07,.21-.07-.19,.03-.1,.02,.06,0-.18,0-.24,0-.14,0-.07,0-.25-.04-.14-.03-.27-.07-.4-.11-.44-.15-.93-.42-1.31-.72-.22-.17-.42-.36-.6-.57-.06-.07-.07-.08-.15-.2-.04-.06-.07-.12-.11-.18-.01-.02-.08-.18-.04-.06-.16-.41-.55-.7-1-.57-.39,.11-.73,.59-.57,1h0Z"/>
      <path d="M132.8,56.42c1.19,.75,1.06,1.64-.16,2.27s-2.57,.52-3.65-.28c-.56-.41-1.43,.28-1.2,.92,.99,2.71-2.05,3.3-3.93,2.22-.92-.52-1.69,.83-.82,1.41,1.55,1.02,.2,3.01-1.14,1.49l-.99,1.28c.67,.4-.76,1.17-1.01,1.28-.65,.29-1.34,.39-2.05,.38-1.27-.03-2.51-.39-3.75-.65-.5-.11-1.04,.23-1.03,.78,.02,.73,.25,1.65-.3,2.21-.99,1-2.21,.58-2.85-.5-.53-.9-1.94-.08-1.41,.82,.98,1.66,2.68,2.37,4.47,1.47s1.76-2.26,1.72-4.01l-1.03,.78c2.4,.51,5.04,1.29,7.33-.02,1.57-.89,2.66-2.81,.73-3.97-.82-.49-1.58,.6-.99,1.28,1.12,1.27,2.98,1.57,4.11,.12s.42-3.24-1-4.17l-.82,1.41c1.52,.87,3.46,1.14,5.03,.21s1.88-2.67,1.3-4.27l-1.2,.92c1.76,1.3,4.36,1.18,6.03-.22s1.2-3.46-.58-4.59c-.89-.56-1.71,.85-.82,1.41h0Z"/>
      <path d="M125.09,43.53c-.08-.94,.37-2.3,1.47-2.43,.74-.09,2.11,.95,2.08,1.75-.03,.7-1.23,1.55-1.7,1.95-.67,.57-1.4,1.07-2.06,1.65-.39,.34-.27,1.04,.16,1.28,.82,.45,1.65,.59,2.56,.32s1.77-1.11,2.71-1.13c1.67-.03,1.47,3.69,1.64,4.83,.11,.71,1.17,.77,1.49,.19,.44-.8,.59-.46,.98,.27,.32,.59,.59,1.3,.68,1.98,.3,2.23-1.57,3.97-3.54,4.53-.57,.16-.82,.94-.36,1.36,.85,.79,1.87,1.26,2.96,1.6,.96,.3,2.06,.45,2.94,.96,1.16,.68,.93,1.89,.66,3.04-.15,.66-.23,1.15-.87,1.49-.73,.39-1.57,.32-2.36,.18-1.47-.26-2.95-.85-4.47-.73-.97,.07-2.32,.59-2.64,1.62-.66,2.13,3.3,2.59,2.39,4.67-.67,1.53-2.69,2.67-4.19,3.24-2.22,.84-3.42-.26-4.9-1.78-.75-.77-1.79,.35-1.15,1.15,.56,.69-.89,.79-1.2,.06l-1.36,.79c.83,.97-3.04,3.03-3.68,3.38-.58,.31-1.17,.62-1.77,.89-.43,.19-.88,.39-1.35,.5-.17,.04-.4,.03-.55,.08,.22-.08,.08,.46,.32-.23l-1.36,.36c.29,.35,.37,.62,.45,1.06l.78-1.03c-1.54-.02-3.32-1.8-3.63-3.25-.22-1.02-1.79-.59-1.57,.43,.46,2.17,2.96,4.41,5.2,4.45,.57,0,.88-.52,.78-1.03-.13-.72-.41-1.22-.87-1.78-.42-.5-1.18-.17-1.36,.36-.48,1.37,.23,2.44,1.72,2.24,1.29-.17,2.54-.87,3.68-1.47,1.85-.97,6.59-3.49,4.35-6.11-.51-.6-1.67,.04-1.36,.79,1.3,3.2,6.2,1.2,3.92-1.64l-1.15,1.15c1.18,1.21,2.42,2.54,4.23,2.61,1.65,.07,3.34-.77,4.68-1.66,1.27-.84,2.64-1.99,3.05-3.53,.35-1.32-.39-2.36-1.33-3.2-.29-.26-1.04-.68-1.17-1.06-.04-.12-.04,0-.06,.05,.02-.07,.36-.25,.35-.24,.47-.18,.8-.28,1.32-.26,1.78,.07,3.45,.94,5.25,.85,1.37-.07,2.76-.76,3.23-2.11,.44-1.25,.77-2.86,.27-4.13-1.1-2.78-5.07-2.12-7.03-3.92l-.36,1.36c3.1-.88,5.46-3.84,4.54-7.14-.3-1.07-.8-2.41-1.75-3.07-1.14-.79-2.17,0-2.74,1.04l1.49,.19c-.27-1.77-.04-4.4-1.68-5.59-.78-.57-1.76-.53-2.64-.2-1.09,.41-2.15,1.46-3.34,.8l.16,1.28c1.83-1.61,5.85-3.83,3.45-6.61-.97-1.12-2.43-1.93-3.89-1.28s-2.24,2.31-2.12,3.83c.09,1.04,1.71,1.05,1.63,0h0Z"/>
      <path d="M105.75,87.87c-.26,.16-.51,.35-.75,.54-.29,.24-.27,.68-.13,.99,.39,.82,.95,1.56,1.59,2.2,.31,.31,.64,.6,.99,.87,.46,.37,.85,.75,1.47,.5,1.58-.64,1.91-2.42,1.55-3.92-.25-1.02-1.78-.59-1.57,.43,.35,1.72,2.42,2.1,3.87,1.75,.7-.17,1.44-.55,1.83-1.19,.45-.75,.3-1.63-.19-2.31-.26-.35-.71-.53-1.11-.29-.35,.2-.55,.76-.29,1.11,.09,.12,.17,.24,.23,.38-.09-.19,.04,.33,.02,.06,0,.05,0,.11,0,.16,.01-.32,0,0,0-.01,.02,.12,.05-.12,0,0-.02,.05-.06,.09-.08,.13,.12-.19-.07,.05-.13,.11,.16-.14-.1,.06-.17,.1-.05,.03-.11,.06-.17,.08,.18-.09,0,0-.04,.01-.13,.04-.25,.08-.38,.11-.07,.01-.13,.03-.2,.04,.14-.03,.03,0-.05,0-.13,0-.27,.02-.4,.01-.07,0-.13,0-.2-.01-.18-.01,.14,.03-.04,0-.13-.03-.25-.06-.37-.09-.05-.01-.22-.09-.04,0-.05-.03-.11-.05-.16-.08-.04-.02-.08-.05-.12-.08-.05-.03,.1,.11-.02-.02-.02-.02-.15-.16-.07-.07s-.04-.06-.05-.08c-.1-.14,0,.03-.02-.02-.02-.07-.04-.14-.06-.21l-1.57,.43c.18,.72,.17,1.72-.61,2l.63,.08c-1.09-.8-2.05-1.75-2.63-2.99l-.13,.99c.13-.11,.28-.2,.42-.29,.89-.55,.07-1.96-.82-1.41h0Z"/>
      <path d="M38.58,95.49c-1.29-.9,1.89-2.46,2.6-2.57l-.92-.37c.94,1.5,1.02,3.24,1.38,4.93,.09,.44,.59,.66,1,.57,1.65-.37,3.22-1.57,4.4-2.73s2.41-2.82,1.93-4.56c-.15-.56-.95-.83-1.36-.36-1.72,2.01-.94,5.48,1.15,6.93,1.07,.74,2.89,.98,3.96,.09,.5-.42,.64-1.01,.52-1.63-.05-.23-.13-.44-.19-.66-.02-.07-.09-.18-.06-.16,0-.15-.02-.11-.06,.1-.14,.13-.14,.16,0,.08,.96-.42,.13-1.82-.82-1.41s-.71,1.41-.5,2.22c.03,.1,.06,.25,.06,.27,.05-.13-.19,.04-.36,.07-.47,.1-.94,.05-1.36-.16-1.42-.7-2.28-3.3-1.18-4.59l-1.36-.36c.33,1.21-.98,2.49-1.77,3.22-.95,.87-2.14,1.78-3.43,2.06l1,.57c-.39-1.84-.51-3.68-1.54-5.32-.21-.34-.55-.43-.92-.37-2.33,.34-5.89,3.53-2.99,5.54,.86,.6,1.68-.81,.82-1.41h0Z"/>
      <path d="M48.03,186.63c13.74-5.69,28.77-6.84,43.29-9.36,1.03-.18,.59-1.75-.43-1.57-14.51,2.52-29.55,3.67-43.29,9.36-.95,.39-.54,1.97,.43,1.57h0Z"/>
      <path d="M57.44,185.98c7.88-1.11,15.74-2.32,23.56-3.77,.76-.14,.79-1.45,0-1.57-5.53-.82-11.16,.19-16.67,.83-5.85,.68-11.69,1.45-17.49,2.48l.43,1.57c12.46-2.26,24.81-5.18,37.4-6.69l-.22-1.6c-9.29,1.76-18.77,2.5-27.9,5.02-.8,.22-.74,1.32,0,1.57,2.54,.86,5.33,.45,7.96,.41,3.31-.05,6.61-.09,9.92-.17s6.43-.17,9.64-.36,6.56-.57,9.86-.5c1.05,.02,1.05-1.61,0-1.63-3.14-.06-6.25,.27-9.38,.47s-6.41,.3-9.62,.38-6.28,.13-9.42,.17c-2.76,.04-5.86,.57-8.52-.33v1.57c9.13-2.52,18.62-3.25,27.9-5.02,.89-.17,.7-1.71-.22-1.6-12.73,1.53-25.23,4.46-37.83,6.75-1.03,.19-.59,1.75,.43,1.57,5.66-1.01,11.36-1.75,17.06-2.42,5.33-.62,10.88-1.68,16.23-.89v-1.57c-7.82,1.45-15.68,2.66-23.56,3.77-1.03,.15-.59,1.71,.43,1.57h0Z"/>
      <path d="M42.48,77.7c-1.11-2.86,2.07-5.92,4.23-7.31l-1.11-.29c.57,1.35,.31,2.88-.76,3.89l1.36,.79c.7-1.71,2.14-3.18,3.68-4.16l-.99-.13c.45,.53,.38,1.46,.36,2.11-.02,.78-.12,1.56-.14,2.34-.02,1.07,1.5,1.01,1.63,0,.1-.86,.93-1.66,1.56-2.18,.72-.59,1.64-1.14,2.59-1.2l-.78-.6c.42,1.11,.12,2.19-.57,3.11l1.41,.82c.29-.39,.95-1.12,1.51-.78s.28,1.21,.08,1.64c-.45,.94,.96,1.77,1.41,.82,.59-1.25,.73-3.01-.63-3.85-1.45-.88-2.9,.19-3.76,1.34-.63,.84,.79,1.65,1.41,.82,.92-1.23,1.29-2.91,.74-4.37-.12-.32-.41-.62-.78-.6-2.52,.15-5.46,2.41-5.78,5h1.63c.03-1.84,.61-4.05-.7-5.6-.22-.26-.7-.31-.99-.13-1.93,1.23-3.55,3-4.43,5.13-.33,.8,.82,1.3,1.36,.79,1.65-1.55,1.87-3.84,1.02-5.86-.17-.39-.78-.51-1.11-.29-2.76,1.76-6.38,5.55-4.98,9.14,.38,.97,1.95,.55,1.57-.43h0Z"/>
      <path d="M67.97,58.98c-.67,2.31,1.27,3.81,3.45,3.67,.88-.06,1.86-.32,2.42-1.05,.68-.88,.29-1.91-.4-2.64-.41-.45-1.21-.22-1.36,.36-.61,2.42,2.25,3.66,4.18,3.94,.27,.04,.6,.03,.79-.21,1.1-1.4,2.05-3.35,.58-4.86-.63-.64-1.83,.22-1.28,.99,1.14,1.57,3.16,2.84,5.14,2.05,2.15-.86,2.01-3.29,1.14-5.05-.46-.94-1.87-.12-1.41,.82,.42,.86,.79,2.29-.37,2.73s-2.44-.49-3.1-1.38l-1.28,.99c.73,.75-.07,1.9-.58,2.56l.79-.21c-.83-.12-3.36-.66-3.04-1.93l-1.36,.36c.12,.13,.17,.18,.25,.33-.03-.07,.06,.29,.04,.1,0,.04-.03,.04,.02,0-.14,.12,.06,0-.1,.13-.16,.14,.14-.08-.05,.04-.05,.03-.1,.06-.16,.09-.11,.05-.08,.05-.28,.11-.34,.1-.42,.11-.77,.12-.53,.01-1.08-.09-1.44-.36-.16-.12-.26-.27-.31-.41-.08-.24-.04-.52,.06-.84,.29-1.01-1.28-1.44-1.57-.43h0Z"/>
      <path d="M87.1,37.38s.28,.04,.12,.01c.05,0,.11,.02,.16,.03,.12,.03,.25,.06,.37,.1,.22,.07-.08-.04,.04,.01,.05,.02,.1,.05,.16,.08,.04,.02,.08,.04,.12,.07,.02,.01,.22,.16,.14,.09-.1-.08,.07,.06,.07,.06,.03,.03,.06,.06,.09,.09,.04,.05,.09,.09,.13,.14-.11-.13-.03-.04-.01-.01,.06,.09,.11,.18,.16,.27,0,0,.09,.19,.04,.08-.05-.1,.04,.12,.05,.14,.03,.1,.06,.21,.09,.32,0,.04,.02,.09,.03,.13,.05,.21,0-.12,0,.02,.02,.24,.03,.48,.01,.72,0,.06,0,.12-.02,.17-.01,.14,.04-.19,0,.03-.02,.12-.04,.23-.07,.35-.06,.23-.13,.46-.22,.68,.06-.16-.07,.15-.09,.2-.05,.11-.11,.21-.17,.31s-.13,.2-.19,.29c-.09,.13-.02,.03,0,0-.05,.06-.1,.12-.16,.18-.07,.08-.14,.15-.22,.22-.05,.05-.1,.09-.15,.13,.02-.02,.13-.09,0,0-.1,.07-.2,.13-.3,.19-.06,.03-.12,.06-.18,.09-.04,.02-.07,.03-.11,.05,.07-.03,.06-.03-.03,0-1.03,.38-2.09,.34-3.15,.03-.35-.1-.56-.18-.83-.32-.14-.07-.28-.15-.41-.23-.07-.04-.14-.09-.21-.14-.02-.01-.21-.15-.1-.07-.23-.18-.45-.39-.63-.62,.1,.12-.05-.08-.06-.09-.04-.06-.08-.13-.12-.2-.03-.05-.05-.09-.07-.14-.04-.09-.04-.09-.01-.02-.02-.05-.04-.1-.05-.15-.14-.42-.56-.69-1-.57-.4,.11-.71,.58-.57,1,.97,2.8,4.77,3.97,7.43,3.15,2.42-.75,3.86-3.62,3.17-6.04-.43-1.52-1.7-2.37-3.23-2.49-.44-.04-.81,.4-.81,.81,0,.47,.37,.78,.81,.81h0Z"/>
      <path d="M85.82,43.53c.04,.48,.03,.81-.08,1.22-.06,.22-.1,.31-.16,.44-.04,.09-.09,.17-.14,.25-.02,.03-.17,.25-.11,.17-.49,.63-1.16,1.02-1.88,1.25-1.6,.51-3.44,.36-4.86-.55-.75-.49-1.28-1.22-1.51-2.12-.26-1.01-1.83-.58-1.57,.43,1.12,4.43,7.84,5.57,10.81,2.34,.86-.93,1.25-2.17,1.14-3.42-.09-1.04-1.72-1.04-1.63,0h0Z"/>
      <path d="M96.17,32.29c-2.17,1.81-5.33,.91-7.85,1.96-2.13,.88-3.54,2.71-2.28,4.94l.92-1.2c-.39-.13-.76-.13-1.01-.49-.59-.85-1.92-.11-1.41,.82,.32,.58-1.07,.56-1.47,.56-.71,0-1.73-.08-2.2-.69-.62-.79-1.6,.22-1.28,.99,.51,1.2-.37,3.1-1.75,1.9-.78-.68-1.91,.41-1.15,1.15,.97,.94,3.1,3.91,.92,4.55-1.52,.45-3.59,.55-5.12,.09-1-.3-1.43,1.27-.43,1.57,1.17,.35,2.51,.34,3.71,.26,1.1-.07,2.48-.17,3.41-.83,2.37-1.68,.15-5.32-1.35-6.78l-1.15,1.15c2.83,2.47,5.54-.95,4.3-3.87l-1.28,.99c1.53,1.95,8.08,1.51,6.23-1.85l-1.41,.82c.56,.8,1.1,.94,1.98,1.24,.69,.23,1.25-.61,.92-1.2-1.34-2.36,2.82-3.13,4.36-3.24,2.12-.15,3.82-.28,5.51-1.69,.81-.67-.35-1.82-1.15-1.15h0Z"/>
      <path d="M27.46,70.3c.02-1.14,1.01-1.88,1.95-2.34l-.99-.13c.63,.61,1.05,1.4,.92,2.3h1.57c-.45-1.24,.47-2.59,1.53-3.2,1.5-.86,2.17,.51,2.32,1.95,.09,.85,1.37,1.18,1.6,.22,.28-1.17,1.49-2.42,2.4-3.16,.34-.27,.84-.71,1.26-.42,.56,.39,.73,1.54,.99,2.13,.42,.96,1.83,.13,1.41-.82s-.61-2.07-1.53-2.69c-.84-.56-1.79-.38-2.6,.14-.86,.55-1.57,1.33-2.19,2.13-.52,.66-1.1,1.42-1.3,2.25l1.6,.22c-.14-1.27-.46-2.71-1.61-3.46-.88-.57-1.96-.48-2.87-.05-1.81,.85-3.31,3.17-2.57,5.19,.24,.66,1.44,.87,1.57,0,.22-1.5-.25-2.83-1.34-3.89-.28-.27-.65-.29-.99-.13-1.48,.73-2.72,2.02-2.75,3.74-.02,1.05,1.6,1.05,1.63,0h0Z"/>
      <path d="M16.82,84.61c-.88,.61-1.77,1.58-1.21,2.71,.43,.86,1.47,1.26,2.35,1.42s2.09,.14,2.81-.55c.9-.85,.5-2.09-.12-2.97-.5-.72-1.77-.31-1.49,.63,.61,2.04,2.74,3.57,4.86,2.63,1.81-.8,1.81-2.85,2.04-4.53l-1.39,.58c1.14,1.25,2.15,2.32,3.98,2.06,1.68-.23,3.12-1.2,4.32-2.35,2.38-2.29,4.39-5.61,4.83-8.92,.14-1.03-1.49-1.02-1.63,0-.35,2.62-2.05,5.31-3.81,7.21-.87,.95-1.92,1.88-3.17,2.28-.59,.19-1.31,.35-1.89,.03s-1.04-.97-1.49-1.46c-.53-.58-1.31-.06-1.39,.58-.11,.85-.04,2.16-.7,2.81-1.14,1.11-2.65-.2-2.99-1.34l-1.49,.63c.18,.26,.36,.55,.44,.84,.03,.13-.02,.13,0,.12-.32,.24-.91,.24-1.34,.17-.5-.07-.87-.3-1.24-.51-.08-.05-.05-.05-.03-.08,.09-.16,.36-.4,.57-.55,.86-.59,.04-2-.82-1.41h0Z"/>
      <path d="M18.33,117.08c.3,1.41,1.32,2.95,2.84,3.22,.72,.12,1.43-.09,1.93-.63,.63-.68,.79-1.65,.83-2.54,.02-.44-.39-.81-.81-.81-.48,0-.77,.37-.81,.81-.08,.77-.02,1.62,.44,2.27,.43,.61,1.07,.91,1.8,.97,1.4,.12,2.85-.71,3.85-1.62,.78-.7-.38-1.85-1.15-1.15-.36,.32-.78,.61-1.28,.84-.34,.16-.87,.31-1.2,.31-.05,0-.1,0-.15,0-.16,0,.06,.02-.03,0-.1-.02-.2-.04-.29-.08,.16,.06-.07-.04-.13-.08-.09-.06,.12,.13-.01-.02-.03-.03-.06-.06-.09-.1,.13,.16-.11-.24-.04-.08-.05-.12-.08-.24-.1-.36,0-.03-.02-.19-.02-.32,0-.19,.01-.39,.03-.58h-1.63c-.01,.32-.04,.63-.14,.94-.06,.19-.05,.17-.11,.29-.03,.06-.06,.11-.1,.16,.04-.06,.04-.05,0,0-.04,.04-.08,.08-.12,.12-.07,.07,.11-.08-.01,0-.02,.02-.18,.09-.07,.04s-.06,.02-.07,.02c-.11,.01-.01,0,.04,0-.05,0-.1,0-.15,0-.1,.01-.11,0,0,.01-.05,0-.11-.02-.16-.03-.06-.02-.3-.12-.15-.05-.11-.05-.21-.11-.31-.18-.05-.03-.08-.06-.02,0-.05-.04-.1-.08-.15-.13-.1-.09-.19-.19-.28-.29-.1-.12,.1,.15-.05-.07-.03-.05-.07-.09-.1-.14-.08-.12-.15-.25-.22-.39-.09-.18-.19-.52-.25-.8-.22-1.02-1.79-.59-1.57,.43h0Z"/>
      <path d="M58.17,98.83c-.62,1.46-.32,2.95,.74,4.12,.96,1.07,2.43,1.71,3.86,1.73s2.81-.66,3.65-1.83c.71-.99,.96-2.29,.88-3.49-.1-1.44-.59-2.83-1.5-3.95-.28-.34-.86-.29-1.15,0-.34,.34-.28,.81,0,1.15,.1,.12,.04,.04,.02,.02,.04,.05,.08,.11,.11,.16,.06,.09,.12,.18,.17,.27,.11,.18,.25,.47,.31,.6,.15,.36,.3,.92,.38,1.37,.03,.17,.01,.08,0,.04,0,.06,.01,.11,.02,.17,.01,.13,.02,.26,.02,.39,0,.26,0,.51-.03,.77,0,.02-.02,.19-.01,.1s-.01,.08-.02,.1c-.03,.12-.05,.24-.08,.37-.03,.11-.06,.21-.1,.31-.02,.05-.04,.1-.06,.15,.05-.13-.05,.1-.05,.1-.41,.84-1.05,1.35-2.01,1.54s-2.03-.16-2.8-.76c-.4-.31-.78-.78-.94-1.17-.2-.5-.22-.96-.02-1.43,.17-.4,.12-.87-.29-1.11-.34-.2-.94-.12-1.11,.29h0Z"/>
      <path d="M67.23,93.58c.04,1.11-1.44,1.88-2.33,2.21-.51,.19-1.13,.36-1.66,.3-.16-.02-.35-.1-.36-.11-.08-.08-.06-.1-.04-.35l-1.39,.58c.24,.29,.27,.45,.09,.69-.3,.4-.89,.61-1.34,.75-.94,.29-2.31,.55-3.21,.03-.58-.33-1.44,.23-1.2,.92,.07,.19,0,.33,.12,.23-.08,.08-.42,.05-.54,.04-.43-.03-1.01-.15-1.35-.42-.81-.65-1.97,.5-1.15,1.15s1.99,1,3.04,.88c1.21-.15,1.86-1.14,1.45-2.31l-1.2,.92c2.39,1.38,9.31-.54,6.43-4.02-.49-.59-1.34-.06-1.39,.58-.3,3.99,7.76,1.48,7.64-2.06-.03-1.04-1.66-1.05-1.63,0h0Z"/>
      <path d="M89.06,69.43c.09-.23,.18-.48,.33-.68,.08-.11,.18-.16,.23-.23-.02,.02-.05,.02-.07,.02-.06,0-.04,0,.04,0-.02,.02-.11-.02-.12-.04,.12,.13,.12,.03,.22,.19,.38,.6,.39,1.39,.17,2.07-.13,.42,.16,.89,.57,1,1.42,.4,2.51-.46,3.22-1.62l-1.52-.41c-.08,1.17,.21,2.65,1.53,2.99,1.25,.32,2.47-.55,3.3-1.37l-1.28-.16c.45,.66,.97,1.29,1.66,1.71,.34,.21,.84,.47,1.24,.36s.79-.56,1.08-.86c.72-.76-.43-1.91-1.15-1.15-.23,.24-.46,.45-.72,.65l.79-.21c-.65-.22-1.12-.78-1.5-1.33-.29-.43-.88-.55-1.28-.16-.44,.44-1.13,1.05-1.76,.96,.06,0-.06-.04-.06-.04-.02-.02-.09-.09-.14-.2-.15-.37-.12-.8-.09-1.18,.06-.84-1.12-1.06-1.52-.41-.32,.52-.71,1.06-1.38,.87l.57,1c.4-1.27,.26-3.02-.85-3.9-.5-.4-1.16-.5-1.74-.2-.72,.38-1.08,1.17-1.35,1.9-.36,.98,1.21,1.41,1.57,.43h0Z"/>
      <path d="M63.34,80.07c.06-.14,.17-.34,.23-.42,0,0,.28-.28,.16-.18,.02-.02,.19-.09,.08-.06s.07-.02,.09-.03c.21-.05-.17,.04,.04,0,.02,0,.21,.01,.08,0s.34,.12,.14,.03c.11,.05,.21,.11,.31,.18,.19,.13-.1-.1,.07,.06,.05,.04,.1,.09,.14,.13s.09,.09,.13,.14c0,0,.15,.19,.07,.08,.08,.11,.15,.22,.22,.34,.04,.07,.08,.14,.11,.22,.06,.12,0,0,.03,.07,.05,.14,.09,.28,.12,.43,.01,.07,.02,.06,.02,.25,0,.22-.05,.42-.12,.55-.1,.19-.25,.32-.51,.46l1.22,.7c0-.15-.02,.01,0-.06,.02-.06,.03-.12,.05-.17-.02,.07-.04,.09,0,.01,.09-.18-.06,.07,0-.02,.1-.13,.13-.12,.27-.15,.02,0,.21-.04,.09-.02-.1,.01,.05,0,.06,0,.07,0,.33,0,.29,0-.05,0,.19,.04,.26,.06,.06,.02,.35,.12,.24,.07,.1,.04,.2,.1,.3,.16,.05,.03,.11,.07,.16,.1-.07-.05-.04-.03,.01,0,.09,.08,.18,.16,.25,.26-.1-.12,.05,.1,.08,.16-.05-.11,.03,.16,.03,.12-.01-.1-.05,.29,0,.11-.05,.24-.12,.36-.32,.59-.68,.78,.39,1.89,1.15,1.15,.18-.17,.39-.32,.5-.36,.02,0,.22-.05,.11-.03-.09,.02,.04,0,.07,0-.15-.02,.17,.04,0,0,0,0,.17,.11,.09,.05s.04,.04,.06,.05c.05,.04,.09,.09,.13,.13-.06-.07-.02-.02,.01,.02,.17,.26,.2,.35,.28,.63,.29,1.02,.06,2.22-.83,2.98-.8,.68,.36,1.83,1.15,1.15,1.35-1.16,1.77-3.26,1.13-4.9-.28-.72-.78-1.43-1.55-1.65-.88-.26-1.69,.17-2.31,.77l1.15,1.15c.6-.69,1.01-1.59,.67-2.5-.27-.73-.87-1.27-1.58-1.58-1.53-.67-3.54-.23-3.64,1.71-.03,.64,.71,.99,1.22,.7,1.84-1.02,1.71-3.3,.53-4.78-.5-.63-1.23-1.16-2.06-1.19-.99-.04-1.74,.65-2.14,1.49-.19,.4-.11,.88,.29,1.11,.35,.21,.93,.11,1.11-.29h0Z"/>
      <path d="M63,74.14c.87,.73,1.94,1.17,3.06,1.3,.98,.11,2.17-.15,2.66-1.1,.33-.65,.29-1.39,.1-2.07-.11-.41-.58-.7-1-.57s-.69,.56-.57,1c.03,.12,.06,.25,.09,.37,.03,.15,0-.18,0,0,0,.06,0,.12,0,.18,0,.05,0,.1,0,.15,0,.02,0,.04,0,.06,0,.1,.04-.19,.01-.1-.02,.08-.07,.19-.07,.26,0-.08,.1-.18,.02-.06-.02,.03-.04,.07-.06,.1-.06,.1,.13-.14,.05-.06-.03,.03-.06,.06-.09,.09-.12,.12,.12-.07,.04-.03-.03,.01-.06,.04-.08,.05-.03,.02-.07,.03-.1,.05-.07,.05,.19-.06,.1-.04-.02,0-.04,.02-.06,.02-.08,.03-.16,.05-.24,.07-.04,0-.09,0-.13,.02,0,0,.23-.02,.1-.01-.03,0-.05,0-.08,0-.2,.02-.39,0-.59,0-.02,0-.04,0-.06,0-.13-.01,.09,0,.09,.01,0,0-.14-.02-.15-.02-.11-.02-.22-.04-.32-.07-.2-.05-.4-.12-.6-.19-.03-.01-.06-.02-.08-.03-.1-.04,.05,.02,.07,.03-.06-.03-.12-.06-.18-.08-.11-.05-.21-.11-.31-.17s-.2-.12-.29-.18c-.05-.03-.09-.07-.14-.1-.06-.04,.08,.06,.08,.06,0,0-.09-.07-.09-.08-.32-.27-.84-.34-1.15,0-.28,.3-.35,.86,0,1.15h0Z"/>
      <path d="M67.03,72.25c.11,.52,.35,1.06,.77,1.41s.92,.54,1.45,.51c1.02-.05,1.94-.68,2.47-1.53,.31-.5,.48-1.11,.44-1.69-.03-.42-.35-.83-.81-.81-.42,.02-.84,.36-.81,.81,0,.1,0,.19,0,.29,0,.04-.02,.2,0,.03s0,.03-.02,.06c-.02,.08-.04,.17-.07,.25,0,.02-.02,.04-.02,.06-.02,.08,.05-.14,.05-.12-.01,.05-.04,.1-.07,.14-.04,.08-.08,.15-.13,.22-.02,.04-.06,.07-.08,.11,0,0,.14-.17,.06-.08-.02,.02-.04,.04-.05,.06-.06,.06-.11,.12-.18,.18-.03,.03-.07,.06-.1,.09-.13,.12,.13-.09,.03-.02-.07,.05-.14,.1-.22,.14-.04,.02-.19,.13-.23,.12,0,0,.22-.08,.11-.05-.02,0-.04,.01-.06,.02-.03,.01-.07,.02-.1,.03-.08,.02-.16,.04-.24,.06-.09,.02,.22-.02,.13-.02-.02,0-.04,0-.06,0-.03,0-.07,0-.1,0-.04,0-.08,0-.11,0-.17,0,.2,.04,.06,0-.07-.02-.14-.04-.2-.05-.11-.03,.21,.11,.06,.03-.03-.02-.07-.04-.1-.06-.02-.01-.03-.02-.05-.03-.1-.06,.13,.12,.08,.06-.03-.03-.07-.06-.1-.09-.03-.03-.14-.17-.04-.04s0-.02-.03-.05c-.02-.04-.05-.08-.07-.12-.09-.17,.06,.17,0,0-.04-.13-.08-.25-.11-.38-.09-.42-.6-.7-1-.57-.44,.14-.66,.55-.57,1h0Z"/>
      <path d="M61.28,68.17c1.03,.76,2.39,1.52,3.6,.7,1.07-.72,1.51-2.23,2.05-3.33l-1.49-.19c.64,3.51,4.9,2.78,6.33,.25l-1.28,.16c2.25,2.37,8.36,3.88,8.94-.69,.13-1.04-1.5-1.03-1.63,0-.36,2.83-5.07,.69-6.16-.47-.36-.38-1.02-.28-1.28,.16-.4,.7-1.1,1.26-1.9,1.38-.9,.14-1.31-.43-1.46-1.25-.12-.68-1.19-.8-1.49-.19-.41,.82-.73,1.89-1.34,2.59s-1.53-.13-2.09-.54c-.84-.62-1.65,.79-.82,1.41h0Z"/>
      <path d="M68.65,68.91c1.34,1.37,2.58,2.82,3.61,4.44s1.81,3.27,2.53,4.99c.17,.41,.54,.7,1,.57,.38-.11,.74-.59,.57-1-.77-1.86-1.61-3.68-2.69-5.38s-2.44-3.3-3.87-4.77c-.73-.75-1.88,.4-1.15,1.15h0Z"/>
      <path d="M68.88,70.66c5.06,5.03,5.27,13.97,1.28,19.69-.6,.86,.81,1.68,1.41,.82,4.4-6.31,4.01-16.15-1.54-21.66-.74-.74-1.9,.41-1.15,1.15h0Z"/>
      <path d="M78.29,65.73c-.01,3.68-.75,7.24-2.09,10.66-.38,.98,1.19,1.4,1.57,.43,1.38-3.55,2.14-7.28,2.15-11.1,0-1.05-1.62-1.05-1.63,0h0Z"/>
      <path d="M78.56,71.17c.05,.18,.1,.37,.14,.56,.02,.1,.04,.19,.06,.29,0,.03,.05,.34,.03,.16,.05,.38,.07,.77,.06,1.16,0,.21-.02,.41-.04,.62-.03,.25,.03-.16-.01,.09-.02,.1-.03,.2-.06,.3-.04,.2-.09,.39-.16,.58-.03,.09-.06,.19-.1,.28,.07-.16-.05,.11-.07,.14-.19,.38-.12,.9,.29,1.11,.37,.19,.91,.12,1.11-.29,.82-1.65,.82-3.66,.32-5.41-.12-.41-.58-.7-1-.57s-.69,.56-.57,1h0Z"/>
      <path d="M81.14,71.82c-1.53,6.63-1.45,13.48-1.44,20.24,0,1.05,1.63,1.05,1.63,0,0-6.61-.12-13.32,1.38-19.8,.24-1.02-1.33-1.45-1.57-.43h0Z"/>
      <path d="M80.12,95.11c-.2-1.33,.86-2.8,1.58-3.82,1.01-1.43,2.21-2.72,3.42-3.98s2.39-2.53,3.68-3.7c1.82-1.64,3.75-3.15,5.47-4.9,.74-.75-.41-1.9-1.15-1.15-1.83,1.85-3.9,3.44-5.81,5.21-1.37,1.26-2.65,2.64-3.92,4s-2.51,2.76-3.52,4.33c-.85,1.33-1.56,2.83-1.31,4.44,.16,1.03,1.72,.59,1.57-.43h0Z"/>
      <path d="M89.12,82.13c-1.66,1.55-3.4,3.02-4.93,4.7-1.45,1.59-2.94,3.48-3.28,5.67-.07,.43,.11,.88,.57,1,.39,.11,.93-.13,1-.57,.32-2.03,1.71-3.73,3.07-5.18,1.48-1.59,3.14-2.99,4.72-4.47,.77-.72-.38-1.86-1.15-1.15h0Z"/>
      <path d="M75.94,83.79c0,2.48,.06,5.01-.68,7.4-.31,1,1.26,1.43,1.57,.43,.77-2.53,.72-5.21,.73-7.83,0-1.05-1.62-1.05-1.63,0h0Z"/>
      <path d="M63.7,112.95v3.92c0,.43,.37,.83,.81,.81s.81-.36,.81-.81v-3.92c0-.43-.37-.83-.81-.81s-.81,.36-.81,.81h0Z"/>
      <path d="M92.15,12.41c-.11-1.36,.18-2.35,1.52-2.9l-.79-.21c.67,.6,.95,1.3,.97,2.19,.01,.57,.7,1.07,1.22,.7,.42-.29,1.18-.98,1.73-.96,.45,.02,.55,.93,.63,1.33,.17,.87,1.31,.67,1.57,0,.42-1.06,2.53-4.43,3.98-3.04,1,.96-.75,3.24-1.33,4.06l1.41,.82c.18-.26,.39-.55,.66-.73,.09-.06,.23-.17,.35-.16s-.13-.12,0,.05c.4,.5-.12,1.39-.41,1.79-.8,1.13-1.99,1.96-2.99,2.9-.56,.52,.02,1.68,.79,1.36,.73-.3,1.83-.43,1.97,.61,.09,.68-.36,1.22-.89,1.57-1.16,.77-2.74,.96-4.1,.9-1.05-.05-1.03,1.55,0,1.63,.68,.05,1.59,.24,1.88,.96,.22,.56-.03,1.23-.38,1.68-1.34,1.69-3.49,.66-4.74-.55-.75-.73-1.9,.42-1.15,1.15,1.15,1.11,2.63,2.04,4.3,1.92,1.24-.09,2.38-.76,3.07-1.8,.6-.91,.82-2.12,.35-3.13-.6-1.3-1.99-1.75-3.32-1.85v1.63c2.08,.09,4.94-.39,6.15-2.3,.62-.98,.66-2.37-.08-3.31-.84-1.06-2.31-1.16-3.49-.67l.79,1.36c1.53-1.43,4.11-3.08,3.98-5.48-.05-.97-.6-2.03-1.69-2.05s-1.91,.9-2.47,1.71c-.6,.87,.81,1.67,1.41,.82,1.18-1.67,3.08-4.92,.6-6.39-2.73-1.62-5.36,1.91-6.23,4.11h1.57c-.2-1-.59-2.23-1.72-2.49s-2.19,.55-3.04,1.14l1.22,.7c-.03-1.3-.47-2.46-1.45-3.34-.2-.18-.52-.32-.79-.21-2,.82-2.89,2.32-2.71,4.47,.09,1.04,1.71,1.05,1.63,0h0Z"/>
    </g>
  </g>
</svg>